<svg width="41" height="41" viewBox="0 0 41 41" fill="none" xmlns="http://www.w3.org/2000/svg">
<path d="M11.8121 19.4652C9.47716 19.4652 7.1422 19.6025 4.80725 19.4652C2.33495 19.3278 0.41205 17.5423 0 15.07C0 14.6579 0 14.2459 0 13.9712C0 11.2242 0 8.61452 0 6.00487C0 3.25787 1.78555 0.922914 4.53255 0.510864C4.53255 0.510864 4.53255 0.510864 4.6699 0.510864C7.1422 0.510864 9.75185 0.510864 12.3615 0.510864C12.3615 0.648214 12.4989 0.648214 12.6362 0.648214C13.4603 0.922914 14.2844 1.33496 14.8338 1.88436C15.9326 2.98317 16.482 4.21932 16.482 5.73017C16.482 8.47717 16.482 11.0868 16.482 13.8338C16.482 14.2459 16.482 14.6579 16.482 15.07C16.2073 16.5808 15.5206 17.817 14.2844 18.6411C13.4603 19.0531 12.6362 19.3278 11.8121 19.4652Z" fill="#E5F3FD"/>
<path d="M33.376 19.4652C31.041 19.4652 28.7061 19.6025 26.3711 19.4652C23.8988 19.3278 21.9759 17.5423 21.5639 15.07C21.5639 14.6579 21.4265 14.2459 21.4265 13.8338C21.4265 11.2242 21.4265 8.47717 21.4265 5.86752C21.4265 3.25787 23.3494 0.922914 25.9591 0.510864C25.9591 0.510864 25.9591 0.510864 26.0964 0.510864C28.7061 0.510864 31.3157 0.510864 33.788 0.510864C33.788 0.648214 33.9254 0.648214 34.0627 0.648214C34.8868 0.922914 35.7109 1.33496 36.2603 1.88436C37.2218 2.84581 37.7712 4.21932 37.9085 5.59282C37.9085 8.33982 37.9085 10.9495 37.9085 13.6965C37.9085 14.1085 37.9085 14.5206 37.9085 14.9326C37.6338 16.4435 36.9471 17.6796 35.7109 18.5037C35.0242 19.0531 34.2001 19.3278 33.376 19.4652Z" fill="#E5F3FD"/>
<path d="M40.3806 32.5134C40.2433 33.0628 40.1059 33.6122 39.9686 34.1616C38.7324 37.8701 36.1228 40.0677 32.277 40.8918C31.4529 41.0291 30.6288 41.0291 29.8047 40.8918C30.3541 40.7544 30.7661 40.6171 31.3155 40.4797C33.1011 39.9303 34.4746 38.9689 35.7107 37.458C37.0842 35.8098 37.771 33.8869 37.9083 31.6893C37.9083 29.7664 37.4963 28.1182 36.5348 26.47C35.436 24.6845 33.7878 23.311 31.8649 22.6242C31.3155 22.3495 30.6288 22.3495 29.942 22.0748C30.6288 21.9375 31.1782 21.9375 31.8649 22.0748C33.7878 22.2122 35.5734 22.8989 36.9469 24.2724C38.8698 25.9206 40.1059 27.7645 40.3806 30.2368C40.3806 30.3742 40.3806 30.5284 40.3806 30.5905C40.3806 31.1399 40.3806 31.8267 40.3806 32.5134Z" fill="#ADD6F3"/>
<path d="M11.812 19.4652C12.6361 19.3278 13.4602 19.0531 14.147 18.5037C15.3831 17.6796 16.0699 16.4435 16.3446 14.9326C16.3446 14.5206 16.3446 14.1085 16.3446 13.6965C16.3446 10.9495 16.3446 8.33982 16.3446 5.59282C16.3446 4.08197 15.7952 2.84582 14.6964 1.88436C14.0096 1.19761 13.3229 0.785564 12.4988 0.648214C12.4988 0.648214 12.3614 0.648214 12.3614 0.510864C13.0482 0.510864 13.7349 0.510864 14.559 0.510864C15.3831 0.648214 16.0699 0.922914 16.7566 1.47231C18.2675 2.57112 18.9542 3.94462 18.9542 5.73017C18.9542 8.61452 18.9542 11.3615 18.9542 14.2459C18.9542 17.1302 16.6193 19.6025 13.7349 19.4652C13.0482 19.4652 12.4988 19.4652 11.812 19.4652Z" fill="#D2EBFD"/>
<path d="M33.3762 19.4652C34.2003 19.3278 35.0244 19.0531 35.7112 18.5037C36.9473 17.6796 37.6341 16.4435 37.9088 14.9326C37.9088 14.5206 37.9088 14.1085 37.9088 13.6965C37.9088 10.9495 37.9088 8.33983 37.9088 5.59283C37.9088 4.91279 37.3594 2.84583 36.2606 1.88438C35.742 1.4306 34.8123 1.08182 34.063 0.648227C33.9256 0.648227 33.7883 0.648227 33.7883 0.510877C34.475 0.510877 35.1618 0.510877 35.9859 0.510877C35.9859 0.510877 36.4023 0.486676 36.5244 0.51088C37.9088 0.51088 39.1244 1.44169 39.9485 3.36459C40.0859 3.63929 40.5184 4.63606 40.5184 5.04343C40.5184 8.33983 40.5184 11.6362 40.5184 14.9326C40.3811 15.7567 40.1064 16.5808 39.557 17.1302C38.4582 18.5037 37.0847 19.3278 35.2991 19.3278C34.6124 19.4652 33.9256 19.4652 33.3762 19.4652Z" fill="#D2EBFD"/>
<path d="M11.8121 40.8918C9.47716 40.8918 7.1422 41.0292 4.80725 40.8918C2.33495 40.7545 0.41205 38.9689 0 36.4966C0 36.2219 0 35.8099 0 35.3978C0 32.6508 0 30.0412 0 27.2942C0 24.6845 1.6482 22.7616 4.1205 22.0748C4.3952 22.0748 4.6699 21.9375 4.9446 21.9375C7.27955 21.9375 9.6145 21.9375 11.9495 21.9375H12.0868C13.1856 22.0749 14.1471 22.6243 14.9712 23.311C15.9326 24.2725 16.482 25.646 16.482 27.0195C16.482 29.7665 16.482 32.3761 16.482 35.1231C16.482 35.5352 16.482 35.8099 16.482 36.2219C16.2073 37.7328 15.5206 38.9689 14.2844 39.793C13.4603 40.4798 12.6362 40.7545 11.8121 40.8918Z" fill="#E5F3FD"/>
<path d="M29.9422 22.0748C30.4916 22.3495 31.1784 22.3495 31.8651 22.6242C33.9254 23.4483 35.4362 24.6845 36.535 26.47C37.4965 28.1182 38.0459 29.7664 37.9085 31.6893C37.9085 33.8869 37.0844 35.8098 35.7109 37.458C34.4748 38.8315 33.1013 39.9303 31.3157 40.4797C30.7663 40.6171 30.3543 40.7544 29.8049 40.8918C28.4314 40.7544 27.1952 40.3424 26.0964 39.6556C23.4868 38.1448 21.9759 35.8098 21.5639 32.9255C20.8771 28.6676 23.3494 24.4098 27.3326 22.7616C28.294 22.3495 29.1181 22.0748 29.9422 22.0748Z" fill="#D2EBFD"/>
<path d="M11.812 40.8918C12.6361 40.7545 14.1512 39.8674 14.838 39.318C15.9794 38.1766 16.0699 37.8701 16.3446 36.3593C16.3446 35.9472 16.3446 35.5352 16.3446 35.2605C16.3446 32.5135 16.3446 29.9038 16.3446 27.1568C16.3446 25.646 15.7952 24.4098 14.8337 23.4484C14.0096 22.6243 13.0482 22.2122 11.9494 22.0749H11.812C12.9108 22.0749 14.0096 21.9375 14.9711 22.2122C17.1687 22.7616 18.8169 24.8219 18.8169 27.1568C18.8169 30.0412 18.8169 32.9255 18.8169 35.8099C18.8169 38.6942 16.7722 40.8918 13.6966 40.8918C13.0115 40.8918 12.4988 40.8918 11.812 40.8918Z" fill="#D2EBFD"/>
</svg>
