<svg width="41" height="41" viewBox="0 0 41 41" fill="none" xmlns="http://www.w3.org/2000/svg">
<path d="M11.8121 19.4652C9.47716 19.4652 7.1422 19.6026 4.80725 19.4652C2.33495 19.3279 0.41205 17.5423 0 15.07C0 14.658 0 14.2459 0 13.9712C0 11.2242 0 8.61455 0 6.0049C0 3.2579 1.78555 0.922945 4.53255 0.510895C4.53255 0.510895 4.53255 0.510895 4.6699 0.510895C7.1422 0.510895 9.75185 0.510895 12.3615 0.510895C12.3615 0.648245 12.4989 0.648245 12.6362 0.648245C13.4603 0.922945 14.2844 1.335 14.8338 1.8844C15.9326 2.9832 16.482 4.21935 16.482 5.7302C16.482 8.4772 16.482 11.0868 16.482 13.8338C16.482 14.2459 16.482 14.658 16.482 15.07C16.2073 16.5809 15.5206 17.817 14.2844 18.6411C13.4603 19.0532 12.6362 19.3279 11.8121 19.4652Z" fill="#FFCC00"/>
<path d="M33.376 19.4652C31.041 19.4652 28.7061 19.6026 26.3711 19.4652C23.8988 19.3279 21.9759 17.5423 21.5639 15.07C21.5639 14.658 21.4265 14.2459 21.4265 13.8338C21.4265 11.2242 21.4265 8.4772 21.4265 5.86755C21.4265 3.2579 23.3494 0.922945 25.9591 0.510895C25.9591 0.510895 25.9591 0.510895 26.0964 0.510895C28.7061 0.510895 31.3157 0.510895 33.788 0.510895C33.788 0.648245 33.9254 0.648245 34.0627 0.648245C34.8868 0.922945 35.7109 1.335 36.2603 1.8844C37.2218 2.84585 37.7712 4.21935 37.9085 5.59285C37.9085 8.33985 37.9085 10.9495 37.9085 13.6965C37.9085 14.1086 37.9085 14.5206 37.9085 14.9326C37.6338 16.4435 36.9471 17.6797 35.7109 18.5038C35.0242 19.0532 34.2001 19.3279 33.376 19.4652Z" fill="#FFCC00"/>
<path d="M40.3808 32.5134C40.2434 33.0628 40.1061 33.6123 39.9687 34.1617C38.7326 37.8701 36.1229 40.0677 32.2771 40.8918C31.453 41.0292 30.6289 41.0292 29.8048 40.8918C30.3542 40.7545 30.7663 40.6171 31.3157 40.4798C33.1012 39.9304 34.4747 38.9689 35.7109 37.4581C37.0844 35.8099 37.7711 33.887 37.9085 31.6894C37.9085 29.7664 37.4964 28.1182 36.535 26.47C35.4362 24.6845 33.788 23.311 31.8651 22.6242C31.3157 22.3495 30.6289 22.3495 29.9422 22.0748C30.6289 21.9375 31.1783 21.9375 31.8651 22.0748C33.788 22.2122 35.5735 22.8989 36.947 24.2724C38.8699 25.9206 40.1061 27.7646 40.3808 30.2369C40.3808 30.3742 40.3808 30.5284 40.3808 30.5905C40.3808 31.1399 40.3808 31.8267 40.3808 32.5134Z" fill="#4285F4"/>
<path d="M11.812 19.4652C12.6361 19.3279 13.4602 19.0532 14.147 18.5038C15.3831 17.6797 16.0699 16.4435 16.3446 14.9327C16.3446 14.5206 16.3446 14.1086 16.3446 13.6965C16.3446 10.9495 16.3446 8.33985 16.3446 5.59285C16.3446 4.082 15.7952 2.84585 14.6964 1.8844C14.0096 1.19765 13.3229 0.785595 12.4988 0.648245C12.4988 0.648245 12.3614 0.648245 12.3614 0.510895C13.0482 0.510895 13.7349 0.510895 14.559 0.510895C15.3831 0.648245 16.0699 0.922945 16.7566 1.47235C18.2675 2.57115 18.9542 3.94465 18.9542 5.7302C18.9542 8.61455 18.9542 11.3615 18.9542 14.2459C18.9542 17.1303 16.6193 19.6026 13.7349 19.4652C13.0482 19.4652 12.4988 19.4652 11.812 19.4652Z" fill="#F0AE08"/>
<path d="M33.3762 19.4652C34.2003 19.3278 35.0244 19.0531 35.7112 18.5037C36.9473 17.6796 37.6341 16.4435 37.9088 14.9326C37.9088 14.5206 37.9088 14.1085 37.9088 13.6965C37.9088 10.9495 37.9088 8.33983 37.9088 5.59283C37.9088 4.91279 37.3594 2.84583 36.2606 1.88438C35.742 1.4306 34.8123 1.08182 34.063 0.648227C33.9256 0.648227 33.7883 0.648227 33.7883 0.510877C34.475 0.510877 35.1618 0.510877 35.9859 0.510877C35.9859 0.510877 36.4023 0.486676 36.5244 0.51088C37.9088 0.51088 39.1244 1.44169 39.9485 3.36459C40.0859 3.63929 40.5184 4.63606 40.5184 5.04343C40.5184 8.33983 40.5184 11.6362 40.5184 14.9326C40.3811 15.7567 40.1064 16.5808 39.557 17.1302C38.4582 18.5037 37.0847 19.3278 35.2991 19.3278C34.6124 19.4652 33.9256 19.4652 33.3762 19.4652Z" fill="#F0AE08"/>
<path d="M11.8121 40.8918C9.47716 40.8918 7.1422 41.0292 4.80725 40.8918C2.33495 40.7545 0.41205 38.9689 0 36.4966C0 36.2219 0 35.8099 0 35.3978C0 32.6508 0 30.0412 0 27.2942C0 24.6845 1.6482 22.7616 4.1205 22.0748C4.3952 22.0748 4.6699 21.9375 4.9446 21.9375C7.27955 21.9375 9.6145 21.9375 11.9495 21.9375H12.0868C13.1856 22.0749 14.1471 22.6243 14.9712 23.311C15.9326 24.2725 16.482 25.646 16.482 27.0195C16.482 29.7665 16.482 32.3761 16.482 35.1231C16.482 35.5352 16.482 35.8099 16.482 36.2219C16.2073 37.7328 15.5206 38.9689 14.2844 39.793C13.4603 40.4798 12.6362 40.7545 11.8121 40.8918Z" fill="#FFCC00"/>
<path d="M29.9422 22.0748C30.4916 22.3495 31.1784 22.3495 31.8651 22.6242C33.9254 23.4483 35.4362 24.6845 36.535 26.47C37.4965 28.1182 38.0459 29.7664 37.9085 31.6893C37.9085 33.8869 37.0844 35.8098 35.7109 37.458C34.4748 38.8315 33.1013 39.9303 31.3157 40.4797C30.7663 40.6171 30.3543 40.7544 29.8049 40.8918C28.4314 40.7544 27.1952 40.3424 26.0964 39.6556C23.4868 38.1448 21.9759 35.8098 21.5639 32.9255C20.8771 28.6676 23.3494 24.4098 27.3326 22.7616C28.294 22.3495 29.1181 22.0748 29.9422 22.0748Z" fill="#73A8FF"/>
<path d="M11.812 40.8918C12.6361 40.7544 14.1512 39.8674 14.838 39.318C15.9794 38.1766 16.0699 37.8701 16.3446 36.3592C16.3446 35.9472 16.3446 35.5351 16.3446 35.2604C16.3446 32.5134 16.3446 29.9038 16.3446 27.1568C16.3446 25.6459 15.7952 24.4098 14.8337 23.4483C14.0096 22.6242 13.0482 22.2122 11.9494 22.0748H11.812C12.9108 22.0748 14.0096 21.9375 14.9711 22.2122C17.1687 22.7616 18.8169 24.8218 18.8169 27.1568C18.8169 30.0411 18.8169 32.9255 18.8169 35.8098C18.8169 38.6942 16.7722 40.8918 13.6966 40.8918C13.0115 40.8918 12.4988 40.8918 11.812 40.8918Z" fill="#F0AE08"/>
</svg>
