<svg width="36" height="40" viewBox="0 0 36 40" fill="none" xmlns="http://www.w3.org/2000/svg">
<path d="M0.540058 10.1185C0.478508 10.2152 0.49575 10.3617 0.574413 10.445C1.98011 11.933 2.7654 13.9062 2.7654 15.9584V23.1972C2.7654 24.8405 4.00343 26.4524 6.21431 26.4524V18.2586C6.21431 14.742 9.06497 11.8914 12.5815 11.8914H26.1119C29.6285 11.8914 32.4791 14.742 32.4791 18.2586V26.4524C34.37 26.4524 35.7954 24.9581 35.7954 23.1972V17.6842C35.8378 15.7648 35.7503 8.99562 30.8608 4.28254C25.1758 -1.19738 16.1652 -0.748759 9.63988 2.18308C9.42764 2.27846 9.43321 2.58236 9.6485 2.67097L11.3505 3.37163C11.605 3.47643 11.5514 3.85143 11.2779 3.88074L10.4512 3.96949C6.49354 4.39225 2.81873 6.54118 0.540058 10.1185Z" fill="#A0A4FF"/>
<path d="M6.21445 26.8676C6.21445 34.1231 12.0972 40 19.3469 40C26.1773 40 32.4792 34.6899 32.4792 26.4524V18.2586C32.4792 14.742 29.6286 11.8914 26.112 11.8914H12.5817C9.06511 11.8914 6.21445 14.742 6.21445 18.2586V26.8676Z" fill="#FFB39B"/>
<path d="M22.3203 35.3476C20.1612 36.6984 21.8638 40.0111 24.2273 39.0624C29.0868 37.1119 32.4792 32.3763 32.4792 26.8675V18.2585C32.4792 16.9209 32.0667 15.6795 31.3621 14.6547C30.498 13.3981 28.4997 13.9532 28.4997 15.6055V24.2145C28.4997 29.0576 25.9539 33.0743 22.3203 35.3476Z" fill="#FF9675"/>
<path d="M9.64864 2.67079C11.2083 3.31269 11.4307 3.45423 11.9711 3.37039C20.6828 2.02001 28.3261 5.62452 30.9218 14.0867V14.088C31.8928 15.2049 32.4791 16.6641 32.4791 18.2586V26.3851C34 26.5 35.7954 25.5328 35.7954 23.1971V17.6842C35.8378 15.7647 35.7503 8.99557 30.8608 4.2825C25.1754 -1.1973 16.1658 -0.748937 9.63935 2.18264C9.42711 2.27815 9.43374 2.58192 9.64864 2.67079Z" fill="#868BFF"/>
</svg>
