<svg width="36" height="40" viewBox="0 0 36 40" fill="none" xmlns="http://www.w3.org/2000/svg">
<path d="M35.7634 10.1185C35.825 10.2152 35.8077 10.3617 35.7291 10.445C34.3234 11.9331 33.5381 13.9062 33.5381 15.9585V23.1972C33.5381 24.8405 32.3 26.4525 30.0892 26.4525V18.2586C30.0892 14.7421 27.2385 11.8914 23.7219 11.8914H10.1916C6.67501 11.8914 3.82435 14.7421 3.82435 18.2586V26.4525C1.93342 26.4525 0.508089 24.9582 0.508089 23.1972V17.6843C0.465641 15.7648 0.55319 8.99565 5.44269 4.28257C11.1277 -1.19735 20.1382 -0.748728 26.6636 2.18311C26.8758 2.27849 26.8703 2.58239 26.655 2.671L24.9529 3.37166C24.6985 3.47646 24.7521 3.85146 25.0256 3.88078L25.8523 3.96952C29.8099 4.39228 33.4847 6.54121 35.7634 10.1185Z" fill="#ADD6F3"/>
<path d="M30.089 26.8676C30.089 34.123 24.2062 40 16.9566 40C10.1262 40 3.82422 34.6898 3.82422 26.4524V18.2586C3.82422 14.742 6.67488 11.8913 10.1914 11.8913H23.7218C27.2384 11.8913 30.089 14.742 30.089 18.2586V26.8676Z" fill="#E5F3FD"/>
<path d="M13.9831 35.3477C16.1423 36.6984 14.4397 40.0111 12.0761 39.0624C7.21662 37.1119 3.82422 32.3763 3.82422 26.8676V18.2586C3.82422 16.9209 4.23676 15.6796 4.9414 14.6547C5.80549 13.3981 7.80373 13.9533 7.80373 15.6056V24.2146C7.80373 29.0576 10.3496 33.0743 13.9831 35.3477Z" fill="#D2EBFD"/>
<path d="M26.6548 2.67079C25.0951 3.31269 24.8728 3.45423 24.3324 3.37039C15.6207 2.02001 7.97737 5.62452 5.38167 14.0867V14.088C4.41067 15.2049 3.82435 16.6641 3.82435 18.2586V23.236C3.82435 25.3834 0.508089 25.5328 0.508089 23.1971V17.6842C0.465641 15.7647 0.55319 8.99557 5.44269 4.2825C11.1281 -1.1973 20.1377 -0.748937 26.6641 2.18264C26.8764 2.27815 26.8697 2.58192 26.6548 2.67079Z" fill="#92C7EC"/>
</svg>
