<svg width="79" height="86" viewBox="0 0 79 86" fill="none" xmlns="http://www.w3.org/2000/svg">
<g filter="url(#filter0_i)">
<path d="M44.0403 11.4551C45.0293 11.4557 45.9428 11.9838 46.4368 12.8406L50.7165 20.2633C51.2105 21.12 51.2099 22.1752 50.7149 23.0314L46.4265 30.4492C45.9315 31.3053 45.0174 31.8324 44.0284 31.8318L35.4602 31.8268C34.4713 31.8262 33.5578 31.2981 33.0638 30.4413L28.7841 23.0186C28.2901 22.1618 28.2907 21.1066 28.7857 20.2505L33.0741 12.8327C33.5691 11.9766 34.4832 11.4495 35.4722 11.4501L44.0403 11.4551Z" fill="#FDDD45"/>
</g>
<g filter="url(#filter1_i)">
<path d="M44.0403 32.7183C45.0293 32.7189 45.9428 33.247 46.4368 34.1038L50.7165 41.5265C51.2105 42.3833 51.2099 43.4385 50.7149 44.2947L46.4265 51.7124C45.9315 52.5686 45.0174 53.0956 44.0284 53.0951L35.4602 53.0901C34.4713 53.0895 33.5578 52.5613 33.0638 51.7046L28.7841 44.2818C28.2901 43.4251 28.2907 42.3699 28.7857 41.5137L33.0741 34.096C33.5691 33.2398 34.4832 32.7127 35.4722 32.7133L44.0403 32.7183Z" fill="#FDDD45"/>
</g>
<path fill-rule="evenodd" clip-rule="evenodd" d="M49.4343 32.3756L53.714 39.7983C54.8255 41.726 54.8241 44.1002 53.7104 46.0266L49.422 53.4443C48.3083 55.3707 46.2515 56.5566 44.0263 56.5553L35.4582 56.5503C33.233 56.549 31.1776 55.3607 30.0662 53.433L25.7864 46.0103C24.675 44.0826 24.6764 41.7084 25.7901 39.782L30.0785 32.3643C31.1922 30.4379 33.249 29.252 35.4741 29.2533L44.0423 29.2583C46.2674 29.2596 48.3229 30.4479 49.4343 32.3756ZM46.4367 34.1039C45.9427 33.2471 45.0292 32.719 44.0403 32.7184L35.4721 32.7134C34.4832 32.7128 33.569 33.2399 33.074 34.0961L28.7856 41.5138C28.2906 42.37 28.29 43.4252 28.784 44.2819L33.0637 51.7047C33.5577 52.5614 34.4712 53.0896 35.4602 53.0901L44.0283 53.0952C45.0173 53.0957 45.9314 52.5687 46.4264 51.7125L50.7148 44.2948C51.2098 43.4386 51.2104 42.3834 50.7165 41.5266L46.4367 34.1039Z" fill="white"/>
<g filter="url(#filter2_i)">
<path d="M44.0403 54.1714C45.0293 54.172 45.9428 54.7001 46.4368 55.5569L50.7165 62.9796C51.2105 63.8364 51.2099 64.8916 50.7149 65.7477L46.4265 73.1655C45.9315 74.0216 45.0174 74.5487 44.0284 74.5481L35.4602 74.5431C34.4713 74.5425 33.5578 74.0144 33.0638 73.1577L28.7841 65.7349C28.2901 64.8782 28.2907 63.823 28.7857 62.9668L33.0741 55.549C33.5691 54.6929 34.4832 54.1658 35.4722 54.1664L44.0403 54.1714Z" fill="#FDDD45"/>
</g>
<g filter="url(#filter3_i)">
<path d="M62.5357 22.338C63.5246 22.3385 64.4382 22.8667 64.9321 23.7234L69.2119 31.1462C69.7058 32.0029 69.7052 33.0581 69.2103 33.9143L64.9218 41.332C64.4269 42.1882 63.5127 42.7153 62.5238 42.7147L53.9556 42.7097C52.9667 42.7091 52.0531 42.181 51.5592 41.3242L47.2794 33.9015C46.7854 33.0447 46.7861 31.9895 47.281 31.1334L51.5695 23.7156C52.0644 22.8594 52.9786 22.3324 53.9675 22.333L62.5357 22.338Z" fill="#FDDD45"/>
</g>
<g filter="url(#filter4_i)">
<path d="M62.5357 43.4449C63.5246 43.4455 64.4382 43.9736 64.9321 44.8304L69.2119 52.2531C69.7058 53.1099 69.7052 54.1651 69.2103 55.0212L64.9218 62.439C64.4269 63.2951 63.5127 63.8222 62.5238 63.8216L53.9556 63.8166C52.9667 63.816 52.0531 63.2879 51.5592 62.4312L47.2794 55.0084C46.7854 54.1517 46.7861 53.0965 47.281 52.2403L51.5695 44.8225C52.0644 43.9664 52.9786 43.4393 53.9675 43.4399L62.5357 43.4449Z" fill="#FDDD45"/>
</g>
<g filter="url(#filter5_i)">
<path d="M25.5125 22.338C26.5014 22.3385 27.415 22.8667 27.9089 23.7234L32.1887 31.1462C32.6827 32.0029 32.682 33.0581 32.1871 33.9143L27.8986 41.332C27.4037 42.1882 26.4895 42.7153 25.5006 42.7147L16.9324 42.7097C15.9435 42.7091 15.0299 42.181 14.536 41.3242L10.2562 33.9015C9.76224 33.0447 9.76286 31.9895 10.2578 31.1334L14.5463 23.7156C15.0412 22.8594 15.9554 22.3324 16.9443 22.333L25.5125 22.338Z" fill="#FDDD45"/>
</g>
<g filter="url(#filter6_i)">
<path d="M25.5125 43.4449C26.5014 43.4455 27.415 43.9736 27.9089 44.8304L32.1887 52.2531C32.6827 53.1099 32.682 54.1651 32.1871 55.0212L27.8986 62.439C27.4037 63.2951 26.4895 63.8222 25.5006 63.8216L16.9324 63.8166C15.9435 63.816 15.0299 63.2879 14.536 62.4312L10.2562 55.0084C9.76224 54.1517 9.76286 53.0965 10.2578 52.2403L14.5463 44.8225C15.0412 43.9664 15.9554 43.4393 16.9443 43.4399L25.5125 43.4449Z" fill="#FDDD45"/>
</g>
<path d="M54.147 18.2852L49.8672 10.8625C48.6665 8.78002 46.4461 7.49632 44.0423 7.49492L35.4742 7.48991C33.0704 7.4885 30.8485 8.7696 29.6454 10.8506L25.3569 18.2684C24.1538 20.3494 24.1523 22.9142 25.353 24.9966L29.6327 32.4194C30.8334 34.5018 33.0539 35.7855 35.4576 35.7869L44.0258 35.7919C46.4296 35.7933 48.6515 34.5122 49.8546 32.4312L54.143 25.0135C55.3461 22.9324 55.3476 20.3676 54.147 18.2852ZM44.0397 11.9551C44.85 11.9555 45.5986 12.3883 46.0033 13.0903L50.2831 20.513C50.6878 21.215 50.6873 22.0796 50.2817 22.7811L45.9933 30.1989C45.5877 30.9004 44.8387 31.3323 44.0284 31.3318L35.4602 31.3268C34.6499 31.3263 33.9014 30.8936 33.4967 30.1916L29.2169 22.7688C28.8122 22.0668 28.8127 21.2022 29.2182 20.5007L33.5067 13.083C33.9122 12.3814 34.6612 11.9496 35.4716 11.9501L44.0397 11.9551Z" fill="white" stroke="white"/>
<path d="M54.147 61.0015L49.8672 53.5788C48.6665 51.4963 46.4461 50.2126 44.0423 50.2112L35.4742 50.2062C33.0704 50.2048 30.8485 51.4859 29.6454 53.5669L25.3569 60.9847C24.1538 63.0657 24.1523 65.6305 25.353 67.7129L29.6327 75.1357C30.8334 77.2181 33.0539 78.5018 35.4576 78.5032L44.0258 78.5082C46.4296 78.5097 48.6515 77.2285 49.8546 75.1475L54.143 67.7298C55.3461 65.6487 55.3476 63.0839 54.147 61.0015ZM44.0397 54.6714C44.85 54.6718 45.5986 55.1046 46.0033 55.8066L50.2831 63.2293C50.6878 63.9313 50.6873 64.7959 50.2817 65.4974L45.9933 72.9152C45.5877 73.6167 44.8387 74.0486 44.0284 74.0481L35.4602 74.0431C34.6499 74.0426 33.9014 73.6099 33.4967 72.9079L29.2169 65.4851C28.8122 64.7831 28.8127 63.9185 29.2182 63.217L33.5067 55.7993C33.9122 55.0978 34.6612 54.6659 35.4716 54.6664L44.0397 54.6714Z" fill="white" stroke="white"/>
<path d="M72.6434 29.1681L68.3637 21.7453C67.163 19.6629 64.9426 18.3792 62.5388 18.3778L53.9706 18.3728C51.5669 18.3714 49.3449 19.6525 48.1418 21.7335L43.8534 29.1512C42.6503 31.2323 42.6488 33.7971 43.8495 35.8795L48.1292 43.3023C49.3299 45.3847 51.5503 46.6684 53.9541 46.6698L62.5223 46.6748C64.926 46.6762 67.148 45.3951 68.3511 43.3141L72.6395 35.8963C73.8426 33.8153 73.8441 31.2505 72.6434 29.1681ZM62.5362 22.8379C63.3465 22.8384 64.095 23.2712 64.4998 23.9731L68.7795 31.3959C69.1843 32.0979 69.1838 32.9625 68.7782 33.664L64.4898 41.0817C64.0842 41.7833 63.3352 42.2151 62.5249 42.2147L53.9567 42.2097C53.1464 42.2092 52.3979 41.7764 51.9931 41.0744L47.7134 33.6517C47.3086 32.9497 47.3091 32.0851 47.7147 31.3836L52.0031 23.9658C52.4087 23.2643 53.1577 22.8325 53.968 22.8329L62.5362 22.8379Z" fill="white" stroke="white"/>
<path d="M72.6434 50.2751L68.3637 42.8524C67.163 40.77 64.9426 39.4863 62.5388 39.4848L53.9706 39.4798C51.5669 39.4784 49.3449 40.7595 48.1418 42.8406L43.8534 50.2583C42.6503 52.3393 42.6488 54.9041 43.8495 56.9866L48.1292 64.4093C49.3299 66.4918 51.5503 67.7755 53.9541 67.7769L62.5223 67.7819C64.926 67.7833 67.148 66.5022 68.3511 64.4211L72.6395 57.0034C73.8426 54.9224 73.8441 52.3576 72.6434 50.2751ZM62.5362 43.945C63.3465 43.9455 64.095 44.3782 64.4998 45.0802L68.7795 52.5029C69.1843 53.2049 69.1838 54.0695 68.7782 54.7711L64.4898 62.1888C64.0842 62.8903 63.3352 63.3222 62.5249 63.3217L53.9567 63.3167C53.1464 63.3162 52.3979 62.8835 51.9931 62.1815L47.7134 54.7588C47.3086 54.0568 47.3091 53.1922 47.7147 52.4906L52.0031 45.0729C52.4087 44.3714 53.1577 43.9395 53.968 43.94L62.5362 43.945Z" fill="white" stroke="white"/>
<path d="M35.6186 29.1681L31.3389 21.7453C30.1382 19.6629 27.9178 18.3792 25.514 18.3778L16.9459 18.3728C14.5421 18.3714 12.3201 19.6525 11.117 21.7335L6.82862 29.1512C5.62552 31.2323 5.62402 33.7971 6.82469 35.8795L11.1044 43.3023C12.3051 45.3847 14.5255 46.6684 16.9293 46.6698L25.4975 46.6748C27.9013 46.6762 30.1232 45.3951 31.3263 43.3141L35.6147 35.8963C36.8178 33.8153 36.8193 31.2505 35.6186 29.1681ZM25.5114 22.8379C26.3217 22.8384 27.0702 23.2712 27.475 23.9731L31.7547 31.3959C32.1595 32.0979 32.159 32.9625 31.7534 33.664L27.465 41.0817C27.0594 41.7833 26.3104 42.2151 25.5001 42.2147L16.9319 42.2097C16.1216 42.2092 15.3731 41.7764 14.9683 41.0744L10.6886 33.6517C10.2838 32.9497 10.2843 32.0851 10.6899 31.3836L14.9783 23.9658C15.3839 23.2643 16.1329 22.8325 16.9432 22.8329L25.5114 22.8379Z" fill="white" stroke="white"/>
<path d="M35.6186 50.2751L31.3389 42.8524C30.1382 40.77 27.9178 39.4863 25.514 39.4848L16.9459 39.4798C14.5421 39.4784 12.3201 40.7595 11.117 42.8406L6.82862 50.2583C5.62552 52.3393 5.62402 54.9041 6.82469 56.9866L11.1044 64.4093C12.3051 66.4918 14.5255 67.7755 16.9293 67.7769L25.4975 67.7819C27.9013 67.7833 30.1232 66.5022 31.3263 64.4211L35.6147 57.0034C36.8178 54.9224 36.8193 52.3576 35.6186 50.2751ZM25.5114 43.945C26.3217 43.9455 27.0702 44.3782 27.475 45.0802L31.7547 52.5029C32.1595 53.2049 32.159 54.0695 31.7534 54.7711L27.465 62.1888C27.0594 62.8903 26.3104 63.3222 25.5001 63.3217L16.9319 63.3167C16.1216 63.3162 15.3731 62.8835 14.9683 62.1815L10.6886 54.7588C10.2838 54.0568 10.2843 53.1922 10.6899 52.4906L14.9783 45.0729C15.3839 44.3714 16.1329 43.9395 16.9432 43.94L25.5114 43.945Z" fill="white" stroke="white"/>
<path d="M44.1559 11.4551C45.1449 11.4557 46.0584 11.9838 46.5524 12.8406L50.8321 20.2633C51.3261 21.12 51.3255 22.1752 50.8305 23.0314L46.5421 30.4492C46.0471 31.3053 45.133 31.8324 44.144 31.8318L35.5758 31.8268C34.5869 31.8262 33.6734 31.2981 33.1794 30.4413L28.8997 23.0186C28.4057 22.1618 28.4063 21.1066 28.9013 20.2505L33.1897 12.8327C33.6847 11.9766 34.5988 11.4495 35.5878 11.4501L44.1559 11.4551Z" fill="#FDDD45"/>
<path d="M44.1559 32.7185C45.1449 32.719 46.0584 33.2472 46.5524 34.1039L50.8321 41.5267C51.3261 42.3834 51.3255 43.4386 50.8305 44.2948L46.5421 51.7125C46.0471 52.5687 45.133 53.0958 44.144 53.0952L35.5758 53.0902C34.5869 53.0896 33.6734 52.5615 33.1794 51.7047L28.8997 44.282C28.4057 43.4252 28.4063 42.37 28.9013 41.5138L33.1897 34.0961C33.6847 33.2399 34.5988 32.7129 35.5878 32.7134L44.1559 32.7185Z" fill="#FDDD45"/>
<path d="M44.1559 54.1713C45.1449 54.1719 46.0584 54.7 46.5524 55.5567L50.8321 62.9795C51.3261 63.8362 51.3255 64.8914 50.8305 65.7476L46.5421 73.1653C46.0471 74.0215 45.133 74.5486 44.144 74.548L35.5758 74.543C34.5869 74.5424 33.6734 74.0143 33.1794 73.1575L28.8997 65.7348C28.4057 64.878 28.4063 63.8228 28.9013 62.9667L33.1897 55.5489C33.6847 54.6928 34.5988 54.1657 35.5878 54.1663L44.1559 54.1713Z" fill="#FDDD45"/>
<path d="M62.6513 22.3381C63.6402 22.3387 64.5538 22.8668 65.0477 23.7235L69.3275 31.1463C69.8214 32.003 69.8208 33.0582 69.3259 33.9144L65.0374 41.3322C64.5425 42.1883 63.6283 42.7154 62.6394 42.7148L54.0712 42.7098C53.0823 42.7092 52.1687 42.1811 51.6748 41.3243L47.395 33.9016C46.901 33.0448 46.9017 31.9896 47.3966 31.1335L51.6851 23.7157C52.18 22.8596 53.0942 22.3325 54.0831 22.3331L62.6513 22.3381Z" fill="#FDDD45"/>
<path d="M62.6513 43.4449C63.6402 43.4455 64.5538 43.9736 65.0477 44.8304L69.3275 52.2531C69.8214 53.1099 69.8208 54.1651 69.3259 55.0212L65.0374 62.439C64.5425 63.2951 63.6283 63.8222 62.6394 63.8216L54.0712 63.8166C53.0823 63.816 52.1687 63.2879 51.6748 62.4312L47.395 55.0084C46.901 54.1517 46.9017 53.0965 47.3966 52.2403L51.6851 44.8225C52.18 43.9664 53.0942 43.4393 54.0831 43.4399L62.6513 43.4449Z" fill="#FDDD45"/>
<path d="M25.6282 22.3381C26.6172 22.3387 27.5307 22.8668 28.0247 23.7235L32.3044 31.1463C32.7984 32.003 32.7978 33.0582 32.3028 33.9144L28.0144 41.3322C27.5194 42.1883 26.6052 42.7154 25.6163 42.7148L17.0481 42.7098C16.0592 42.7092 15.1457 42.1811 14.6517 41.3243L10.3719 33.9016C9.87797 33.0448 9.87858 31.9896 10.3736 31.1335L14.662 23.7157C15.157 22.8596 16.0711 22.3325 17.0601 22.3331L25.6282 22.3381Z" fill="#FDDD45"/>
<path d="M25.6282 43.4449C26.6172 43.4455 27.5307 43.9736 28.0247 44.8304L32.3044 52.2531C32.7984 53.1099 32.7978 54.1651 32.3028 55.0212L28.0144 62.439C27.5194 63.2951 26.6052 63.8222 25.6163 63.8216L17.0481 63.8166C16.0592 63.816 15.1457 63.2879 14.6517 62.4312L10.3719 55.0084C9.87797 54.1517 9.87858 53.0965 10.3736 52.2403L14.662 44.8225C15.157 43.9664 16.0711 43.4393 17.0601 43.4399L25.6282 43.4449Z" fill="#FDDD45"/>
<defs>
<filter id="filter0_i" x="25.256" y="2.72742" width="28.9886" height="33.8271" filterUnits="userSpaceOnUse" color-interpolation-filters="sRGB">
<feFlood flood-opacity="0" result="BackgroundImageFix"/>
<feBlend mode="normal" in="SourceGraphic" in2="BackgroundImageFix" result="shape"/>
<feColorMatrix in="SourceAlpha" type="matrix" values="0 0 0 0 0 0 0 0 0 0 0 0 0 0 0 0 0 0 127 0" result="hardAlpha"/>
<feOffset dy="-5"/>
<feGaussianBlur stdDeviation="2"/>
<feComposite in2="hardAlpha" operator="arithmetic" k2="-1" k3="1"/>
<feColorMatrix type="matrix" values="0 0 0 0 0.963607 0 0 0 0 0.689892 0 0 0 0 0.158562 0 0 0 1 0"/>
<feBlend mode="normal" in2="shape" result="effect1_innerShadow"/>
</filter>
<filter id="filter1_i" x="25.256" y="23.9907" width="28.9886" height="33.8271" filterUnits="userSpaceOnUse" color-interpolation-filters="sRGB">
<feFlood flood-opacity="0" result="BackgroundImageFix"/>
<feBlend mode="normal" in="SourceGraphic" in2="BackgroundImageFix" result="shape"/>
<feColorMatrix in="SourceAlpha" type="matrix" values="0 0 0 0 0 0 0 0 0 0 0 0 0 0 0 0 0 0 127 0" result="hardAlpha"/>
<feOffset dy="-5"/>
<feGaussianBlur stdDeviation="2"/>
<feComposite in2="hardAlpha" operator="arithmetic" k2="-1" k3="1"/>
<feColorMatrix type="matrix" values="0 0 0 0 0.963607 0 0 0 0 0.689892 0 0 0 0 0.158562 0 0 0 1 0"/>
<feBlend mode="normal" in2="shape" result="effect1_innerShadow"/>
</filter>
<filter id="filter2_i" x="25.256" y="45.4437" width="28.9886" height="33.8271" filterUnits="userSpaceOnUse" color-interpolation-filters="sRGB">
<feFlood flood-opacity="0" result="BackgroundImageFix"/>
<feBlend mode="normal" in="SourceGraphic" in2="BackgroundImageFix" result="shape"/>
<feColorMatrix in="SourceAlpha" type="matrix" values="0 0 0 0 0 0 0 0 0 0 0 0 0 0 0 0 0 0 127 0" result="hardAlpha"/>
<feOffset dy="-5"/>
<feGaussianBlur stdDeviation="2"/>
<feComposite in2="hardAlpha" operator="arithmetic" k2="-1" k3="1"/>
<feColorMatrix type="matrix" values="0 0 0 0 0.963607 0 0 0 0 0.689892 0 0 0 0 0.158562 0 0 0 1 0"/>
<feBlend mode="normal" in2="shape" result="effect1_innerShadow"/>
</filter>
<filter id="filter3_i" x="43.7513" y="13.6103" width="28.9886" height="33.8271" filterUnits="userSpaceOnUse" color-interpolation-filters="sRGB">
<feFlood flood-opacity="0" result="BackgroundImageFix"/>
<feBlend mode="normal" in="SourceGraphic" in2="BackgroundImageFix" result="shape"/>
<feColorMatrix in="SourceAlpha" type="matrix" values="0 0 0 0 0 0 0 0 0 0 0 0 0 0 0 0 0 0 127 0" result="hardAlpha"/>
<feOffset dy="-5"/>
<feGaussianBlur stdDeviation="2"/>
<feComposite in2="hardAlpha" operator="arithmetic" k2="-1" k3="1"/>
<feColorMatrix type="matrix" values="0 0 0 0 0.963607 0 0 0 0 0.689892 0 0 0 0 0.158562 0 0 0 1 0"/>
<feBlend mode="normal" in2="shape" result="effect1_innerShadow"/>
</filter>
<filter id="filter4_i" x="43.7513" y="34.7172" width="28.9886" height="33.8271" filterUnits="userSpaceOnUse" color-interpolation-filters="sRGB">
<feFlood flood-opacity="0" result="BackgroundImageFix"/>
<feBlend mode="normal" in="SourceGraphic" in2="BackgroundImageFix" result="shape"/>
<feColorMatrix in="SourceAlpha" type="matrix" values="0 0 0 0 0 0 0 0 0 0 0 0 0 0 0 0 0 0 127 0" result="hardAlpha"/>
<feOffset dy="-5"/>
<feGaussianBlur stdDeviation="2"/>
<feComposite in2="hardAlpha" operator="arithmetic" k2="-1" k3="1"/>
<feColorMatrix type="matrix" values="0 0 0 0 0.963607 0 0 0 0 0.689892 0 0 0 0 0.158562 0 0 0 1 0"/>
<feBlend mode="normal" in2="shape" result="effect1_innerShadow"/>
</filter>
<filter id="filter5_i" x="6.72815" y="13.6103" width="28.9886" height="33.8271" filterUnits="userSpaceOnUse" color-interpolation-filters="sRGB">
<feFlood flood-opacity="0" result="BackgroundImageFix"/>
<feBlend mode="normal" in="SourceGraphic" in2="BackgroundImageFix" result="shape"/>
<feColorMatrix in="SourceAlpha" type="matrix" values="0 0 0 0 0 0 0 0 0 0 0 0 0 0 0 0 0 0 127 0" result="hardAlpha"/>
<feOffset dy="-5"/>
<feGaussianBlur stdDeviation="2"/>
<feComposite in2="hardAlpha" operator="arithmetic" k2="-1" k3="1"/>
<feColorMatrix type="matrix" values="0 0 0 0 0.963607 0 0 0 0 0.689892 0 0 0 0 0.158562 0 0 0 1 0"/>
<feBlend mode="normal" in2="shape" result="effect1_innerShadow"/>
</filter>
<filter id="filter6_i" x="6.72815" y="34.7172" width="28.9886" height="33.8271" filterUnits="userSpaceOnUse" color-interpolation-filters="sRGB">
<feFlood flood-opacity="0" result="BackgroundImageFix"/>
<feBlend mode="normal" in="SourceGraphic" in2="BackgroundImageFix" result="shape"/>
<feColorMatrix in="SourceAlpha" type="matrix" values="0 0 0 0 0 0 0 0 0 0 0 0 0 0 0 0 0 0 127 0" result="hardAlpha"/>
<feOffset dy="-5"/>
<feGaussianBlur stdDeviation="2"/>
<feComposite in2="hardAlpha" operator="arithmetic" k2="-1" k3="1"/>
<feColorMatrix type="matrix" values="0 0 0 0 0.963607 0 0 0 0 0.689892 0 0 0 0 0.158562 0 0 0 1 0"/>
<feBlend mode="normal" in2="shape" result="effect1_innerShadow"/>
</filter>
</defs>
</svg>
