<svg width="52" height="46" viewBox="0 0 52 46" fill="none" xmlns="http://www.w3.org/2000/svg">
<path d="M34.7005 4.86255H16.8275C15.4493 4.86255 14.1359 5.44738 13.2137 6.47162L6.11133 14.3606C4.46417 16.1902 4.44422 18.9621 6.06488 20.8152L22.3853 39.4761C24.3417 41.713 27.8293 41.6873 29.7525 39.4217L45.5527 20.8082C47.1281 18.9522 47.0882 16.2172 45.4594 14.408L38.3143 6.47162C37.3922 5.44738 36.0787 4.86255 34.7005 4.86255Z" fill="#48CEE0"/>
<path fill-rule="evenodd" clip-rule="evenodd" d="M16.8275 0H34.7005C37.4569 0 40.0838 1.16966 41.928 3.21815L49.0731 11.1545C52.3308 14.773 52.4106 20.243 49.2597 23.9549L33.4595 42.5684C29.6132 47.0996 22.6378 47.1511 18.725 42.6772L2.40467 24.0163C-0.836651 20.3101 -0.79675 14.7662 2.49756 11.1071L9.59998 3.21815C11.4442 1.16966 14.0711 0 16.8275 0ZM16.8275 4.86253H34.7005C36.0787 4.86253 37.3922 5.44736 38.3143 6.47161L45.4593 14.4079C47.0882 16.2172 47.1281 18.9522 45.5526 20.8081L29.7525 39.4217C27.8293 41.6873 24.3416 41.713 22.3852 39.4761L6.06487 20.8151C4.44421 18.9621 4.46416 16.1901 6.11131 14.3606L13.2137 6.47161C14.1359 5.44736 15.4493 4.86253 16.8275 4.86253Z" fill="white"/>
<path d="M21.4337 17.2982H9.44214L16.4372 9.52594H23.4323L21.4337 17.2982Z" fill="#7DEDFC"/>
</svg>
