<svg width="58" height="73" viewBox="0 0 58 73" fill="none" xmlns="http://www.w3.org/2000/svg">
<path d="M28.2755 69.2393C20.0021 69.2393 12.2302 64.7265 7.71749 57.7067C3.20477 50.1855 2.70336 41.1601 6.46396 33.3882C11.2274 23.3599 17.7458 14.8359 23.2613 7.56543C24.0135 6.5626 25.7684 4.30627 28.7769 4.30627C31.5346 4.30627 33.2896 6.56263 33.791 7.31475C41.3122 16.8416 47.3292 24.8642 51.3405 34.8925C54.5997 42.9151 53.8475 51.4391 49.0841 58.4589C44.5714 65.2279 37.0502 69.2393 28.2755 69.2393Z" fill="#FDDD45"/>
<path d="M28.7768 8.06697C29.529 8.06697 30.0304 8.56837 30.7825 9.57119C37.3009 17.8445 43.8192 26.3685 47.8305 36.3968C53.8475 50.6871 43.8192 65.7295 28.5261 65.7295C28.5261 65.7295 28.5261 65.7295 28.2754 65.7295C12.9823 65.7295 3.20476 49.1828 9.97384 35.1433C14.2359 26.1178 20.2528 17.8445 26.2698 10.0726C27.2726 8.56836 28.0247 8.06697 28.7768 8.06697ZM28.7768 0.545776C24.0134 0.545776 21.2556 4.05565 20.5035 5.30919C14.7373 12.5797 8.2189 21.3544 3.20477 31.6334C-1.05724 40.6588 -0.555851 51.1885 4.70899 59.7125C9.97383 67.9858 18.7486 73 28.2754 73H28.5261C38.3037 73 47.0784 68.2365 52.3432 60.4646C57.6081 52.442 58.6109 42.4138 54.8503 33.3883C50.3376 22.1065 42.8164 12.5797 36.7994 4.80778C34.5431 1.7993 31.7853 0.545776 28.7768 0.545776Z" fill="#E5F3FD"/>
<path d="M40.0588 44.67C39.0559 44.1686 38.3038 44.4193 37.5517 44.9208C36.5489 49.9349 32.5376 53.1941 27.5234 53.4448C27.5234 53.6955 27.5234 54.1969 27.5234 54.4476C28.0249 56.4533 29.2784 57.2054 31.284 57.2054C36.2982 56.9547 40.3095 53.6955 41.3123 48.6814C41.563 47.1771 41.8137 45.4222 40.0588 44.67Z" fill="#FDDD45"/>
<path d="M47.8301 36.146C43.8188 26.1177 37.3004 17.8444 30.782 9.32036C30.0299 8.31753 29.5285 7.8161 28.7764 7.8161C34.7933 15.3373 40.3089 23.1092 44.0695 32.1346C50.0864 46.4249 39.8075 61.4673 24.5144 61.4673C19.751 61.4673 15.7396 59.9631 12.2297 57.2053C15.9903 61.9687 21.5059 65.2279 28.275 65.2279C43.8188 65.4786 53.847 50.6869 47.8301 36.146Z" fill="#FFC639"/>
<path d="M41.5628 51.4391C41.5628 51.4391 38.805 55.9519 35.0444 57.7068" stroke="white" stroke-width="5" stroke-miterlimit="10" stroke-linecap="round" stroke-linejoin="round"/>
</svg>
