<svg width="109" height="125" viewBox="0 0 109 125" fill="none" xmlns="http://www.w3.org/2000/svg">
<g filter="url(#filter0_di)">
<rect x="3" width="103" height="103" rx="12" fill="white"/>
</g>
<g filter="url(#filter1_i)">
<path d="M58.0403 19.4551C59.0293 19.4557 59.9428 19.9838 60.4368 20.8406L64.7165 28.2633C65.2105 29.12 65.2099 30.1752 64.7149 31.0314L60.4265 38.4492C59.9315 39.3053 59.0174 39.8324 58.0284 39.8318L49.4602 39.8268C48.4713 39.8262 47.5578 39.2981 47.0638 38.4413L42.7841 31.0186C42.2901 30.1618 42.2907 29.1066 42.7857 28.2505L47.0741 20.8327C47.5691 19.9766 48.4832 19.4495 49.4722 19.4501L58.0403 19.4551Z" fill="#FDDD45"/>
</g>
<g filter="url(#filter2_i)">
<path d="M58.0403 40.7183C59.0293 40.7189 59.9428 41.247 60.4368 42.1038L64.7165 49.5265C65.2105 50.3833 65.2099 51.4385 64.7149 52.2947L60.4265 59.7124C59.9315 60.5686 59.0174 61.0956 58.0284 61.0951L49.4602 61.0901C48.4713 61.0895 47.5578 60.5613 47.0638 59.7046L42.7841 52.2818C42.2901 51.4251 42.2907 50.3699 42.7857 49.5137L47.0741 42.096C47.5691 41.2398 48.4832 40.7127 49.4722 40.7133L58.0403 40.7183Z" fill="#FDDD45"/>
</g>
<path fill-rule="evenodd" clip-rule="evenodd" d="M63.4343 40.3756L67.714 47.7983C68.8255 49.726 68.8241 52.1002 67.7104 54.0266L63.422 61.4443C62.3083 63.3707 60.2515 64.5566 58.0263 64.5553L49.4582 64.5503C47.233 64.549 45.1776 63.3607 44.0662 61.433L39.7864 54.0103C38.675 52.0826 38.6764 49.7084 39.7901 47.782L44.0785 40.3643C45.1922 38.4379 47.249 37.252 49.4741 37.2533L58.0423 37.2583C60.2674 37.2596 62.3229 38.4479 63.4343 40.3756ZM60.4367 42.1039C59.9427 41.2471 59.0292 40.719 58.0403 40.7184L49.4721 40.7134C48.4832 40.7128 47.569 41.2399 47.074 42.0961L42.7856 49.5138C42.2906 50.37 42.29 51.4252 42.784 52.2819L47.0637 59.7047C47.5577 60.5614 48.4712 61.0896 49.4602 61.0901L58.0283 61.0952C59.0173 61.0957 59.9314 60.5687 60.4264 59.7125L64.7148 52.2948C65.2098 51.4386 65.2104 50.3834 64.7165 49.5266L60.4367 42.1039Z" fill="white"/>
<g filter="url(#filter3_i)">
<path d="M58.0403 62.1714C59.0293 62.172 59.9428 62.7001 60.4368 63.5569L64.7165 70.9796C65.2105 71.8364 65.2099 72.8916 64.7149 73.7477L60.4265 81.1655C59.9315 82.0216 59.0174 82.5487 58.0284 82.5481L49.4602 82.5431C48.4713 82.5425 47.5578 82.0144 47.0638 81.1577L42.7841 73.7349C42.2901 72.8782 42.2907 71.823 42.7857 70.9668L47.0741 63.549C47.5691 62.6929 48.4832 62.1658 49.4722 62.1664L58.0403 62.1714Z" fill="#FDDD45"/>
</g>
<g filter="url(#filter4_i)">
<path d="M76.5357 30.338C77.5246 30.3385 78.4382 30.8667 78.9321 31.7234L83.2119 39.1462C83.7058 40.0029 83.7052 41.0581 83.2103 41.9143L78.9218 49.332C78.4269 50.1882 77.5127 50.7153 76.5238 50.7147L67.9556 50.7097C66.9667 50.7091 66.0531 50.181 65.5592 49.3242L61.2794 41.9015C60.7854 41.0447 60.7861 39.9895 61.281 39.1334L65.5695 31.7156C66.0644 30.8594 66.9786 30.3324 67.9675 30.333L76.5357 30.338Z" fill="#FDDD45"/>
</g>
<g filter="url(#filter5_i)">
<path d="M76.5357 51.4449C77.5246 51.4455 78.4382 51.9736 78.9321 52.8304L83.2119 60.2531C83.7058 61.1099 83.7052 62.1651 83.2103 63.0212L78.9218 70.439C78.4269 71.2951 77.5127 71.8222 76.5238 71.8216L67.9556 71.8166C66.9667 71.816 66.0531 71.2879 65.5592 70.4312L61.2794 63.0084C60.7854 62.1517 60.7861 61.0965 61.281 60.2403L65.5695 52.8225C66.0644 51.9664 66.9786 51.4393 67.9675 51.4399L76.5357 51.4449Z" fill="#FDDD45"/>
</g>
<g filter="url(#filter6_i)">
<path d="M39.5125 30.338C40.5014 30.3385 41.415 30.8667 41.9089 31.7234L46.1887 39.1462C46.6827 40.0029 46.682 41.0581 46.1871 41.9143L41.8986 49.332C41.4037 50.1882 40.4895 50.7153 39.5006 50.7147L30.9324 50.7097C29.9435 50.7091 29.0299 50.181 28.536 49.3242L24.2562 41.9015C23.7622 41.0447 23.7629 39.9895 24.2578 39.1334L28.5463 31.7156C29.0412 30.8594 29.9554 30.3324 30.9443 30.333L39.5125 30.338Z" fill="#FDDD45"/>
</g>
<g filter="url(#filter7_i)">
<path d="M39.5125 51.4449C40.5014 51.4455 41.415 51.9736 41.9089 52.8304L46.1887 60.2531C46.6827 61.1099 46.682 62.1651 46.1871 63.0212L41.8986 70.439C41.4037 71.2951 40.4895 71.8222 39.5006 71.8216L30.9324 71.8166C29.9435 71.816 29.0299 71.2879 28.536 70.4312L24.2562 63.0084C23.7622 62.1517 23.7629 61.0965 24.2578 60.2403L28.5463 52.8225C29.0412 51.9664 29.9554 51.4393 30.9443 51.4399L39.5125 51.4449Z" fill="#FDDD45"/>
</g>
<path d="M68.147 26.2852L63.8672 18.8625C62.6665 16.78 60.4461 15.4963 58.0423 15.4949L49.4742 15.4899C47.0704 15.4885 44.8485 16.7696 43.6454 18.8506L39.3569 26.2684C38.1538 28.3494 38.1523 30.9142 39.353 32.9966L43.6327 40.4194C44.8334 42.5018 47.0539 43.7855 49.4576 43.7869L58.0258 43.7919C60.4296 43.7933 62.6515 42.5122 63.8546 40.4312L68.143 33.0135C69.3461 30.9324 69.3476 28.3676 68.147 26.2852ZM58.0397 19.9551C58.85 19.9555 59.5986 20.3883 60.0033 21.0903L64.2831 28.513C64.6878 29.215 64.6873 30.0796 64.2817 30.7811L59.9933 38.1989C59.5877 38.9004 58.8387 39.3323 58.0284 39.3318L49.4602 39.3268C48.6499 39.3263 47.9014 38.8936 47.4967 38.1916L43.2169 30.7688C42.8122 30.0668 42.8127 29.2022 43.2182 28.5007L47.5067 21.083C47.9122 20.3814 48.6612 19.9496 49.4716 19.9501L58.0397 19.9551Z" fill="white" stroke="white"/>
<path d="M68.147 69.0015L63.8672 61.5788C62.6665 59.4963 60.4461 58.2126 58.0423 58.2112L49.4742 58.2062C47.0704 58.2048 44.8485 59.4859 43.6454 61.5669L39.3569 68.9847C38.1538 71.0657 38.1523 73.6305 39.353 75.7129L43.6327 83.1357C44.8334 85.2181 47.0539 86.5018 49.4576 86.5032L58.0258 86.5082C60.4296 86.5097 62.6515 85.2285 63.8546 83.1475L68.143 75.7298C69.3461 73.6487 69.3476 71.0839 68.147 69.0015ZM58.0397 62.6714C58.85 62.6718 59.5986 63.1046 60.0033 63.8066L64.2831 71.2293C64.6878 71.9313 64.6873 72.7959 64.2817 73.4974L59.9933 80.9152C59.5877 81.6167 58.8387 82.0486 58.0284 82.0481L49.4602 82.0431C48.6499 82.0426 47.9014 81.6099 47.4967 80.9079L43.2169 73.4851C42.8122 72.7831 42.8127 71.9185 43.2182 71.217L47.5067 63.7993C47.9122 63.0978 48.6612 62.6659 49.4716 62.6664L58.0397 62.6714Z" fill="white" stroke="white"/>
<path d="M86.6434 37.1681L82.3637 29.7453C81.163 27.6629 78.9426 26.3792 76.5388 26.3778L67.9706 26.3728C65.5669 26.3714 63.3449 27.6525 62.1418 29.7335L57.8534 37.1512C56.6503 39.2323 56.6488 41.7971 57.8495 43.8795L62.1292 51.3023C63.3299 53.3847 65.5503 54.6684 67.9541 54.6698L76.5223 54.6748C78.926 54.6762 81.148 53.3951 82.3511 51.3141L86.6395 43.8963C87.8426 41.8153 87.8441 39.2505 86.6434 37.1681ZM76.5362 30.8379C77.3465 30.8384 78.095 31.2712 78.4998 31.9731L82.7795 39.3959C83.1843 40.0979 83.1838 40.9625 82.7782 41.664L78.4898 49.0817C78.0842 49.7833 77.3352 50.2151 76.5249 50.2147L67.9567 50.2097C67.1464 50.2092 66.3979 49.7764 65.9931 49.0744L61.7134 41.6517C61.3086 40.9497 61.3091 40.0851 61.7147 39.3836L66.0031 31.9658C66.4087 31.2643 67.1577 30.8325 67.968 30.8329L76.5362 30.8379Z" fill="white" stroke="white"/>
<path d="M86.6434 58.2751L82.3637 50.8524C81.163 48.77 78.9426 47.4863 76.5388 47.4848L67.9706 47.4798C65.5669 47.4784 63.3449 48.7595 62.1418 50.8406L57.8534 58.2583C56.6503 60.3393 56.6488 62.9041 57.8495 64.9866L62.1292 72.4093C63.3299 74.4918 65.5503 75.7755 67.9541 75.7769L76.5223 75.7819C78.926 75.7833 81.148 74.5022 82.3511 72.4211L86.6395 65.0034C87.8426 62.9224 87.8441 60.3576 86.6434 58.2751ZM76.5362 51.945C77.3465 51.9455 78.095 52.3782 78.4998 53.0802L82.7795 60.5029C83.1843 61.2049 83.1838 62.0695 82.7782 62.7711L78.4898 70.1888C78.0842 70.8903 77.3352 71.3222 76.5249 71.3217L67.9567 71.3167C67.1464 71.3162 66.3979 70.8835 65.9931 70.1815L61.7134 62.7588C61.3086 62.0568 61.3091 61.1922 61.7147 60.4906L66.0031 53.0729C66.4087 52.3714 67.1577 51.9395 67.968 51.94L76.5362 51.945Z" fill="white" stroke="white"/>
<path d="M49.6186 37.1681L45.3389 29.7453C44.1382 27.6629 41.9178 26.3792 39.514 26.3778L30.9459 26.3728C28.5421 26.3714 26.3201 27.6525 25.117 29.7335L20.8286 37.1512C19.6255 39.2323 19.624 41.7971 20.8247 43.8795L25.1044 51.3023C26.3051 53.3847 28.5255 54.6684 30.9293 54.6698L39.4975 54.6748C41.9013 54.6762 44.1232 53.3951 45.3263 51.3141L49.6147 43.8963C50.8178 41.8153 50.8193 39.2505 49.6186 37.1681ZM39.5114 30.8379C40.3217 30.8384 41.0702 31.2712 41.475 31.9731L45.7547 39.3959C46.1595 40.0979 46.159 40.9625 45.7534 41.664L41.465 49.0817C41.0594 49.7833 40.3104 50.2151 39.5001 50.2147L30.9319 50.2097C30.1216 50.2092 29.3731 49.7764 28.9683 49.0744L24.6886 41.6517C24.2838 40.9497 24.2843 40.0851 24.6899 39.3836L28.9783 31.9658C29.3839 31.2643 30.1329 30.8325 30.9432 30.8329L39.5114 30.8379Z" fill="white" stroke="white"/>
<path d="M49.6186 58.2751L45.3389 50.8524C44.1382 48.77 41.9178 47.4863 39.514 47.4848L30.9459 47.4798C28.5421 47.4784 26.3201 48.7595 25.117 50.8406L20.8286 58.2583C19.6255 60.3393 19.624 62.9041 20.8247 64.9866L25.1044 72.4093C26.3051 74.4918 28.5255 75.7755 30.9293 75.7769L39.4975 75.7819C41.9013 75.7833 44.1232 74.5022 45.3263 72.4211L49.6147 65.0034C50.8178 62.9224 50.8193 60.3576 49.6186 58.2751ZM39.5114 51.945C40.3217 51.9455 41.0702 52.3782 41.475 53.0802L45.7547 60.5029C46.1595 61.2049 46.159 62.0695 45.7534 62.7711L41.465 70.1888C41.0594 70.8903 40.3104 71.3222 39.5001 71.3217L30.9319 71.3167C30.1216 71.3162 29.3731 70.8835 28.9683 70.1815L24.6886 62.7588C24.2838 62.0568 24.2843 61.1922 24.6899 60.4906L28.9783 53.0729C29.3839 52.3714 30.1329 51.9395 30.9432 51.94L39.5114 51.945Z" fill="white" stroke="white"/>
<path d="M58.1559 19.4551C59.1449 19.4557 60.0584 19.9838 60.5524 20.8406L64.8321 28.2633C65.3261 29.12 65.3255 30.1752 64.8305 31.0314L60.5421 38.4492C60.0471 39.3053 59.133 39.8324 58.144 39.8318L49.5758 39.8268C48.5869 39.8262 47.6734 39.2981 47.1794 38.4413L42.8997 31.0186C42.4057 30.1618 42.4063 29.1066 42.9013 28.2505L47.1897 20.8327C47.6847 19.9766 48.5988 19.4495 49.5878 19.4501L58.1559 19.4551Z" fill="#FDDD45"/>
<path d="M58.1559 40.7185C59.1449 40.719 60.0584 41.2472 60.5524 42.1039L64.8321 49.5267C65.3261 50.3834 65.3255 51.4386 64.8305 52.2948L60.5421 59.7125C60.0471 60.5687 59.133 61.0958 58.144 61.0952L49.5758 61.0902C48.5869 61.0896 47.6734 60.5615 47.1794 59.7047L42.8997 52.282C42.4057 51.4252 42.4063 50.37 42.9013 49.5138L47.1897 42.0961C47.6847 41.2399 48.5988 40.7129 49.5878 40.7134L58.1559 40.7185Z" fill="#FDDD45"/>
<path d="M58.1559 62.1713C59.1449 62.1719 60.0584 62.7 60.5524 63.5567L64.8321 70.9795C65.3261 71.8362 65.3255 72.8914 64.8305 73.7476L60.5421 81.1653C60.0471 82.0215 59.133 82.5486 58.144 82.548L49.5758 82.543C48.5869 82.5424 47.6734 82.0143 47.1794 81.1575L42.8997 73.7348C42.4057 72.878 42.4063 71.8228 42.9013 70.9667L47.1897 63.5489C47.6847 62.6928 48.5988 62.1657 49.5878 62.1663L58.1559 62.1713Z" fill="#FDDD45"/>
<path d="M76.6513 30.3381C77.6402 30.3387 78.5538 30.8668 79.0477 31.7235L83.3275 39.1463C83.8214 40.003 83.8208 41.0582 83.3259 41.9144L79.0374 49.3322C78.5425 50.1883 77.6283 50.7154 76.6394 50.7148L68.0712 50.7098C67.0823 50.7092 66.1687 50.1811 65.6748 49.3243L61.395 41.9016C60.901 41.0448 60.9017 39.9896 61.3966 39.1335L65.6851 31.7157C66.18 30.8596 67.0942 30.3325 68.0831 30.3331L76.6513 30.3381Z" fill="#FDDD45"/>
<path d="M76.6513 51.4449C77.6402 51.4455 78.5538 51.9736 79.0477 52.8304L83.3275 60.2531C83.8214 61.1099 83.8208 62.1651 83.3259 63.0212L79.0374 70.439C78.5425 71.2951 77.6283 71.8222 76.6394 71.8216L68.0712 71.8166C67.0823 71.816 66.1687 71.2879 65.6748 70.4312L61.395 63.0084C60.901 62.1517 60.9017 61.0965 61.3966 60.2403L65.6851 52.8225C66.18 51.9664 67.0942 51.4393 68.0831 51.4399L76.6513 51.4449Z" fill="#FDDD45"/>
<path d="M39.6282 30.3381C40.6172 30.3387 41.5307 30.8668 42.0247 31.7235L46.3044 39.1463C46.7984 40.003 46.7978 41.0582 46.3028 41.9144L42.0144 49.3322C41.5194 50.1883 40.6052 50.7154 39.6163 50.7148L31.0481 50.7098C30.0592 50.7092 29.1457 50.1811 28.6517 49.3243L24.3719 41.9016C23.878 41.0448 23.8786 39.9896 24.3736 39.1335L28.662 31.7157C29.157 30.8596 30.0711 30.3325 31.0601 30.3331L39.6282 30.3381Z" fill="#FDDD45"/>
<path d="M39.6282 51.4449C40.6172 51.4455 41.5307 51.9736 42.0247 52.8304L46.3044 60.2531C46.7984 61.1099 46.7978 62.1651 46.3028 63.0212L42.0144 70.439C41.5194 71.2951 40.6052 71.8222 39.6163 71.8216L31.0481 71.8166C30.0592 71.816 29.1457 71.2879 28.6517 70.4312L24.3719 63.0084C23.878 62.1517 23.8786 61.0965 24.3736 60.2403L28.662 52.8225C29.157 51.9664 30.0711 51.4393 31.0601 51.4399L39.6282 51.4449Z" fill="#FDDD45"/>
<defs>
<filter id="filter0_di" x="0" y="0" width="109" height="125" filterUnits="userSpaceOnUse" color-interpolation-filters="sRGB">
<feFlood flood-opacity="0" result="BackgroundImageFix"/>
<feColorMatrix in="SourceAlpha" type="matrix" values="0 0 0 0 0 0 0 0 0 0 0 0 0 0 0 0 0 0 127 0"/>
<feMorphology radius="15" operator="erode" in="SourceAlpha" result="effect1_dropShadow"/>
<feOffset dy="19"/>
<feGaussianBlur stdDeviation="9"/>
<feColorMatrix type="matrix" values="0 0 0 0 0.678431 0 0 0 0 0.839216 0 0 0 0 0.952941 0 0 0 0.25 0"/>
<feBlend mode="normal" in2="BackgroundImageFix" result="effect1_dropShadow"/>
<feBlend mode="normal" in="SourceGraphic" in2="effect1_dropShadow" result="shape"/>
<feColorMatrix in="SourceAlpha" type="matrix" values="0 0 0 0 0 0 0 0 0 0 0 0 0 0 0 0 0 0 127 0" result="hardAlpha"/>
<feMorphology radius="1" operator="erode" in="SourceAlpha" result="effect2_innerShadow"/>
<feOffset/>
<feGaussianBlur stdDeviation="7"/>
<feComposite in2="hardAlpha" operator="arithmetic" k2="-1" k3="1"/>
<feColorMatrix type="matrix" values="0 0 0 0 0.731062 0 0 0 0 0.889437 0 0 0 0 1 0 0 0 1 0"/>
<feBlend mode="normal" in2="shape" result="effect2_innerShadow"/>
</filter>
<filter id="filter1_i" x="42.4141" y="15.4501" width="22.6726" height="24.3817" filterUnits="userSpaceOnUse" color-interpolation-filters="sRGB">
<feFlood flood-opacity="0" result="BackgroundImageFix"/>
<feBlend mode="normal" in="SourceGraphic" in2="BackgroundImageFix" result="shape"/>
<feColorMatrix in="SourceAlpha" type="matrix" values="0 0 0 0 0 0 0 0 0 0 0 0 0 0 0 0 0 0 127 0" result="hardAlpha"/>
<feOffset dy="-5"/>
<feGaussianBlur stdDeviation="2"/>
<feComposite in2="hardAlpha" operator="arithmetic" k2="-1" k3="1"/>
<feColorMatrix type="matrix" values="0 0 0 0 0.963607 0 0 0 0 0.689892 0 0 0 0 0.158562 0 0 0 1 0"/>
<feBlend mode="normal" in2="shape" result="effect1_innerShadow"/>
</filter>
<filter id="filter2_i" x="42.4141" y="36.7133" width="22.6726" height="24.3817" filterUnits="userSpaceOnUse" color-interpolation-filters="sRGB">
<feFlood flood-opacity="0" result="BackgroundImageFix"/>
<feBlend mode="normal" in="SourceGraphic" in2="BackgroundImageFix" result="shape"/>
<feColorMatrix in="SourceAlpha" type="matrix" values="0 0 0 0 0 0 0 0 0 0 0 0 0 0 0 0 0 0 127 0" result="hardAlpha"/>
<feOffset dy="-5"/>
<feGaussianBlur stdDeviation="2"/>
<feComposite in2="hardAlpha" operator="arithmetic" k2="-1" k3="1"/>
<feColorMatrix type="matrix" values="0 0 0 0 0.963607 0 0 0 0 0.689892 0 0 0 0 0.158562 0 0 0 1 0"/>
<feBlend mode="normal" in2="shape" result="effect1_innerShadow"/>
</filter>
<filter id="filter3_i" x="42.4141" y="58.1664" width="22.6726" height="24.3817" filterUnits="userSpaceOnUse" color-interpolation-filters="sRGB">
<feFlood flood-opacity="0" result="BackgroundImageFix"/>
<feBlend mode="normal" in="SourceGraphic" in2="BackgroundImageFix" result="shape"/>
<feColorMatrix in="SourceAlpha" type="matrix" values="0 0 0 0 0 0 0 0 0 0 0 0 0 0 0 0 0 0 127 0" result="hardAlpha"/>
<feOffset dy="-5"/>
<feGaussianBlur stdDeviation="2"/>
<feComposite in2="hardAlpha" operator="arithmetic" k2="-1" k3="1"/>
<feColorMatrix type="matrix" values="0 0 0 0 0.963607 0 0 0 0 0.689892 0 0 0 0 0.158562 0 0 0 1 0"/>
<feBlend mode="normal" in2="shape" result="effect1_innerShadow"/>
</filter>
<filter id="filter4_i" x="60.9094" y="26.3329" width="22.6726" height="24.3817" filterUnits="userSpaceOnUse" color-interpolation-filters="sRGB">
<feFlood flood-opacity="0" result="BackgroundImageFix"/>
<feBlend mode="normal" in="SourceGraphic" in2="BackgroundImageFix" result="shape"/>
<feColorMatrix in="SourceAlpha" type="matrix" values="0 0 0 0 0 0 0 0 0 0 0 0 0 0 0 0 0 0 127 0" result="hardAlpha"/>
<feOffset dy="-5"/>
<feGaussianBlur stdDeviation="2"/>
<feComposite in2="hardAlpha" operator="arithmetic" k2="-1" k3="1"/>
<feColorMatrix type="matrix" values="0 0 0 0 0.963607 0 0 0 0 0.689892 0 0 0 0 0.158562 0 0 0 1 0"/>
<feBlend mode="normal" in2="shape" result="effect1_innerShadow"/>
</filter>
<filter id="filter5_i" x="60.9094" y="47.4399" width="22.6726" height="24.3817" filterUnits="userSpaceOnUse" color-interpolation-filters="sRGB">
<feFlood flood-opacity="0" result="BackgroundImageFix"/>
<feBlend mode="normal" in="SourceGraphic" in2="BackgroundImageFix" result="shape"/>
<feColorMatrix in="SourceAlpha" type="matrix" values="0 0 0 0 0 0 0 0 0 0 0 0 0 0 0 0 0 0 127 0" result="hardAlpha"/>
<feOffset dy="-5"/>
<feGaussianBlur stdDeviation="2"/>
<feComposite in2="hardAlpha" operator="arithmetic" k2="-1" k3="1"/>
<feColorMatrix type="matrix" values="0 0 0 0 0.963607 0 0 0 0 0.689892 0 0 0 0 0.158562 0 0 0 1 0"/>
<feBlend mode="normal" in2="shape" result="effect1_innerShadow"/>
</filter>
<filter id="filter6_i" x="23.8862" y="26.3329" width="22.6726" height="24.3817" filterUnits="userSpaceOnUse" color-interpolation-filters="sRGB">
<feFlood flood-opacity="0" result="BackgroundImageFix"/>
<feBlend mode="normal" in="SourceGraphic" in2="BackgroundImageFix" result="shape"/>
<feColorMatrix in="SourceAlpha" type="matrix" values="0 0 0 0 0 0 0 0 0 0 0 0 0 0 0 0 0 0 127 0" result="hardAlpha"/>
<feOffset dy="-5"/>
<feGaussianBlur stdDeviation="2"/>
<feComposite in2="hardAlpha" operator="arithmetic" k2="-1" k3="1"/>
<feColorMatrix type="matrix" values="0 0 0 0 0.963607 0 0 0 0 0.689892 0 0 0 0 0.158562 0 0 0 1 0"/>
<feBlend mode="normal" in2="shape" result="effect1_innerShadow"/>
</filter>
<filter id="filter7_i" x="23.8862" y="47.4399" width="22.6726" height="24.3817" filterUnits="userSpaceOnUse" color-interpolation-filters="sRGB">
<feFlood flood-opacity="0" result="BackgroundImageFix"/>
<feBlend mode="normal" in="SourceGraphic" in2="BackgroundImageFix" result="shape"/>
<feColorMatrix in="SourceAlpha" type="matrix" values="0 0 0 0 0 0 0 0 0 0 0 0 0 0 0 0 0 0 127 0" result="hardAlpha"/>
<feOffset dy="-5"/>
<feGaussianBlur stdDeviation="2"/>
<feComposite in2="hardAlpha" operator="arithmetic" k2="-1" k3="1"/>
<feColorMatrix type="matrix" values="0 0 0 0 0.963607 0 0 0 0 0.689892 0 0 0 0 0.158562 0 0 0 1 0"/>
<feBlend mode="normal" in2="shape" result="effect1_innerShadow"/>
</filter>
</defs>
</svg>
