<svg width="83" height="99" viewBox="0 0 83 99" fill="none" xmlns="http://www.w3.org/2000/svg">
<g filter="url(#filter0_di)">
<rect x="3" width="77" height="77" rx="12" fill="white"/>
</g>
<path d="M28.8458 59.5731C51.5835 60.977 59.3341 34.4248 57.66 20.9084C57.4366 19.1051 55.7983 17.8922 53.9999 18.1521C37.5541 20.529 17.2468 38.6979 25.9168 57.5799C26.4458 58.7319 27.5806 59.495 28.8458 59.5731Z" fill="#72D356"/>
<path d="M47.221 29.7246L31.2096 51.8907C30.0575 53.4857 27.8158 52.6497 28.1896 50.718C29.0258 46.396 30.6376 41.1271 33.5011 36.8871C36.5021 32.4433 41.2444 29.2175 45.2385 27.1953C46.9406 26.3336 48.3381 28.1781 47.221 29.7246Z" fill="#90EC75"/>
<defs>
<filter id="filter0_di" x="0" y="0" width="83" height="99" filterUnits="userSpaceOnUse" color-interpolation-filters="sRGB">
<feFlood flood-opacity="0" result="BackgroundImageFix"/>
<feColorMatrix in="SourceAlpha" type="matrix" values="0 0 0 0 0 0 0 0 0 0 0 0 0 0 0 0 0 0 127 0"/>
<feMorphology radius="15" operator="erode" in="SourceAlpha" result="effect1_dropShadow"/>
<feOffset dy="19"/>
<feGaussianBlur stdDeviation="9"/>
<feColorMatrix type="matrix" values="0 0 0 0 0.678431 0 0 0 0 0.839216 0 0 0 0 0.952941 0 0 0 0.25 0"/>
<feBlend mode="normal" in2="BackgroundImageFix" result="effect1_dropShadow"/>
<feBlend mode="normal" in="SourceGraphic" in2="effect1_dropShadow" result="shape"/>
<feColorMatrix in="SourceAlpha" type="matrix" values="0 0 0 0 0 0 0 0 0 0 0 0 0 0 0 0 0 0 127 0" result="hardAlpha"/>
<feMorphology radius="1" operator="erode" in="SourceAlpha" result="effect2_innerShadow"/>
<feOffset/>
<feGaussianBlur stdDeviation="7"/>
<feComposite in2="hardAlpha" operator="arithmetic" k2="-1" k3="1"/>
<feColorMatrix type="matrix" values="0 0 0 0 0.731062 0 0 0 0 0.889437 0 0 0 0 1 0 0 0 1 0"/>
<feBlend mode="normal" in2="shape" result="effect2_innerShadow"/>
</filter>
</defs>
</svg>
