<svg width="11" height="22" viewBox="0 0 11 22" fill="none" xmlns="http://www.w3.org/2000/svg">
<path d="M3.10206 16.5263C3.10206 14.9825 3.10206 13.2982 3.10206 11.7544C3.10206 11.4737 3.10206 11.4737 2.82136 11.4737C2.1196 11.4737 1.41785 11.4737 0.716096 11.4737C0.435394 11.4737 0.435394 11.4737 0.435394 11.193C0.435394 10.2105 0.435394 9.08772 0.435394 8.10526C0.435394 7.82456 0.435394 7.82456 0.716096 7.82456C1.41785 7.82456 2.1196 7.82456 2.82136 7.82456C3.24241 7.82456 3.10206 7.82456 3.10206 7.54386C3.10206 6.5614 3.10206 5.57895 3.10206 4.59649C3.10206 3.33333 3.52311 2.21053 4.50557 1.36842C5.20732 0.666667 6.04943 0.245614 7.03189 0.105263C8.01434 -0.0350877 9.13715 -0.0350877 10.1196 0.105263C10.26 0.105263 10.5407 0.105263 10.681 0.105263C10.9617 0.105263 10.9617 0.105263 10.9617 0.385965C10.9617 1.08772 10.9617 1.64912 10.9617 2.35088C10.9617 2.63158 10.9617 3.05263 10.9617 3.33333C10.9617 3.61404 10.9617 3.61403 10.681 3.61403C9.97925 3.61403 9.2775 3.61403 8.43539 3.61403C8.29504 3.61403 8.01434 3.61404 7.87399 3.75439C7.45294 3.75439 7.17224 4.03509 7.03189 4.59649C7.03189 4.87719 7.03189 5.01754 7.03189 5.29825C7.03189 6.14035 7.03189 6.8421 7.03189 7.68421C7.03189 7.82456 7.03189 7.96491 7.31259 7.96491C8.43539 7.96491 9.5582 7.96491 10.681 7.96491C10.9617 7.96491 10.9617 7.96491 10.9617 8.24561C10.9617 9.36842 10.8214 10.3509 10.8214 11.4737C10.8214 11.614 10.681 11.7544 10.5407 11.7544C9.41785 11.7544 8.29504 11.7544 7.31259 11.7544C7.03189 11.7544 7.03189 11.7544 7.03189 12.0351C7.03189 15.2632 7.03189 18.3509 7.03189 21.5789C7.03189 22 7.03189 22 6.61083 22C5.48803 22 4.50557 22 3.38276 22C3.10206 22 3.10206 22 3.10206 21.7193C3.10206 19.7544 3.10206 18.2105 3.10206 16.5263Z" fill="#7BBBE7"/>
</svg>
