<svg width="23" height="22" viewBox="0 0 23 22" fill="none" xmlns="http://www.w3.org/2000/svg">
<path d="M17.712 2.29012C16.8549 3.40238 16.0175 4.48848 15.1734 5.58765C13.0536 4.09591 10.7898 3.75569 8.40173 4.73056C6.63519 5.45026 5.37899 6.74571 4.68546 8.52533C3.21335 12.3136 5.30702 16.3962 9.07563 17.5085C13.1648 18.7123 16.6259 15.9971 17.4438 13.0922C15.3043 13.0922 13.1779 13.0922 11.0319 13.0922C11.0319 11.6789 11.0319 10.3115 11.0319 8.92444C14.6827 8.92444 18.3205 8.92444 21.9517 8.92444C21.9648 8.94407 21.991 8.9637 21.991 8.98332C22.1284 11.6593 21.8797 14.2371 20.4665 16.6187C18.1765 20.4723 13.5836 22.6641 9.18685 21.8201C4.64621 20.95 1.68236 18.2282 0.399984 13.7988C-1.22915 8.17857 2.28429 2.01533 7.92411 0.451619C11.3983 -0.510161 14.6108 0.0655987 17.5485 2.16581C17.5942 2.19198 17.6335 2.23124 17.712 2.29012Z" fill="#7BBBE7"/>
</svg>
