<svg width="102" height="94" viewBox="0 0 102 94" fill="none" xmlns="http://www.w3.org/2000/svg">
<path d="M52.0354 73.1628C31.7338 73.1628 15.4542 56.7874 15.4542 36.3901C15.4542 16.1842 31.9253 -0.0953419 52.2269 0.000420321C72.4327 0.0961825 88.7123 16.663 88.6166 36.7731C88.5208 56.8832 72.1455 73.2585 52.0354 73.1628ZM73.9649 26.335C73.8692 13.9817 64.0057 4.11819 51.6523 4.21396C39.4905 4.21396 29.5313 14.269 29.627 26.6223C29.7228 38.5926 39.5863 48.7434 52.2269 48.5519C64.2929 48.2646 73.9649 38.3053 73.9649 26.335ZM52.0354 52.4781C51.8439 52.3823 51.7481 52.2866 51.6523 52.1908C50.0244 50.5629 48.2049 49.5095 45.9066 49.318C41.7888 49.1264 37.5753 49.2222 33.4575 49.318C33.1702 49.318 32.9787 49.4137 32.8829 49.701C31.0635 53.1485 29.244 56.6916 27.4245 60.1391C27.3287 60.2349 27.233 60.4264 27.233 60.6179C27.5203 60.6179 27.9033 60.6179 28.1906 60.6179C30.1058 60.6179 31.9253 60.2349 33.7448 59.8518C36.1389 59.2772 38.4371 58.5111 40.7354 57.8408C44.949 56.6917 48.5879 57.6493 51.7481 60.5221C51.9396 60.7137 51.9396 60.6179 52.1311 60.5221C54.3337 58.4154 57.015 57.4578 59.9837 57.362C61.5159 57.2662 62.9523 57.745 64.3887 58.2238C67.4531 59.0857 70.4217 60.1391 73.5819 60.5221C74.6353 60.6179 75.6887 60.7137 76.742 60.6179C76.742 60.5221 76.742 60.5221 76.6463 60.4264C74.731 56.7874 72.9116 53.2442 70.9963 49.6052C70.9005 49.4137 70.709 49.318 70.5175 49.318C66.8785 49.2222 63.1438 49.1264 59.5048 49.2222C58.3557 49.2222 57.2065 49.318 56.0574 49.701C54.5252 50.2756 53.1845 51.2332 52.0354 52.4781ZM67.8362 60.6179C66.8785 60.2349 65.9209 59.9476 64.9633 59.6603C63.1438 59.1815 61.2285 58.7984 59.3133 58.8942C58.0684 58.9899 56.9193 59.373 55.9616 60.1391C55.2913 60.7137 54.621 61.384 53.9506 61.9586C52.7057 63.012 51.3651 63.012 50.1201 61.9586C49.5456 61.4798 49.0668 61.0009 48.4922 60.4264C47.343 59.373 46.0024 58.8942 44.4702 58.7984C42.8422 58.7027 41.31 58.9899 39.7778 59.373C38.5329 59.6603 37.3838 60.0433 36.1389 60.5221C36.3304 60.5221 36.4261 60.5221 36.5219 60.5221C39.299 60.4264 42.0761 60.4264 44.8532 60.3306C46.1939 60.3306 47.343 60.7137 48.3007 61.6713C48.8752 62.1501 49.354 62.6289 49.9286 63.1077C51.4608 64.1611 52.4184 64.1611 53.9506 63.1077C54.621 62.6289 55.1955 62.0543 55.7701 61.4798C56.632 60.8094 57.4938 60.4264 58.643 60.4264C59.1218 60.4264 59.6964 60.4264 60.1752 60.4264C62.8565 60.4264 65.3463 60.5221 67.8362 60.6179Z" fill="#4285F4"/>
<path d="M73.9649 26.335C74.0607 38.3053 64.3887 48.2646 52.1311 48.5519C39.5863 48.7434 29.7228 38.5926 29.5313 26.6223C29.4355 14.3647 39.3948 4.30971 51.5566 4.21395C64.0057 4.11819 73.8692 13.9817 73.9649 26.335ZM70.0387 26.5265C70.0387 26.2393 70.0387 25.8562 70.0387 25.5689C70.0387 25.1859 70.0387 24.8986 69.9429 24.5155C69.5599 20.8766 68.1234 17.7164 65.9209 14.9393C65.8251 14.7478 65.7294 14.7478 65.5378 14.8436C64.4845 15.0351 63.3353 15.3224 62.2819 15.7054C58.643 16.8546 55.2913 18.7698 52.3227 21.1639C52.0354 21.4511 51.8439 21.4511 51.5566 21.1639C50.7905 20.3978 49.9286 19.7274 48.971 19.0571C45.9066 16.9503 42.4592 15.6097 38.7244 14.9393C37.9583 14.8436 37.6711 14.9393 37.1922 15.5139C34.0321 19.8232 32.8829 24.6113 33.8406 29.8782C34.6067 33.996 36.5219 37.4434 39.5863 40.1248C43.2253 43.3807 47.4388 44.9129 52.2269 44.8171C55.1955 44.8171 57.9726 44.051 60.4625 42.6146C66.687 39.0714 69.7514 33.7087 70.0387 26.5265Z" fill="#FFC639"/>
<path d="M52.0354 52.4781C53.1845 51.2332 54.5252 50.1798 56.1532 49.701C57.3023 49.318 58.4515 49.318 59.6006 49.2222C63.2396 49.1264 66.9743 49.2222 70.6133 49.318C70.8048 49.318 70.9963 49.318 71.0921 49.6052C72.9115 53.2442 74.8268 56.7874 76.742 60.4264C76.742 60.4264 76.742 60.5221 76.8378 60.6179C75.7844 60.7137 74.731 60.6179 73.6776 60.5221C70.5175 60.1391 67.5489 59.0857 64.4845 58.2238C63.048 57.8408 61.6116 57.362 60.0794 57.362C57.1108 57.4578 54.4294 58.4154 52.2269 60.5221C52.1311 60.6179 52.0354 60.7137 51.8439 60.5221C48.6837 57.745 45.0448 56.6917 40.8312 57.8408C38.4372 58.5111 36.1389 59.2772 33.8406 59.8518C32.0211 60.3306 30.2016 60.6179 28.2864 60.6179C27.9991 60.6179 27.616 60.6179 27.3287 60.6179C27.3287 60.4264 27.4245 60.3306 27.5203 60.1391C29.3397 56.6916 31.1592 53.1485 32.9787 49.701C33.0745 49.4137 33.266 49.318 33.5533 49.318C37.6711 49.2222 41.8846 49.0307 46.0024 49.318C48.3007 49.4137 50.2159 50.5629 51.7481 52.1908C51.8439 52.2866 51.9396 52.3823 52.0354 52.4781Z" fill="#FEFEFE"/>
<path d="M67.8362 60.6179C65.3463 60.5222 62.8565 60.5222 60.3667 60.4264C59.8879 60.4264 59.3133 60.4264 58.8345 60.4264C57.7811 60.4264 56.8235 60.8095 55.9616 61.4798C55.3871 62.0544 54.8125 62.629 54.1422 63.1078C52.61 64.2569 51.6523 64.2569 50.1202 63.1078C49.5456 62.7247 48.971 62.1501 48.4922 61.6713C47.5346 60.8095 46.3854 60.3307 45.0448 60.3307C42.2676 60.4264 39.4905 60.4264 36.7134 60.5222C36.6177 60.5222 36.4261 60.5222 36.3304 60.5222C37.4795 60.0434 38.7244 59.7561 39.9694 59.373C41.5015 58.99 43.0338 58.7027 44.6617 58.7985C46.1939 58.8942 47.5346 59.373 48.6837 60.4264C49.2583 60.9052 49.7371 61.4798 50.3117 61.9586C51.5566 63.012 52.8973 63.012 54.1422 61.9586C54.8125 61.384 55.4828 60.7137 56.1532 60.1391C57.1108 59.373 58.2599 58.99 59.5049 58.8942C61.4201 58.7027 63.3353 59.1815 65.1548 59.6603C65.9209 59.8518 66.8785 60.1391 67.8362 60.6179Z" fill="#FEFEFE"/>
<path d="M70.0387 26.5265C69.8472 33.7087 66.687 39.1671 60.4625 42.7103C57.8769 44.1468 55.0998 44.8171 52.2269 44.9129C47.4388 45.0086 43.2253 43.4764 39.5863 40.2205C36.5219 37.4434 34.5109 33.996 33.8406 29.974C32.8829 24.707 34.0321 19.9189 37.1922 15.6096C37.5753 15.0351 37.9583 14.8435 38.7244 15.0351C42.3634 15.7054 45.8108 17.0461 48.971 19.1528C49.9286 19.8232 50.7905 20.4935 51.5566 21.2596C51.8439 21.5469 52.0354 21.5469 52.3227 21.2596C55.2913 18.8656 58.643 16.9503 62.2819 15.8012C63.3353 15.4181 64.3887 15.2266 65.5378 14.9393C65.7294 14.9393 65.8251 14.9393 65.9209 15.0351C68.1234 17.8122 69.5599 21.0681 69.9429 24.6113C69.9429 24.9943 70.0387 25.2816 70.0387 25.6647C70.0387 25.8562 70.0387 26.1435 70.0387 26.5265ZM53.4718 39.646C53.4718 40.1248 53.4718 40.6036 53.4718 40.9866C53.4718 41.2739 53.5676 41.3697 53.8549 41.2739C55.9616 40.9866 57.8769 40.2205 59.6964 39.0714C63.8141 36.39 66.1124 32.5595 66.5912 27.5799C66.8785 24.6113 66.2082 21.7384 64.676 19.1528C64.1972 18.291 64.3887 18.3867 63.5269 18.674C59.3133 20.0147 55.6744 22.313 52.5142 25.2816C52.2269 25.5689 51.9396 26.0477 51.6523 26.0477C51.365 25.952 51.0778 25.5689 50.7905 25.2816C47.8218 21.8342 43.9914 19.7274 39.5863 18.5783C39.299 18.4825 39.1075 18.5783 38.916 18.8656C37.0965 21.8342 36.4261 25.0901 36.905 28.5375C37.6711 33.9002 40.6397 37.7307 45.4278 40.029C46.5769 40.6036 47.8218 40.9866 49.1625 41.1782C49.4498 41.2739 49.6413 41.1781 49.6413 40.7951C49.6413 39.9332 49.6413 39.0714 49.6413 38.1138C49.6413 37.8265 49.6413 37.7307 49.354 37.7307C48.7795 37.6349 48.3007 37.4434 47.7261 37.2519C41.9804 35.1451 38.8202 28.7291 40.8312 22.8876C40.927 22.5045 41.0227 22.4088 41.4058 22.6003C43.6083 23.4621 45.6193 24.707 47.343 26.4308C48.6837 27.7714 49.9286 29.2079 51.2693 30.6443C51.5566 30.9316 51.6523 31.0274 51.9396 30.6443C52.993 29.5909 54.0464 28.5375 55.0998 27.4841C57.2065 25.4731 59.6006 23.9409 62.2819 22.696C62.5692 22.6003 62.665 22.6003 62.7608 22.8876C63.048 23.9409 63.2396 24.8986 63.2396 26.0477C63.3353 30.0697 61.7074 33.3256 58.4515 35.8155C57.1108 36.7731 55.6743 37.4434 54.0464 37.7307C53.7591 37.8265 53.5676 37.9222 53.5676 38.3053C53.5676 38.7841 53.4718 39.1671 53.4718 39.646Z" fill="#42A542"/>
<path d="M53.4718 39.6459C53.4718 39.2629 53.4718 38.8798 53.4718 38.401C53.4718 38.018 53.5676 37.9222 53.9506 37.8265C55.5786 37.5392 57.015 36.8688 58.3557 35.9112C61.6116 33.5172 63.2395 30.2612 63.1438 26.1435C63.1438 25.0901 62.9523 24.0367 62.665 22.9833C62.5692 22.696 62.4734 22.696 62.1862 22.7918C59.5048 24.0367 57.1108 25.5689 55.004 27.5799C53.9506 28.6333 52.8972 29.5909 51.8439 30.7401C51.5566 31.0273 51.365 31.0273 51.1735 30.7401C49.9286 29.3036 48.5879 27.8672 47.2473 26.5265C45.6193 24.8028 43.6083 23.6536 41.31 22.696C40.927 22.5045 40.8312 22.696 40.7354 22.9833C38.8202 28.8248 41.8846 35.2409 47.6303 37.3476C48.2049 37.5392 48.6837 37.7307 49.2583 37.8265C49.5455 37.9222 49.5456 38.018 49.5456 38.2095C49.5456 39.0714 49.5456 39.9332 49.5456 40.8908C49.5456 41.2739 49.354 41.2739 49.0667 41.2739C47.8218 41.0824 46.5769 40.6993 45.332 40.1248C40.4481 37.7307 37.5753 33.9002 36.8092 28.6333C36.3304 25.1858 37.0007 21.9299 38.8202 18.9613C39.0117 18.674 39.2032 18.5783 39.4905 18.674C43.8956 19.8232 47.6303 21.9299 50.6947 25.3774C50.982 25.6647 51.2693 26.1435 51.5566 26.1435C51.8439 26.2392 52.1311 25.6647 52.4184 25.3774C55.5786 22.4087 59.3133 20.1104 63.4311 18.7698C64.2929 18.4825 64.1014 18.3867 64.5802 19.2486C66.1124 21.8342 66.687 24.707 66.4955 27.6757C66.1124 32.5595 63.7184 36.39 59.6006 39.1671C57.7811 40.3163 55.8659 40.9866 53.7591 41.3697C53.4718 41.3697 53.376 41.3697 53.376 41.0824C53.5676 40.5078 53.4718 40.029 53.4718 39.6459Z" fill="#FFC639"/>
<path d="M4.44153 81.3983C3.19663 81.3983 1.85595 81.3983 0.611045 81.3983C0.323758 81.3983 0.227993 81.3026 0.323755 81.0153C0.323755 80.5365 0.323755 80.0576 0.323755 79.5788C0.323755 79.2915 0.419512 79.1958 0.706799 79.1958C3.10085 79.1958 5.49491 79.1958 7.88897 79.1958C8.17625 79.1958 8.46354 79.1958 8.5593 78.9085C8.65506 78.6212 8.65507 78.2382 8.46354 77.9509C8.36778 77.7594 8.17626 77.8551 7.98473 77.8551C6.26101 77.8551 4.44153 77.8551 2.71781 77.8551C1.37714 77.8551 0.515283 77.1848 0.132234 76.0356C-0.250815 74.7907 0.227987 73.4501 1.18561 72.7797C1.56866 72.4924 2.14323 72.3967 2.62204 72.3967C5.11186 72.3967 7.60168 72.3967 9.99573 72.3967C10.283 72.3967 10.3788 72.4924 10.283 72.7797C10.283 73.2585 10.283 73.6416 10.283 74.1204C10.283 74.4077 10.1873 74.5034 9.89998 74.5034C7.60168 74.5034 5.39915 74.5034 3.10085 74.5034C3.00509 74.5034 2.90934 74.5034 2.71781 74.5034C2.52629 74.5034 2.23899 74.5034 2.14323 74.7907C2.04747 75.078 2.04748 75.4611 2.239 75.7483C2.33476 75.9399 2.52629 75.8441 2.71781 75.8441C4.44153 75.8441 6.26101 75.8441 7.98473 75.8441C9.3254 75.8441 10.1873 76.5144 10.5703 77.6636C10.9534 78.9085 10.5703 80.2492 9.61269 81.0153C9.22964 81.3026 8.75083 81.3983 8.17625 81.3983C6.83558 81.3983 5.59068 81.3983 4.44153 81.3983Z" fill="white"/>
<path d="M76.5505 76.0356C75.3056 77.7594 74.1564 79.4831 72.9115 81.3026C71.6666 79.5788 70.4217 77.8551 69.2725 76.1314C69.1768 76.1314 69.1768 76.2272 69.1768 76.3229C69.1768 77.9509 69.1768 79.5788 69.1768 81.111C69.1768 81.3983 69.081 81.4941 68.7937 81.4941C68.3149 81.4941 67.8361 81.4941 67.2615 81.4941C67.07 81.4941 66.9742 81.3983 66.9742 81.2068C66.9742 78.4297 66.9742 75.5568 66.9742 72.7797C66.9742 72.5882 67.07 72.4924 67.2615 72.4924C67.8361 72.4924 68.4107 72.4924 68.9853 72.4924C69.1768 72.4924 69.2725 72.5882 69.3683 72.7797C70.4217 74.3119 71.5708 75.8441 72.6242 77.4721C72.8157 77.7594 72.9115 77.6636 73.0073 77.4721C74.0607 75.9399 75.2098 74.4077 76.2632 72.8755C76.4547 72.684 76.5505 72.5882 76.8378 72.5882C77.3166 72.5882 77.8911 72.5882 78.37 72.5882C78.5615 72.5882 78.6572 72.684 78.6572 72.8755C78.6572 75.7483 78.6572 78.5255 78.6572 81.3983C78.6572 81.5898 78.5615 81.6856 78.37 81.6856C77.8911 81.6856 77.4123 81.6856 76.8378 81.6856C76.5505 81.6856 76.5505 81.5898 76.5505 81.3983C76.5505 79.7704 76.5505 78.2382 76.5505 76.6102C76.6462 76.2272 76.6462 76.1314 76.5505 76.0356C76.6462 76.0356 76.6462 76.0356 76.5505 76.0356Z" fill="white"/>
<path d="M46.0981 76.0356C46.0981 77.3763 46.0981 78.6212 46.0981 79.9619C46.0981 80.3449 46.0981 80.728 46.0981 81.111C46.0981 81.3025 46.0981 81.3983 45.9066 81.3983C45.332 81.3983 44.7574 81.3983 44.1829 81.3983C43.8956 81.3983 43.9913 81.2068 43.9913 81.0153C43.9913 78.9085 43.9913 76.8017 43.9913 74.695C43.9913 74.0246 43.9913 73.3543 43.9913 72.7797C43.9913 72.4924 44.0871 72.3967 44.3744 72.3967C44.8532 72.3967 45.332 72.3967 45.9066 72.3967C46.1939 72.3967 46.2896 72.4924 46.4812 72.684C47.5345 74.2161 48.6837 75.8441 49.7371 77.3763C49.7371 77.4721 49.8328 77.4721 49.9286 77.5678C50.3116 76.9933 50.7904 76.4187 51.1735 75.7483C51.9396 74.695 52.6099 73.6416 53.376 72.5882C53.5676 72.3967 53.6633 72.3009 53.9506 72.3009C54.4294 72.3009 55.004 72.3009 55.4828 72.3009C55.6743 72.3009 55.7701 72.3967 55.7701 72.5882C55.7701 75.3653 55.7701 78.2382 55.7701 81.0153C55.7701 81.3025 55.6743 81.3026 55.4828 81.3026C55.004 81.3026 54.5252 81.3026 54.0464 81.3026C53.7591 81.3026 53.7591 81.2068 53.7591 80.9195C53.7591 79.3873 53.7591 77.9509 53.7591 76.4187C53.7591 76.2271 53.7591 76.0356 53.6633 75.8441C52.4184 77.5678 51.2693 79.2915 50.0244 81.0153C48.5879 79.4831 47.343 77.7594 46.0981 76.0356Z" fill="white"/>
<path d="M61.3243 81.3983C59.7921 81.3983 58.3557 81.3983 56.8235 81.3983C56.5362 81.3983 56.5362 81.3025 56.5362 81.111C56.5362 78.3339 56.5362 75.5568 56.5362 72.684C56.5362 72.3967 56.632 72.3009 56.8235 72.3009C59.7921 72.3009 62.8565 72.3009 65.8251 72.3009C66.1124 72.3009 66.1124 72.3967 66.1124 72.5882C66.1124 73.067 66.1124 73.5458 66.1124 74.0246C66.1124 74.3119 66.0167 74.3119 65.7294 74.3119C63.4311 74.3119 61.2285 74.3119 58.9302 74.3119C58.5472 74.3119 58.4514 74.4077 58.5472 74.7907C58.5472 75.7483 58.5472 75.7483 59.5048 75.7483C61.4201 75.7483 63.3353 75.7483 65.2506 75.7483C65.5378 75.7483 65.6336 75.8441 65.6336 76.1314C65.6336 76.6102 65.6336 77.089 65.6336 77.5678C65.6336 77.8551 65.5378 77.9509 65.2506 77.9509C63.1438 77.9509 61.037 77.9509 58.9302 77.9509C58.643 77.9509 58.4514 78.0466 58.5472 78.3339C58.5472 78.6212 58.4514 79.0043 58.643 79.1958C58.8345 79.3873 59.2175 79.2915 59.5048 79.2915C61.5158 79.2915 63.6226 79.2915 65.6336 79.2915C65.9209 79.2915 66.0166 79.3873 66.0166 79.6746C66.0166 80.1534 66.0166 80.6322 66.0166 81.111C66.0166 81.3983 65.9209 81.3983 65.6336 81.3983C64.3887 81.3983 62.8565 81.3983 61.3243 81.3983Z" fill="white"/>
<path d="M22.0618 77.9509C22.0618 79.0043 22.0618 80.0576 22.0618 81.111C22.0618 81.3025 21.966 81.3983 21.7745 81.3983C21.2957 81.3983 20.7211 81.3983 20.2423 81.3983C20.0508 81.3983 19.955 81.3025 19.955 81.111C19.955 80.3449 19.955 79.5788 19.955 78.8127C19.955 78.5254 19.8592 78.4297 19.6677 78.4297C17.6567 78.4297 15.5499 78.4297 13.5389 78.4297C13.2517 78.4297 13.1559 78.5254 13.1559 78.8127C13.1559 79.5788 13.1559 80.2492 13.1559 81.0153C13.1559 81.2068 13.0601 81.3026 12.8686 81.3026C12.3898 81.3026 11.8152 81.3026 11.2406 81.3026C11.0491 81.3026 10.9534 81.3025 10.9534 81.111C10.9534 78.9085 10.8576 76.706 11.0491 74.5992C11.1449 73.2585 12.294 72.3009 13.6347 72.3009C15.5499 72.3009 17.561 72.3009 19.4762 72.3009C20.9126 72.3009 22.0618 73.3543 22.0618 74.7907C22.1575 75.9399 22.0618 76.9933 22.0618 77.9509ZM16.5076 76.4187C17.5609 76.4187 18.6143 76.4187 19.6677 76.4187C19.8592 76.4187 20.0508 76.4187 19.955 76.1314C19.955 75.7483 19.955 75.4611 19.955 75.078C19.955 74.5992 19.7635 74.5034 19.2847 74.5034C17.3694 74.5034 15.5499 74.5034 13.6347 74.5034C13.2516 74.5034 13.0601 74.5992 13.0601 75.078C13.0601 75.4611 13.0601 75.7483 13.0601 76.1314C13.0601 76.4187 13.1559 76.5144 13.3474 76.5144C14.4966 76.4187 15.5499 76.4187 16.5076 76.4187Z" fill="white"/>
<path d="M99.0546 78.3339C99.1504 78.1424 99.1504 78.0466 99.1504 77.9509C99.1504 76.2272 99.1504 74.5034 99.1504 72.8755C99.1504 72.5882 99.2461 72.4924 99.5334 72.4924C100.012 72.4924 100.491 72.4924 100.97 72.4924C101.161 72.4924 101.257 72.5882 101.257 72.7797C101.257 75.5568 101.257 78.4297 101.257 81.2068C101.257 81.3983 101.257 81.4941 100.97 81.4941C100.395 81.4941 99.725 81.5898 99.1504 81.3983C98.5758 81.2068 98.2885 80.5365 97.9055 80.1534C96.5648 78.6212 95.1284 77.089 93.7877 75.5568C93.6919 75.6526 93.6919 75.8441 93.6919 75.9399C93.6919 77.6636 93.6919 79.4831 93.6919 81.2068C93.6919 81.4941 93.5962 81.5898 93.4047 81.4941C92.9258 81.4941 92.447 81.4941 91.8724 81.4941C91.6809 81.4941 91.5852 81.3983 91.5852 81.2068C91.5852 78.4297 91.5852 75.6526 91.5852 72.7797C91.5852 72.5882 91.6809 72.4924 91.8724 72.4924C92.447 72.4924 92.9258 72.4924 93.5004 72.4924C93.7877 72.4924 93.8835 72.684 93.9792 72.7797C95.6072 74.5992 97.2351 76.3229 98.7673 78.1424C98.9589 78.2382 98.9589 78.2382 99.0546 78.3339Z" fill="white"/>
<path d="M33.4575 76.8975C33.4575 75.5568 33.4575 74.1204 33.4575 72.7797C33.4575 72.3967 33.5533 72.3009 33.9363 72.3967C34.3193 72.3967 34.7982 72.3967 35.1812 72.3967C35.4685 72.3967 35.66 72.4924 35.66 72.7797C35.66 73.6416 35.66 74.5992 35.66 75.4611C35.66 75.7483 35.7558 75.7483 36.0431 75.7483C37.671 75.7483 39.2032 75.7483 40.8312 75.7483C41.1185 75.7483 41.2142 75.6526 41.1185 75.4611C41.1185 74.5034 41.1185 73.6416 41.1185 72.684C41.1185 72.3967 41.2142 72.3009 41.5015 72.3009C41.9803 72.3009 42.4591 72.3009 42.938 72.3009C43.2252 72.3009 43.321 72.3967 43.321 72.684C43.321 75.3653 43.321 78.0466 43.321 80.728C43.321 81.3025 43.321 81.3026 42.7464 81.3026C42.3634 81.3026 41.8846 81.3026 41.5015 81.3026C41.31 81.3026 41.2142 81.2068 41.2142 81.0153C41.2142 80.0576 41.2142 79.1 41.2142 78.1424C41.2142 77.8551 41.1185 77.7593 40.8312 77.7593C39.299 77.7593 37.671 77.7593 36.1388 77.7593C35.8515 77.7593 35.7558 77.8551 35.7558 78.1424C35.7558 79.1 35.7558 80.0576 35.7558 80.9195C35.7558 81.111 35.66 81.2068 35.4685 81.2068C34.9897 81.2068 34.4151 81.2068 33.9363 81.2068C33.649 81.2068 33.649 81.111 33.649 80.9195C33.4575 79.6746 33.4575 78.3339 33.4575 76.8975Z" fill="white"/>
<path d="M28.7651 81.3983C27.616 81.3983 26.4668 81.3983 25.3177 81.3983C24.0728 81.3983 22.9236 80.4407 22.7321 79.1958C22.7321 79.0043 22.6364 78.717 22.6364 78.5255C22.6364 77.4721 22.6364 76.5144 22.6364 75.4611C22.5406 73.9289 23.7855 72.4924 25.605 72.4924C27.8075 72.4924 30.1058 72.4924 32.3083 72.4924C32.4999 72.4924 32.5956 72.5882 32.5956 72.7797C32.5956 73.2585 32.5956 73.7373 32.5956 74.2162C32.5956 74.5034 32.4999 74.5992 32.2126 74.5992C31.255 74.5992 30.2973 74.5992 29.3397 74.5992C28.1906 74.5992 26.9456 74.5992 25.7965 74.5992C25.0304 74.5992 24.8389 74.7907 24.8389 75.5568C24.8389 76.5144 24.8389 77.5678 24.8389 78.5255C24.8389 79.1958 25.0304 79.3873 25.7007 79.3873C27.9033 79.3873 30.1058 79.3873 32.2126 79.3873C32.5956 79.3873 32.5956 79.4831 32.5956 79.7704C32.5956 80.1534 32.5956 80.6322 32.5956 81.0153C32.5956 81.3983 32.4999 81.4941 32.1168 81.4941C31.0634 81.3983 29.9143 81.3983 28.7651 81.3983Z" fill="white"/>
<path d="M86.0309 78.5254C86.5097 77.6636 86.8928 76.8975 87.2758 76.0356C87.8504 74.8865 88.425 73.8331 88.9996 72.684C89.0953 72.4924 89.1911 72.3967 89.3826 72.3967C90.0529 72.3967 90.7233 72.3967 91.3936 72.3967C91.1063 72.9712 90.819 73.5458 90.5318 74.0246C89.3826 76.3229 88.1377 78.717 86.9886 81.0153C86.8928 81.2068 86.7013 81.3026 86.5097 81.3026C86.0309 81.3026 85.4564 81.3983 85.0733 81.2068C84.6903 81.0153 84.5945 80.4407 84.403 79.9619C83.1581 77.5678 81.9132 75.078 80.6682 72.5882C80.4767 72.3009 80.5725 72.2051 80.8598 72.2051C81.3386 72.2051 81.8174 72.2051 82.2962 72.2051C82.6793 72.2051 82.8708 72.3009 82.9665 72.684C83.8284 74.4077 84.786 76.1314 85.6479 77.8551C85.8394 78.2382 85.9352 78.3339 86.0309 78.5254Z" fill="white"/>
<path d="M10.8576 89.3466C10.8576 88.4847 10.8576 87.5271 10.8576 86.6652C10.8576 86.3779 10.9534 86.2822 11.1449 86.2822C12.0068 86.2822 12.8686 86.1864 13.6347 86.3779C14.8796 86.5695 15.6457 87.4313 15.55 88.5805C15.55 89.155 15.55 89.6339 15.55 90.2084C15.55 91.4533 14.7839 92.2194 13.539 92.3152C12.6771 92.411 11.8152 92.3152 10.9534 92.3152C10.6661 92.3152 10.7618 92.1237 10.7618 92.0279C10.8576 91.0703 10.8576 90.2084 10.8576 89.3466ZM12.1025 89.3466C12.1025 89.9211 12.1025 90.4957 12.1025 91.0703C12.1025 91.2618 12.1025 91.3576 12.294 91.3576C12.6771 91.3576 13.0601 91.3576 13.3474 91.3576C13.922 91.2618 14.1135 91.0703 14.2093 90.4957C14.3051 89.7296 14.3051 88.9635 14.2093 88.2932C14.1135 87.9101 13.922 87.7186 13.539 87.6229C13.1559 87.5271 12.6771 87.5271 12.294 87.5271C12.1025 87.5271 12.0068 87.6229 12.0068 87.8144C12.1025 88.1974 12.1025 88.772 12.1025 89.3466Z" fill="white"/>
<path d="M53.2803 89.3466C53.2803 88.4847 53.2803 87.5271 53.2803 86.6652C53.2803 86.4737 53.376 86.3779 53.5676 86.3779C54.5252 86.3779 54.5252 86.3779 54.5252 87.3356C54.5252 87.7186 54.5252 88.1974 54.5252 88.5805C54.5252 88.772 54.621 88.8677 54.8125 88.8677C55.4828 88.8677 56.0574 88.8677 56.7277 88.8677C56.9192 88.8677 57.015 88.772 57.015 88.5805C57.015 87.9101 57.015 87.3356 57.015 86.6652C57.015 86.3779 57.1108 86.3779 57.3023 86.3779C58.2599 86.3779 58.2599 86.3779 58.2599 87.3356C58.2599 88.8677 58.2599 90.4957 58.2599 92.0279C58.2599 92.3152 58.1642 92.4109 57.9726 92.4109C57.015 92.4109 57.015 92.4109 57.015 91.4533C57.015 91.0703 57.015 90.5915 57.015 90.2084C57.015 90.0169 57.015 89.9211 56.7277 89.9211C56.0574 89.9211 55.3871 89.9211 54.7167 89.9211C54.5252 89.9211 54.4294 90.0169 54.4294 90.2084C54.4294 90.8788 54.4294 91.5491 54.4294 92.1237C54.4294 92.3152 54.4294 92.5067 54.1421 92.4109C53.8549 92.4109 53.376 92.5067 53.1845 92.3152C52.993 92.1237 53.0888 91.7406 53.0888 91.4533C53.2803 90.6872 53.2803 90.0169 53.2803 89.3466Z" fill="white"/>
<path d="M36.5219 89.3466C36.5219 90.2084 36.5219 91.166 36.5219 92.0279C36.5219 92.2194 36.4261 92.3152 36.2346 92.3152C35.277 92.3152 35.277 92.3152 35.277 91.3576C35.277 90.9745 35.277 90.4957 35.277 90.1127C35.277 89.9211 35.277 89.8254 34.9897 89.8254C34.3193 89.8254 33.649 89.8254 33.0744 89.8254C32.8829 89.8254 32.7871 89.9211 32.7871 90.1127C32.7871 90.783 32.7871 91.4533 32.7871 92.0279C32.7871 92.2194 32.6914 92.3152 32.4998 92.3152C31.4465 92.3152 31.4465 92.3152 31.4465 91.3576C31.4465 89.8254 31.4465 88.1974 31.4465 86.6652C31.4465 86.3779 31.5422 86.2822 31.8295 86.2822C32.7871 86.2822 32.7871 86.2822 32.7871 87.2398C32.7871 87.6228 32.7871 88.1017 32.7871 88.4847C32.7871 88.6762 32.8829 88.772 33.0744 88.772C33.7448 88.772 34.4151 88.772 34.9897 88.772C35.1812 88.772 35.277 88.6762 35.277 88.4847C35.277 87.8144 35.277 87.2398 35.277 86.5695C35.277 86.3779 35.3727 86.2822 35.5643 86.2822C35.7558 86.2822 36.0431 86.2822 36.2346 86.2822C36.5219 86.2822 36.5219 86.3779 36.5219 86.5695C36.5219 87.5271 36.5219 88.3889 36.5219 89.3466Z" fill="white"/>
<path d="M59.6964 89.2508C59.6964 88.5805 59.6963 87.9101 60.0794 87.2398C60.2709 86.9525 60.5582 86.6652 60.8455 86.5695C61.8031 86.1864 62.7607 86.1864 63.7184 86.5695C64.3887 86.8567 64.7717 87.4313 64.8675 88.1016C64.9633 88.772 64.9633 89.5381 64.8675 90.2084C64.7717 91.3576 64.1014 92.0279 63.048 92.2194C62.4735 92.3152 61.9946 92.3152 61.4201 92.2194C60.3667 91.9321 59.8879 91.3576 59.6964 90.3042C59.6964 90.0169 59.6964 89.6338 59.6964 89.2508ZM63.5268 89.3466C63.5268 88.9635 63.5268 88.6762 63.5268 88.2932C63.5268 88.0059 63.4311 87.7186 63.1438 87.6228C62.5692 87.3355 62.0904 87.3355 61.5158 87.6228C61.3243 87.7186 61.1328 87.9101 61.1328 88.1974C61.037 88.9635 61.037 89.8254 61.1328 90.5915C61.2285 90.9745 61.4201 91.2618 61.8031 91.2618C62.0904 91.3576 62.4735 91.3576 62.7607 91.2618C63.2395 91.166 63.4311 90.8788 63.5268 90.3999C63.5268 90.0169 63.5268 89.6338 63.5268 89.3466Z" fill="white"/>
<path d="M84.3072 89.2508C84.3072 89.8254 84.3073 90.3042 84.1157 90.783C83.9242 91.4533 83.3496 91.9321 82.6793 92.1237C82.009 92.3152 81.3386 92.3152 80.6683 92.1237C79.8064 91.8364 79.2319 91.2618 79.0403 90.3999C78.9446 89.6339 78.9446 88.9635 79.0403 88.1974C79.2319 87.144 79.9022 86.4737 80.9556 86.2822C81.5301 86.1864 82.009 86.1864 82.5835 86.3779C83.5411 86.6652 84.1157 87.3356 84.2115 88.2932C84.3072 88.6762 84.3072 89.0593 84.3072 89.2508ZM82.9666 89.3466C82.9666 89.0593 82.9666 88.8677 82.9666 88.5805C82.9666 87.7186 82.4878 87.3356 81.6259 87.4313C81.5301 87.4313 81.4344 87.4313 81.3386 87.4313C80.8598 87.5271 80.5725 87.8144 80.4768 88.2932C80.381 88.9635 80.381 89.6339 80.4768 90.3999C80.4768 90.783 80.6683 91.0703 81.0513 91.1661C81.4344 91.2618 81.9132 91.2618 82.392 91.1661C82.6793 91.0703 82.8708 90.8788 82.9666 90.5915C82.9666 90.2084 82.8708 89.7296 82.9666 89.3466Z" fill="white"/>
<path d="M19.4762 91.0703H19.3804C18.9974 91.0703 18.6143 90.9745 18.327 91.166C18.0398 91.3576 18.0398 91.8364 17.944 92.1237C17.8482 92.3152 17.7525 92.3152 17.6567 92.3152C17.3694 92.3152 17.0821 92.3152 16.7948 92.3152C16.5076 92.3152 16.5076 92.2194 16.6033 92.0279C17.0821 90.5915 17.6567 89.155 18.1355 87.8144C18.327 87.4313 18.4228 86.9525 18.6143 86.5695C18.7101 86.3779 18.8059 86.2822 18.9974 86.2822C19.3804 86.2822 19.8592 86.2822 20.2423 86.2822C20.4338 86.2822 20.5296 86.3779 20.6253 86.5695C21.2957 88.3889 21.966 90.2084 22.5406 92.1237C22.6363 92.3152 22.6363 92.4109 22.3491 92.4109C21.2957 92.4109 21.2957 92.4109 20.9126 91.4533C20.8169 91.2618 20.7211 91.166 20.5296 91.166C20.1465 91.0703 19.8592 91.0703 19.4762 91.0703ZM19.4762 87.2398C19.1889 88.1974 18.9016 88.9635 18.6143 89.8254C18.6143 89.9211 18.6143 90.0169 18.7101 90.0169C19.1889 90.0169 19.6677 90.0169 20.1465 90.0169C20.2423 90.0169 20.3381 90.0169 20.2423 89.8254C20.0508 89.0593 19.8592 88.1974 19.4762 87.2398Z" fill="white"/>
<path d="M40.6397 86.2822C41.5015 86.2822 41.5015 86.2822 41.7888 87.144C42.3634 88.772 42.9379 90.3999 43.5125 92.0279C43.6083 92.3152 43.6083 92.4109 43.2252 92.4109C42.2676 92.4109 42.2676 92.4109 41.8846 91.4533C41.7888 91.2618 41.693 91.166 41.5015 91.166C40.8312 91.166 40.1609 91.166 39.5863 91.166C39.3948 91.166 39.299 91.166 39.2032 91.4533C39.2032 91.5491 39.2032 91.5491 39.1075 91.6449C39.0117 91.9321 39.0117 92.3152 38.8202 92.4109C38.4371 92.5067 38.0541 92.5067 37.671 92.5067C37.4795 92.5067 37.5753 92.3152 37.5753 92.3152C37.8626 91.5491 38.1499 90.6872 38.4371 89.9211C38.8202 88.8677 39.2032 87.9101 39.4905 86.8567C39.5863 86.5695 39.682 86.3779 39.9693 86.4737C40.2566 86.2822 40.4481 86.2822 40.6397 86.2822ZM40.6397 87.3355C40.6397 87.3355 40.5439 87.3355 40.6397 87.3355C40.2566 88.1974 40.0651 88.9635 39.7778 89.7296C39.682 89.9211 39.682 90.0169 39.9693 90.0169C40.4481 90.0169 40.9269 90.0169 41.4058 90.0169C41.5015 90.0169 41.5973 90.0169 41.5973 89.8254C41.2142 89.0593 40.9269 88.1974 40.6397 87.3355Z" fill="white"/>
<path d="M24.7431 89.3466C25.2219 88.3889 25.605 87.5271 26.0838 86.5695C26.1796 86.3779 26.2753 86.2822 26.4669 86.2822C26.8499 86.2822 27.1372 86.2822 27.5202 86.2822C27.616 86.3779 27.5202 86.4737 27.4245 86.5695C26.9457 87.6228 26.3711 88.6762 25.7965 89.6338C25.4135 90.2084 25.3177 90.8788 25.3177 91.5491C25.3177 92.3152 25.3177 92.3152 24.5516 92.3152C24.4559 92.3152 24.3601 92.3152 24.3601 92.3152C24.0728 92.3152 23.977 92.2194 24.0728 92.0279C24.1686 91.0703 23.8813 90.2084 23.4025 89.3466C22.8279 88.3889 22.3491 87.4313 21.8703 86.3779C22.3491 86.3779 22.7321 86.3779 23.1152 86.3779C23.3067 86.3779 23.3067 86.5695 23.3067 86.6652C23.7855 87.4313 24.2643 88.3889 24.7431 89.3466Z" fill="white"/>
<path d="M45.8108 89.3466C46.2896 88.3889 46.6727 87.5271 47.1515 86.5695C47.2472 86.3779 47.343 86.2822 47.6303 86.2822C47.9176 86.2822 48.3006 86.2822 48.5879 86.2822C48.5879 86.4737 48.4921 86.6652 48.3964 86.8567C47.8218 88.0059 47.1515 89.2508 46.5769 90.3999C46.3854 90.783 46.4811 91.166 46.4811 91.5491C46.4811 92.4109 46.4811 92.3152 45.6193 92.4109C45.2362 92.4109 45.1405 92.3152 45.1405 91.9321C45.2362 91.0703 45.0447 90.3042 44.5659 89.5381C43.9913 88.5805 43.6083 87.6228 43.1295 86.6652C43.1295 86.5695 43.0337 86.4737 43.0337 86.3779C43.4167 86.3779 43.7998 86.3779 44.1828 86.3779C44.3744 86.3779 44.3744 86.5695 44.4701 86.6652C44.8532 87.4313 45.332 88.3889 45.8108 89.3466Z" fill="white"/>
<path d="M87.6589 86.2822C88.425 86.2822 89.0954 86.2822 89.8614 86.2822C90.1487 86.2822 90.1487 86.378 90.1487 86.5695C90.1487 87.2398 90.1487 87.2398 89.4784 87.2398C89.1911 87.2398 88.9038 87.2398 88.6165 87.2398C88.3293 87.2398 88.2335 87.3356 88.2335 87.6229C88.2335 89.0593 88.2335 90.4957 88.2335 91.9322C88.2335 92.2194 88.1377 92.3152 87.8504 92.3152C86.8928 92.3152 86.8928 92.3152 86.8928 91.3576C86.8928 90.1127 86.8928 88.8678 86.8928 87.6229C86.8928 87.3356 86.7971 87.2398 86.5098 87.2398C86.1267 87.2398 85.6479 87.2398 85.2649 87.2398C85.0733 87.2398 84.9776 87.144 84.9776 86.9525C84.9776 86.1864 84.9776 86.1864 85.7437 86.1864C86.414 86.2822 87.0843 86.2822 87.6589 86.2822Z" fill="white"/>
<path d="M67.3573 89.3466C67.3573 89.7296 67.3573 90.0169 67.4531 90.3999C67.5488 90.9745 67.9319 91.3576 68.5065 91.3576C68.9853 91.3576 69.4641 91.3576 69.9429 91.2618C70.1344 91.2618 70.1344 91.2618 70.2302 91.4533C70.4217 92.2194 70.4217 92.2194 69.6556 92.3152C69.081 92.411 68.6022 92.411 68.0277 92.3152C66.9743 92.1237 66.3039 91.4533 66.2082 90.3999C66.1124 89.7296 66.1124 89.0593 66.2082 88.2932C66.3997 87.0483 67.1658 86.3779 68.4107 86.2822C68.9853 86.2822 69.4641 86.3779 70.0387 86.3779C70.2302 86.3779 70.2302 86.4737 70.2302 86.6652C70.1344 87.3356 70.1344 87.3355 69.4641 87.2398C69.1768 87.2398 68.7937 87.144 68.4107 87.2398C67.8361 87.2398 67.4531 87.6228 67.3573 88.1974C67.3573 88.5805 67.3573 88.9635 67.3573 89.3466Z" fill="white"/>
<path d="M75.6886 86.2822C76.4547 86.2822 77.2208 86.2822 77.9869 86.2822C78.1784 86.2822 78.2742 86.378 78.2742 86.5695C78.2742 87.3356 78.2742 87.3356 77.5081 87.3356C77.2208 87.3356 77.0293 87.3356 76.742 87.3356C76.4547 87.3356 76.359 87.4313 76.359 87.7186C76.359 89.1551 76.359 90.4957 76.359 91.9322C76.359 92.2194 76.2632 92.3152 75.9759 92.3152C75.0183 92.3152 75.0183 92.3152 75.0183 91.3576C75.0183 90.1127 75.0183 88.9635 75.0183 87.7186C75.0183 87.3356 74.9225 87.2398 74.5395 87.2398C74.1564 87.2398 73.7734 87.2398 73.3903 87.2398C73.1988 87.2398 73.1031 87.144 73.1031 86.9525C73.1031 86.1864 73.1031 86.1864 73.7734 86.1864C74.4437 86.2822 75.1141 86.2822 75.6886 86.2822Z" fill="white"/>
<path d="M80.4767 81.3983C80.1895 81.3983 79.8064 81.5898 79.6149 81.3026C79.4234 81.111 79.5191 80.728 79.5191 80.3449C79.5191 79.7704 79.5191 79.7704 80.0937 79.7704C80.4767 79.7704 80.764 79.7704 81.1471 79.7704C81.3386 79.7704 81.4344 79.7704 81.4344 80.0576C81.4344 80.4407 81.4344 80.8237 81.4344 81.2068C81.4344 81.3983 81.3386 81.3983 81.2428 81.3983C81.0513 81.3983 80.764 81.3983 80.4767 81.3983Z" fill="white"/>
<path d="M82.5835 85.9949C82.392 85.8991 82.2005 85.8034 82.0089 85.7076C81.7217 85.5161 81.5301 85.5161 81.2428 85.7076C81.1471 85.8034 81.0513 85.8034 80.9556 85.8991C80.6683 86.0906 80.5725 85.8991 80.4767 85.7076C80.2852 85.5161 80.381 85.4203 80.5725 85.2288C80.9556 85.0373 81.2428 84.5584 81.6259 84.5584C82.0089 84.5584 82.392 85.0373 82.775 85.3245C82.8708 85.4203 82.9666 85.4203 82.8708 85.5161C82.775 85.7076 82.775 85.8991 82.5835 85.9949Z" fill="white"/>
<path d="M49.5455 91.8364C49.5455 92.2195 49.1625 92.6025 48.8752 93.0813C48.7794 93.1771 48.6837 93.1771 48.5879 93.0813C48.4921 92.9856 48.5879 92.8898 48.5879 92.8898C48.6837 92.6025 48.8752 92.411 48.3964 92.3152C48.1091 92.2195 48.2049 91.8364 48.2049 91.6449C48.2049 91.4534 48.3964 91.3576 48.5879 91.2618C49.1625 91.0703 49.5455 91.2618 49.5455 91.8364Z" fill="white"/>
<path d="M80.9556 84.4627C80.764 84.2712 80.6683 84.0796 80.5725 83.8881C80.4768 83.6966 80.6683 83.6966 80.764 83.6008C81.0513 83.4093 81.4344 83.2178 81.7217 82.9305C81.9132 82.8347 81.9132 82.8347 82.009 83.0262C82.392 83.6966 82.4877 83.5051 81.8174 83.9839C81.5301 84.1754 81.2428 84.3669 80.9556 84.4627Z" fill="white"/>
<path d="M62.2819 93.9431C61.8989 93.9431 61.6116 93.6559 61.6116 93.2728C61.6116 92.8898 61.8989 92.6025 62.2819 92.6025C62.665 92.6025 62.9522 92.8898 62.9522 93.2728C62.9522 93.6559 62.665 93.9431 62.2819 93.9431Z" fill="white"/>
<path d="M20.1465 93.2728C20.1465 93.6559 19.8592 93.9431 19.5719 93.9431C19.1889 93.9431 18.9016 93.6559 18.9016 93.2728C18.9016 92.8898 19.1889 92.6025 19.5719 92.6025C19.8592 92.6982 20.1465 92.8898 20.1465 93.2728Z" fill="white"/>
</svg>
