<svg width="17" height="18" viewBox="0 0 17 18" fill="none" xmlns="http://www.w3.org/2000/svg">
<g clip-path="url(#clip0)">
<path d="M8.22346 1.5428C7.49996 3.27392 7.53306 4.96831 8.59231 6.56168C9.64683 8.15504 11.1931 8.93106 13.1083 9.00912C13.2029 9.45912 13.2596 9.91831 13.392 10.3499C13.6474 11.1857 14.1108 11.9112 14.7823 12.4989C15.0613 12.7423 15.3261 12.9902 15.416 13.3622C15.6051 14.1107 15.1133 14.8224 14.3 14.9647C14.1534 14.9923 14.002 15.0015 13.8555 15.0015C9.77451 15.0015 5.69356 15.0015 1.60789 15.0015C1.22958 15.0015 0.870195 14.9464 0.558095 14.7168C-0.12758 14.2117 -0.193783 13.3209 0.430417 12.7377C0.941127 12.2647 1.41401 11.7688 1.73556 11.1535C2.07131 10.5198 2.27937 9.84484 2.30302 9.1331C2.32666 8.36167 2.30775 7.58565 2.3172 6.81423C2.33612 5.40453 2.80427 4.16474 3.80677 3.12698C4.92277 1.98821 6.74808 1.32239 8.22346 1.5428Z" fill="#5877AA"/>
<path d="M17.0001 3.76068C16.9953 5.84078 15.2693 7.50302 13.1272 7.49384C10.9898 7.48925 9.26847 5.80863 9.2732 3.73772C9.27793 1.65762 11.0229 -0.013813 13.1745 -3.75282e-05C15.293 0.00914614 17.0048 1.69435 17.0001 3.76068Z" fill="#5877AA"/>
<path d="M10.5452 15.7638C10.4648 16.8888 9.14551 17.9679 7.83563 18C6.10017 18.0413 5.0551 16.7327 4.91797 15.7638C6.79057 15.7638 8.6679 15.7638 10.5452 15.7638Z" fill="#5877AA"/>
</g>
<defs>
<clipPath id="clip0">
<rect width="17" height="18" fill="white"/>
</clipPath>
</defs>
</svg>
