<svg width="17" height="17" viewBox="0 0 17 17" fill="none" xmlns="http://www.w3.org/2000/svg">
<g clip-path="url(#clip0)">
<path d="M8.50399 -0.000118374C13.1877 0.00421836 16.9996 3.82054 16.9996 8.49988C16.9996 13.1879 13.166 17.0129 8.4823 16.9999C3.79863 16.9869 -0.00902489 13.1662 -0.000351422 8.48687C0.00832205 3.80753 3.82898 -0.00445511 8.50399 -0.000118374ZM9.2022 6.32718C9.2022 6.32718 9.19786 6.32718 9.2022 6.32718C9.2022 5.6333 9.20654 4.93942 9.19786 4.24554C9.19353 3.82488 8.88562 3.54299 8.47363 3.55167C8.07465 3.56034 7.80143 3.85957 7.80143 4.29759C7.7971 5.77207 7.80577 7.24656 7.7971 8.71672C7.7971 9.02463 7.89684 9.25447 8.10934 9.46697C9.21955 10.5728 10.3254 11.683 11.4313 12.7932C11.5007 12.8626 11.5787 12.932 11.6611 12.9884C12.0297 13.2226 12.4981 13.0751 12.6803 12.6805C12.8147 12.3899 12.7453 12.1037 12.4808 11.8348C11.4269 10.781 10.3731 9.73585 9.32363 8.67769C9.25424 8.6083 9.2022 8.48253 9.2022 8.38279C9.19353 7.69759 9.2022 7.01238 9.2022 6.32718Z" fill="#5877AA"/>
<path d="M9.20241 6.32726C9.20241 7.01247 9.19807 7.69767 9.20675 8.38721C9.20675 8.48696 9.25879 8.61272 9.32818 8.68211C10.3777 9.74027 11.4315 10.7854 12.4853 11.8393C12.7499 12.1038 12.8149 12.3944 12.6848 12.6849C12.5027 13.0839 12.0343 13.227 11.6657 12.9928C11.5789 12.9408 11.5052 12.8714 11.4358 12.7977C10.3256 11.6875 9.22409 10.5773 8.11389 9.4714C7.90139 9.25889 7.79731 9.02905 7.80164 8.72114C7.81032 7.24665 7.80598 5.77216 7.80598 4.30201C7.80598 3.864 8.0792 3.56476 8.47817 3.55609C8.89016 3.54308 9.19807 3.8293 9.20241 4.24997C9.20675 4.93951 9.19807 5.63339 9.20241 6.32726C9.19807 6.32726 9.20241 6.32726 9.20241 6.32726Z" fill="#94B1E0"/>
<path d="M8.5 4.25V9.05435L11.9 12.75" stroke="#94B1E0" stroke-width="2" stroke-linecap="round" stroke-linejoin="round"/>
</g>
<defs>
<clipPath id="clip0">
<rect width="17" height="17" fill="white"/>
</clipPath>
</defs>
</svg>
