<svg width="19" height="18" viewBox="0 0 19 18" fill="none" xmlns="http://www.w3.org/2000/svg">
<path d="M9.40063 17.2491C14.1477 17.2651 18.0332 13.4036 18.0491 8.64053C18.0731 3.90939 14.1717 0.00799074 9.42457 1.24176e-05C4.65353 -0.0079659 0.807981 3.82961 0.784046 8.60862C0.760111 13.3557 4.6296 17.2332 9.40063 17.2491Z" fill="black"/>
<path d="M9.40063 17.2491C4.6296 17.2332 0.760111 13.3557 0.784046 8.60862C0.807981 3.82961 4.65353 -0.0079659 9.42457 1.24176e-05C14.1717 0.00799074 18.0651 3.90939 18.0491 8.64053C18.0252 13.4036 14.1477 17.2651 9.40063 17.2491ZM11.8021 7.0688C10.2304 7.0688 8.72247 7.0688 7.18266 7.0688C7.18266 8.12194 7.18266 9.15114 7.18266 10.1724C8.74641 10.1724 10.2543 10.1724 11.8021 10.1724C11.8021 9.12721 11.8021 8.12194 11.8021 7.0688ZM7.42201 5.4492C8.81821 5.4492 10.1745 5.4492 11.5468 5.4492C11.5229 5.29762 11.5069 5.1939 11.483 5.09816C11.2277 3.99715 10.9484 2.90412 10.1985 2.00257C9.71179 1.42015 9.265 1.42015 8.7863 2.00257C7.96453 3.00784 7.67731 4.21256 7.42201 5.4492ZM11.5548 11.784C10.1586 11.784 8.81821 11.784 7.42201 11.784C7.68529 13.0446 7.97251 14.2493 8.7863 15.2466C9.265 15.829 9.71976 15.829 10.1985 15.2466C11.0123 14.2493 11.2915 13.0366 11.5548 11.784ZM5.58699 7.05285C4.61364 7.05285 3.65624 7.04487 2.70682 7.0688C2.62704 7.0688 2.49141 7.26028 2.48343 7.37198C2.43556 8.03418 2.37173 8.69638 2.39567 9.35858C2.42758 10.2123 2.45949 10.2123 3.31317 10.2123C3.43285 10.2123 3.55252 10.2123 3.6722 10.2123C4.30248 10.2123 4.94075 10.2123 5.58699 10.2123C5.58699 9.13519 5.58699 8.11396 5.58699 7.05285ZM13.3898 7.04487C13.3898 8.12992 13.3898 9.15114 13.3898 10.2043C14.3153 10.2043 15.2168 10.2123 16.1184 10.1963C16.1902 10.1963 16.3099 10.0607 16.3258 9.97291C16.5253 9.07934 16.5253 8.17779 16.3258 7.28422C16.3099 7.19646 16.1902 7.06082 16.1184 7.06082C15.2168 7.03689 14.3153 7.04487 13.3898 7.04487ZM6.75981 2.09831C5.15616 2.76849 3.9674 3.87748 3.12169 5.47314C4.07111 5.47314 4.92479 5.47314 5.74656 5.47314C6.08165 4.3482 6.41674 3.24719 6.75981 2.09831ZM6.75981 15.1429C6.41674 13.994 6.08963 12.893 5.75454 11.7999C4.91682 11.7999 4.05516 11.7999 3.12967 11.7999C3.98335 13.3797 5.15616 14.4886 6.75981 15.1429ZM15.7035 5.4891C14.8897 3.92535 13.7727 2.84827 12.2728 2.17809C12.56 3.23921 12.8313 4.26841 13.1265 5.29762C13.1504 5.3774 13.2861 5.48112 13.3738 5.48112C14.1078 5.49707 14.8578 5.4891 15.7035 5.4891ZM15.7115 11.7601C14.9296 11.7601 14.2275 11.776 13.5334 11.7521C13.2302 11.7441 13.1345 11.8558 13.0707 12.135C12.8792 12.9089 12.6558 13.6669 12.4324 14.4328C12.3686 14.6402 12.2648 14.8317 12.1851 15.0312C13.7727 14.4009 14.8977 13.3238 15.7115 11.7601Z" fill="#5877AA"/>
<path d="M11.8035 7.06885C11.8035 8.12199 11.8035 9.12725 11.8035 10.1724C10.2637 10.1724 8.75581 10.1724 7.18408 10.1724C7.18408 9.15119 7.18408 8.12996 7.18408 7.06885C8.73188 7.06885 10.2318 7.06885 11.8035 7.06885Z" fill="#94B1E0"/>
<path d="M7.42334 5.44919C7.67865 4.21255 7.96587 2.99984 8.77965 2.00255C9.25835 1.41216 9.71312 1.42014 10.1918 2.00255C10.9418 2.89613 11.221 3.98916 11.4763 5.09814C11.5003 5.20186 11.5162 5.30558 11.5402 5.44919C10.1759 5.44919 8.81955 5.44919 7.42334 5.44919Z" fill="#94B1E0"/>
<path d="M11.5561 11.7841C11.3008 13.0367 11.0136 14.2494 10.1998 15.2466C9.7211 15.837 9.26633 15.837 8.78763 15.2466C7.97384 14.2494 7.68662 13.0367 7.42334 11.7841C8.81955 11.7841 10.1599 11.7841 11.5561 11.7841Z" fill="#94B1E0"/>
<path d="M5.58825 7.0529C5.58825 8.11401 5.58825 9.13524 5.58825 10.2123C4.942 10.2123 4.31172 10.2123 3.67345 10.2123C3.55378 10.2123 3.4341 10.2123 3.31443 10.2123C2.46075 10.2123 2.42883 10.2123 2.39692 9.35065C2.37299 8.68845 2.43681 8.02625 2.48468 7.36405C2.49266 7.25236 2.62829 7.06088 2.70807 7.06088C3.65749 7.04492 4.61489 7.0529 5.58825 7.0529Z" fill="#94B1E0"/>
<path d="M13.3911 7.04496C14.3166 7.04496 15.2181 7.03698 16.1197 7.05294C16.1915 7.05294 16.3112 7.18857 16.3271 7.27633C16.5266 8.16991 16.5266 9.07146 16.3271 9.96503C16.3112 10.0528 16.1915 10.1884 16.1197 10.1884C15.2181 10.2044 14.3166 10.1964 13.3911 10.1964C13.3911 9.15124 13.3911 8.13799 13.3911 7.04496Z" fill="#94B1E0"/>
<path d="M6.76128 2.09839C6.41024 3.25524 6.08313 4.35625 5.74804 5.47322C4.92627 5.47322 4.07259 5.47322 3.12317 5.47322C3.97685 3.87755 5.15764 2.76857 6.76128 2.09839Z" fill="#94B1E0"/>
<path d="M6.76099 15.143C5.15735 14.4887 3.98454 13.3798 3.13086 11.8C4.05634 11.8 4.918 11.8 5.75573 11.8C6.08284 12.9011 6.41793 13.9941 6.76099 15.143Z" fill="#94B1E0"/>
<path d="M15.7048 5.4891C14.8511 5.4891 14.1091 5.49708 13.3671 5.48112C13.2794 5.48112 13.1437 5.37741 13.1198 5.29762C12.8326 4.26842 12.5533 3.23922 12.2661 2.1781C13.774 2.84828 14.899 3.93333 15.7048 5.4891Z" fill="#94B1E0"/>
<path d="M15.7127 11.76C14.8989 13.3237 13.774 14.4008 12.1863 15.0311C12.274 14.8316 12.3778 14.6402 12.4336 14.4327C12.657 13.6748 12.8804 12.9089 13.0719 12.135C13.1437 11.8557 13.2314 11.7361 13.5346 11.752C14.2287 11.7759 14.9308 11.76 15.7127 11.76Z" fill="#94B1E0"/>
</svg>
