<svg width="18" height="18" viewBox="0 0 18 18" fill="none" xmlns="http://www.w3.org/2000/svg">
<path d="M13.1195 6.05957C13.0145 8.74378 11.8554 10.8544 9.58297 12.3646C9.2316 12.5976 8.87567 12.8306 8.51974 13.0591C8.09536 13.3235 7.88546 13.691 7.8672 14.1929C7.79419 15.9629 6.59407 17.2669 4.81442 17.5403C2.95719 17.8226 1.07259 16.3797 0.908314 14.5424C0.876371 14.1794 0.880934 13.812 0.880934 13.4445C0.880934 11.0023 0.876371 8.56006 0.880934 6.12231C0.885498 4.01168 1.74794 2.31332 3.50022 1.08997C6.87699 -1.26264 11.6638 0.372984 12.8457 4.27159C12.9324 4.55838 13.0008 4.84966 13.0419 5.14542C13.0875 5.44565 13.0966 5.75485 13.1195 6.05957ZM5.0654 4.88103C5.12015 4.7914 5.14297 4.75107 5.16579 4.71971C5.70881 3.95343 6.67164 3.61734 7.62535 3.8638C8.48324 4.08338 9.1951 4.91688 9.25442 5.84896C9.34568 7.22915 8.75247 8.30463 7.63904 9.1202C7.32875 9.34426 7.24661 9.62657 7.42914 9.88648C7.6071 10.1464 7.93565 10.1733 8.25051 9.9537C8.72965 9.62209 9.14034 9.22775 9.46433 8.74827C10.2218 7.61901 10.5641 6.40462 10.1534 5.06924C9.66967 3.49635 8.16381 2.55979 6.553 2.78833C4.91937 3.02135 3.72838 4.35673 3.701 5.98787C3.69187 6.60627 3.70556 7.22915 3.67818 7.84755C3.64624 8.52421 3.8242 9.10676 4.32616 9.5952C4.64558 9.90889 4.6182 10.357 4.32159 10.6886C4.21208 10.8141 4.098 10.9351 4.00673 11.0695C3.69643 11.5042 3.69187 12.0061 3.70556 12.5124C3.72381 13.328 4.2714 13.9464 5.09734 14.0674C5.46696 14.1212 5.74988 13.9374 5.79551 13.6238C5.82745 13.3952 5.65405 13.0502 5.24792 13.0457C5.04258 13.0412 4.88743 12.9292 4.80073 12.7455C4.65014 12.4318 4.76422 11.7327 5.00607 11.4773C5.79551 10.6348 5.78638 9.64001 5.01064 8.79308C4.8783 8.64968 4.7551 8.43458 4.74597 8.24638C4.71859 7.69519 4.72315 7.13953 4.76422 6.59283C4.80529 6.06405 5.37569 5.72348 5.89134 5.89377C6.27921 6.02372 6.46174 6.31052 6.50281 6.70486C6.53475 7.03646 6.78116 7.25156 7.06864 7.22467C7.36981 7.1933 7.56147 6.9558 7.53865 6.61972C7.49302 5.9341 7.16447 5.41428 6.56213 5.07372C6.10581 4.80037 5.62211 4.74659 5.0654 4.88103Z" fill="#5877AA"/>
<path d="M17.719 6.20313C17.7053 6.98285 17.3722 7.80739 16.7014 8.49748C16.4596 8.74843 16.1401 8.77083 15.9165 8.56022C15.7021 8.36305 15.7112 8.04489 15.9348 7.79842C16.925 6.70502 16.9296 5.29794 15.9394 4.2135C15.7112 3.96255 15.7021 3.65783 15.9165 3.4517C16.1401 3.23661 16.455 3.26349 16.7014 3.50996C17.354 4.16869 17.7281 5.0918 17.719 6.20313Z" fill="#5877AA"/>
<path d="M15.6291 5.97007C15.6245 6.40026 15.4876 6.76324 15.2001 7.06347C14.9811 7.29201 14.6753 7.31442 14.4472 7.12173C14.2327 6.938 14.2145 6.64673 14.4015 6.40026C14.6343 6.09106 14.6343 5.92974 14.4015 5.62054C14.2145 5.37408 14.2327 5.08281 14.4472 4.89908C14.6708 4.70639 14.9765 4.7288 15.2001 4.95733C15.4785 5.24413 15.6154 5.58918 15.6291 5.97007Z" fill="#5877AA"/>
<path d="M5.06515 4.88109C5.62186 4.75114 6.10556 4.80043 6.55276 5.05585C7.1551 5.4009 7.48365 5.92072 7.52928 6.60185C7.5521 6.93794 7.36044 7.17544 7.05927 7.20681C6.77179 7.23818 6.52538 7.02308 6.49343 6.68699C6.45693 6.29265 6.2744 6.00586 5.88196 5.87591C5.37089 5.70562 4.79592 6.04619 4.75485 6.57497C4.71378 7.12615 4.70922 7.68181 4.7366 8.22851C4.74573 8.41672 4.86437 8.63181 5.00127 8.77521C5.78157 9.62215 5.78614 10.617 4.9967 11.4594C4.75485 11.7193 4.64077 12.4139 4.79136 12.7276C4.87806 12.9113 5.03321 13.0278 5.23855 13.0278C5.64468 13.0368 5.82264 13.3774 5.78614 13.6059C5.74051 13.9196 5.45302 14.1033 5.08797 14.0495C4.26659 13.9285 3.71901 13.3101 3.69619 12.4946C3.6825 11.9882 3.69163 11.4908 3.99736 11.0516C4.09319 10.9172 4.20271 10.7962 4.31222 10.6707C4.60883 10.3347 4.63621 9.89102 4.31679 9.57734C3.8194 9.08441 3.63687 8.50634 3.66881 7.82969C3.69619 7.21129 3.6825 6.58841 3.69163 5.97001C3.71901 4.33887 4.91457 3.00349 6.54363 2.77047C8.15444 2.54193 9.65574 3.47849 10.144 5.05137C10.5547 6.38676 10.2124 7.60115 9.45495 8.7304C9.13553 9.20988 8.72028 9.60422 8.24114 9.93583C7.92172 10.1554 7.59773 10.1285 7.41976 9.86861C7.2418 9.60871 7.32394 9.33087 7.62967 9.10234C8.74309 8.28677 9.33631 7.21129 9.24505 5.83109C9.18572 4.89901 8.47386 4.06552 7.61598 3.84594C6.66227 3.60396 5.704 3.94005 5.15642 4.70184C5.13816 4.75114 5.11991 4.79147 5.06515 4.88109Z" fill="#94B1E0"/>
</svg>
