<svg width="18" height="20" viewBox="0 0 18 20" fill="none" xmlns="http://www.w3.org/2000/svg">
<circle cx="9.16428" cy="10.1642" r="8.43113" fill="#5877AA"/>
<path d="M7.80818 10.944C7.80818 10.6667 7.89885 10.4373 8.08018 10.256C8.26151 10.064 8.49085 9.968 8.76818 9.968C9.47218 9.968 10.0375 9.80267 10.4642 9.472C10.8908 9.14133 11.1042 8.62933 11.1042 7.936C11.1042 7.40267 10.9122 6.96 10.5282 6.608C10.1442 6.256 9.66418 6.08 9.08818 6.08C8.50151 6.08 7.98418 6.27733 7.53618 6.672C7.28018 6.90667 7.01351 7.024 6.73618 7.024C6.53351 7.024 6.35218 6.96 6.19218 6.832C5.91485 6.61867 5.77618 6.368 5.77618 6.08C5.77618 5.83467 5.87751 5.61067 6.08018 5.408C6.46418 5.01333 6.91218 4.70933 7.42418 4.496C7.94685 4.272 8.50151 4.16 9.08818 4.16C9.81351 4.16 10.4748 4.32533 11.0722 4.656C11.6695 4.98667 12.1442 5.44533 12.4962 6.032C12.8482 6.608 13.0242 7.24267 13.0242 7.936C13.0242 8.96 12.7308 9.77067 12.1442 10.368C11.5575 10.9653 10.7788 11.3387 9.80818 11.488C9.75485 11.5093 9.72818 11.536 9.72818 11.568V12.16C9.72818 12.4373 9.63751 12.672 9.45618 12.864C9.27485 13.0453 9.04551 13.136 8.76818 13.136C8.49085 13.136 8.26151 13.0453 8.08018 12.864C7.89885 12.672 7.80818 12.4373 7.80818 12.16V10.944ZM8.68818 16C8.37885 16 8.13885 15.92 7.96818 15.76C7.80818 15.5893 7.72818 15.3493 7.72818 15.04V14.768C7.72818 14.4587 7.80818 14.224 7.96818 14.064C8.13885 13.8933 8.37885 13.808 8.68818 13.808H8.89618C9.20551 13.808 9.44018 13.8933 9.60018 14.064C9.77085 14.224 9.85618 14.4587 9.85618 14.768V15.04C9.85618 15.3493 9.77085 15.5893 9.60018 15.76C9.44018 15.92 9.20551 16 8.89618 16H8.68818Z" fill="#94B1E0"/>
</svg>
