<svg width="17" height="17" viewBox="0 0 17 17" fill="none" xmlns="http://www.w3.org/2000/svg">
<g clip-path="url(#clip0)">
<path d="M6.47908 10.6356C6.93877 10.4623 7.36377 10.302 7.78877 10.1417C8.39592 9.91206 8.57806 9.59581 8.46097 8.95029C8.41326 8.68602 8.36122 8.42608 8.31352 8.16181C8.25714 7.85855 8.37857 7.67659 8.68648 7.6246C8.95536 7.57695 9.22857 7.52496 9.50178 7.50763C10.148 7.46431 10.5166 6.75381 10.1566 6.17761C9.60587 5.29815 9.12882 4.37103 8.56071 3.50024C8.02729 2.68576 7.86683 1.83663 8.08367 0.90085C8.21377 0.337649 8.12704 -0.0132685 7.32474 -0.00460389C5.1 0.02139 2.87525 0.00406073 0.64617 0.00406073C0.164791 0.00406073 -3.8147e-06 0.173021 -3.8147e-06 0.65824C-3.8147e-06 5.88301 -3.8147e-06 11.1121 -3.8147e-06 16.3369C-3.8147e-06 16.8221 0.164792 16.9867 0.650506 16.9867C0.945404 16.9867 1.24464 16.9737 1.53954 16.9911C1.88648 17.0127 2.0903 16.8611 2.22041 16.5448C2.39387 16.1246 2.5977 15.7174 2.77551 15.3015C2.91862 14.9635 3.17882 14.8292 3.52576 14.8292C4.31505 14.8379 5.1 14.8509 5.88928 14.8552C6.42704 14.8552 6.90408 14.6906 7.17729 14.2054C7.3074 13.9801 7.37678 13.6898 7.38979 13.4299C7.4028 13.1526 7.44617 12.9187 7.6153 12.6891C7.74541 12.5158 7.85382 12.2948 7.87984 12.0869C7.92755 11.723 7.73673 11.4327 7.43316 11.2334C7.13393 11.0385 6.82602 10.8522 6.47908 10.6356Z" fill="#5877AA"/>
<path d="M14.8143 6.33386C14.5411 6.33819 14.398 6.43351 14.3113 6.61113C14.2159 6.79742 14.2375 6.97504 14.3676 7.13534C14.5498 7.36062 14.7536 7.56857 14.9227 7.79818C16.2975 9.67408 16.3712 12.1392 15.1006 14.093C14.8924 14.4093 14.6192 14.6866 14.3807 14.9855C14.1335 15.2931 14.2722 15.709 14.6539 15.8C14.8534 15.8476 15.0095 15.7566 15.1396 15.6223C15.7597 14.9855 16.2455 14.2533 16.5577 13.4172C17.2342 11.6106 17.1258 9.83871 16.2888 8.11011C15.9896 7.49492 15.5733 6.95772 15.0919 6.47683C15.0095 6.39018 14.8707 6.35986 14.8143 6.33386Z" fill="#5877AA"/>
<path d="M14.515 11.0604C14.502 9.86897 14.0683 8.85521 13.253 7.99307C13.0665 7.79812 12.7413 7.77646 12.5505 7.94542C12.3423 8.13171 12.312 8.42197 12.5028 8.63859C12.8497 9.03283 13.1663 9.44007 13.3224 9.94695C13.7084 11.199 13.5089 12.3384 12.6285 13.3348C12.4811 13.5038 12.3163 13.6684 12.39 13.924C12.4984 14.3053 12.9278 14.4352 13.2097 14.1623C13.8775 13.5168 14.2895 12.724 14.437 11.8055C14.4803 11.5672 14.489 11.3116 14.515 11.0604Z" fill="#5877AA"/>
<path d="M10.9894 9.36206C10.7986 9.37506 10.6511 9.47037 10.5601 9.65666C10.4603 9.86461 10.5124 10.0509 10.6555 10.2155C10.9417 10.5318 11.0675 10.9 10.9677 11.3116C10.9157 11.5282 10.7942 11.7362 10.6641 11.9181C10.4603 12.2084 10.4516 12.464 10.6858 12.6676C10.9027 12.8539 11.2062 12.8149 11.4317 12.5636C12.156 11.7665 12.1907 10.5188 11.5141 9.68265C11.384 9.51369 11.2409 9.36639 10.9894 9.36206Z" fill="#5877AA"/>
</g>
<defs>
<clipPath id="clip0">
<rect width="17" height="17" fill="white" transform="matrix(-1 0 0 1 17 0)"/>
</clipPath>
</defs>
</svg>
