<svg width="16" height="17" viewBox="0 0 16 17" fill="none" xmlns="http://www.w3.org/2000/svg">
<path d="M7.12069 0.623451C7.49893 -0.0748726 8.50107 -0.0748739 8.87931 0.62345L10.7547 4.08601C10.8872 4.33055 11.1155 4.50889 11.3848 4.5782L15.0805 5.52922C15.7784 5.70883 16.063 6.5454 15.6193 7.11332L13.0325 10.4243C12.8787 10.6213 12.8041 10.8687 12.8236 11.1178L13.1561 15.3747C13.2158 16.1396 12.4274 16.6841 11.7332 16.3573L8.4259 14.8005C8.15616 14.6735 7.84384 14.6735 7.5741 14.8005L4.26679 16.3573C3.57258 16.6841 2.78418 16.1396 2.84393 15.3747L3.17642 11.1178C3.19588 10.8687 3.12134 10.6213 2.96748 10.4243L0.380725 7.11332C-0.0629659 6.5454 0.221581 5.70883 0.919531 5.52922L4.61519 4.5782C4.88452 4.50889 5.11282 4.33055 5.24528 4.08601L7.12069 0.623451Z" fill="#5877AA"/>
</svg>
