<svg width="41" height="63" viewBox="0 0 41 63" fill="none" xmlns="http://www.w3.org/2000/svg">
<path d="M41 27.8121V31.4999C41 42.0619 32.8843 50.764 22.5607 51.6983V59.2818H31.7804C32.7982 59.2818 33.6243 60.1078 33.6243 61.1257C33.6243 62.1435 32.7982 62.9696 31.7804 62.9696H9.65323C8.63538 62.9696 7.8093 62.1435 7.8093 61.1257C7.8093 60.1078 8.63538 59.2818 9.65323 59.2818H18.8729V51.6983C8.54933 50.764 0.433594 42.0619 0.433594 31.4999V27.8121C0.433594 26.7942 1.25967 25.9681 2.27752 25.9681H8.42395V29.656H4.12145V31.4999C4.12145 40.6507 11.566 48.0953 20.7168 48.0953C29.8676 48.0953 37.3121 40.6507 37.3121 31.4999V29.656H33.0096V25.9681H39.1561C40.1739 25.9681 41 26.7942 41 27.8121Z" fill="white"/>
<path d="M41 27.8121V31.4999C41 42.0619 32.8843 50.764 22.5607 51.6983V59.2818H31.7804C32.7982 59.2818 33.6243 60.1078 33.6243 61.1257C33.6243 62.1435 32.7982 62.9696 31.7804 62.9696H20.7168V48.0953C29.8676 48.0953 37.3121 40.6507 37.3121 31.4999V29.656H33.0096V25.9681H39.1561C40.1739 25.9681 41 26.7942 41 27.8121Z" fill="white"/>
<path d="M20.7166 0.0302734C13.5994 0.0302734 7.80908 5.82057 7.80908 12.9378V31.5C7.80908 38.6172 13.5994 44.4075 20.7166 44.4075C27.8338 44.4075 33.6241 38.6172 33.6241 31.5V12.9378C33.6241 5.82057 27.8338 0.0302734 20.7166 0.0302734Z" fill="white"/>
<path d="M33.6243 12.9378V31.5C33.6243 38.6175 27.8344 44.4075 20.7168 44.4075V0.0302734C27.8344 0.0302734 33.6243 5.82021 33.6243 12.9378Z" fill="white"/>
</svg>
