<svg width="51" height="37" viewBox="0 0 51 37" fill="none" xmlns="http://www.w3.org/2000/svg">
<path d="M46.2682 16.1504V4.79315C46.2682 2.28927 44.231 0.252159 41.7272 0.252159H9.27284C6.76896 0.252159 4.73184 2.28927 4.73184 4.79315V16.1504C2.00693 16.9048 0 19.405 0 22.3665V30.996C0 31.8321 0.677941 32.5101 1.51406 32.5101H4.73184V35.2338C4.73184 36.0699 5.40978 36.7478 6.24591 36.7478C7.08203 36.7478 7.75997 36.0699 7.75997 35.2338V32.5101H43.24V35.2338C43.24 36.0699 43.918 36.7478 44.7541 36.7478C45.5902 36.7478 46.2682 36.0699 46.2682 35.2338V32.5101H49.4859C50.3221 32.5101 51 31.8321 51 30.996V22.3665C51 19.405 48.993 16.9048 46.2682 16.1504ZM7.75997 4.79315C7.75997 3.95902 8.43871 3.28028 9.27284 3.28028H41.7273C42.5614 3.28028 43.2401 3.95902 43.2401 4.79315V15.9161H39.6925V12.877C39.6925 10.2342 37.5426 8.08425 34.8998 8.08425H28.7787C27.5113 8.08425 26.358 8.5796 25.5001 9.38594C24.6422 8.5797 23.4889 8.08425 22.2215 8.08425H16.1004C13.4576 8.08425 11.3077 10.2343 11.3077 12.877V15.9161H7.75997V4.79315ZM36.6644 12.877V15.9161H27.0141V12.877C27.0141 11.9039 27.8058 11.1124 28.7786 11.1124H34.8997C35.8728 11.1124 36.6644 11.904 36.6644 12.877ZM23.9858 12.877V15.9161H14.3355V12.877C14.3355 11.9039 15.1272 11.1124 16.1001 11.1124H22.2212C23.1942 11.1124 23.9858 11.904 23.9858 12.877ZM47.9719 29.4819H3.02813V22.3665C3.02813 20.4795 4.5633 18.9443 6.4504 18.9443H44.5496C46.4366 18.9443 47.9719 20.4794 47.9719 22.3665V29.4819Z" fill="#BFF7FF"/>
</svg>
