<svg width="120" height="126" viewBox="0 0 120 126" fill="none" xmlns="http://www.w3.org/2000/svg">
<g clip-path="url(#clip0)">
<path d="M101.707 29.2755L104.352 43.0466C104.591 44.301 103.774 45.4944 102.519 45.725C101.486 45.912 100.489 45.3962 100.034 44.51L93.6302 32.0301C92.5396 29.9229 93.38 27.3282 95.5055 26.2245C97.6309 25.1208 100.211 26.0029 101.329 28.1328C101.486 28.4944 101.622 28.8828 101.707 29.2755Z" fill="#F4B002"/>
<path d="M63.5108 41.1169C63.3002 44.508 59.8947 46.7687 56.6998 45.603C47.0451 42.1413 40.4447 32.5685 41.1469 21.7595C41.849 10.9504 49.608 2.33137 59.6138 0.141296C62.914 -0.600504 66.0386 2.04878 65.7929 5.47519L63.5108 41.1169Z" fill="#4285F4"/>
<path d="M0.877699 73.6148L7.2674 77.7124C8.46108 78.4895 10.0761 77.6417 10.1463 76.2288L10.4623 68.5635C10.5325 67.1152 9.02281 66.1615 7.72381 66.8326L0.983024 70.365C-0.280873 71.0362 -0.35109 72.8377 0.877699 73.6148Z" fill="#F4B002"/>
<path d="M28.0866 40.2691C16.0796 46.4861 7.82913 59.0614 7.82913 73.5088C7.82913 87.0732 15.1316 99.0126 25.9801 105.583C19.3095 96.8932 15.3423 86.0488 15.3423 74.2153C15.3423 61.2162 20.1521 49.312 28.0866 40.2691Z" fill="#FFD45A"/>
<path d="M112.768 95.5862C117.297 89.4045 120 81.7393 120 73.5088C120 64.148 116.524 55.5643 110.802 48.9941C114.98 56.4474 117.367 65.0664 117.367 74.2153C117.402 81.8452 115.752 89.0866 112.768 95.5862Z" fill="#FFD45A"/>
<path d="M48.4845 110.881C39.0404 101.556 33.1773 88.5921 33.1773 74.2153C33.1773 59.132 39.6372 45.5677 49.959 36.1716H44.9737C38.8999 36.1716 33.1773 37.6552 28.1217 40.2691C20.1872 49.312 15.3774 61.2162 15.3774 74.2153C15.3774 86.0135 19.3446 96.8932 26.0152 105.583C31.5623 108.939 38.0924 110.881 45.0088 110.881H48.4845Z" fill="#F4B002"/>
<path d="M49.6431 74.2153C49.6431 59.132 56.103 45.5677 66.4248 36.1716H49.9591C39.6723 45.5677 33.1773 59.132 33.1773 74.2153C33.1773 88.5568 39.0404 101.556 48.4845 110.881H64.9503C55.5062 101.556 49.6431 88.5921 49.6431 74.2153Z" fill="#FFD45A"/>
<path d="M67.4781 74.2153C67.4781 59.132 73.938 45.5677 84.2247 36.1716C83.7683 36.1716 83.3119 36.1362 82.8906 36.1362H66.4248C56.1381 45.5324 49.6431 59.0967 49.6431 74.18C49.6431 88.5214 55.5061 101.521 64.9503 110.846H82.7853C73.3411 101.556 67.4781 88.5921 67.4781 74.2153Z" fill="#F4B002"/>
<path d="M84.2247 36.2069C73.9379 45.603 67.478 59.1674 67.478 74.2506C67.478 88.5921 73.3411 101.591 82.7852 110.917H82.8905C95.1082 110.917 106.027 104.876 112.803 95.6215C115.752 89.122 117.437 81.8806 117.437 74.2506C117.437 65.0664 115.05 56.4828 110.872 49.0294C104.271 41.4701 94.7922 36.5955 84.2247 36.2069Z" fill="#FFD45A"/>
<path d="M42.6565 120.525L38.268 124.976C36.8988 126.353 34.6518 126.353 33.3177 124.976C31.9485 123.598 31.9485 121.337 33.3177 119.995L37.7062 115.579C39.0755 114.202 41.3224 114.202 42.6565 115.579C44.0257 116.922 44.0257 119.147 42.6565 120.525Z" fill="#F4B002"/>
<path d="M65.4067 120.525L61.0181 124.94C59.6489 126.318 57.402 126.318 56.0679 124.94C54.6986 123.563 54.6986 121.302 56.0679 119.96L60.4564 115.544C61.8256 114.167 64.0726 114.167 65.4067 115.544C66.7759 116.922 66.7759 119.147 65.4067 120.525Z" fill="#F4B002"/>
<path d="M112.5 70C113.881 70 115 68.6569 115 67C115 65.3431 113.881 64 112.5 64C111.119 64 110 65.3431 110 67C110 68.6569 111.119 70 112.5 70Z" fill="#825700"/>
<path d="M85.5 70C86.8807 70 88 68.6569 88 67C88 65.3431 86.8807 64 85.5 64C84.1193 64 83 65.3431 83 67C83 68.6569 84.1193 70 85.5 70Z" fill="#825700"/>
<path d="M54.446 33.7843C57.2656 35.6602 57.5277 39.7527 54.9359 41.9763C47.1605 48.647 35.6092 49.6351 26.6185 43.6832C17.6552 37.6897 14.0376 26.6391 17.1135 16.7818C18.1296 13.5099 21.9381 12.1556 24.792 14.0245L54.446 33.7843Z" fill="#77ADFC"/>
<path d="M105.027 80.3616C106.08 80.3616 106.817 81.386 106.537 82.4104C105.659 85.4836 102.85 87.709 99.5149 87.709C96.1796 87.709 93.371 85.4483 92.4933 82.4104C92.2124 81.386 92.9497 80.3616 94.0029 80.3616H105.027Z" fill="#825700"/>
<path d="M84.714 29.2743L90.7688 41.9483C91.3142 43.1056 90.829 44.5044 89.6794 45.0481C88.7175 45.4901 87.626 45.2296 86.9627 44.4862L77.6091 33.9894C76.035 32.214 76.1729 29.4779 77.9224 27.8695C79.6833 26.2945 82.4067 26.4433 84.0139 28.2073C84.3175 28.5513 84.5547 28.9181 84.714 29.2743Z" fill="#F4B002"/>
</g>
<defs>
<clipPath id="clip0">
<rect width="120" height="126" fill="white"/>
</clipPath>
</defs>
</svg>
