<svg width="20" height="25" viewBox="0 0 20 25" fill="none" xmlns="http://www.w3.org/2000/svg">
<path d="M9.5989 23.6076C6.75564 23.6076 4.0847 22.0567 2.53383 19.6443C0.982968 17.0595 0.81065 13.9578 2.10304 11.2868C3.74006 7.84048 5.98021 4.91106 7.87571 2.41245C8.13419 2.06781 8.73729 1.29239 9.7712 1.29239C10.7189 1.29239 11.3221 2.06782 11.4944 2.3263C14.0792 5.60034 16.147 8.35744 17.5255 11.8038C18.6456 14.5609 18.3871 17.4903 16.7501 19.9028C15.1992 22.2291 12.6145 23.6076 9.5989 23.6076Z" fill="#E5F3FD"/>
<path d="M9.77112 2.58477C10.0296 2.58477 10.2019 2.75709 10.4604 3.10172C12.7005 5.94497 14.9407 8.87438 16.3192 12.3208C18.387 17.2318 14.9407 22.4014 9.68496 22.4014C9.68496 22.4014 9.68498 22.4014 9.59882 22.4014C4.34311 22.4014 0.982888 16.7149 3.30919 11.89C4.77389 8.78822 6.84171 5.94497 8.90953 3.27404C9.25417 2.75708 9.51264 2.58477 9.77112 2.58477ZM9.77112 0C8.1341 0 7.18636 1.20622 6.92788 1.63702C4.94622 4.13563 2.70609 7.15121 0.982904 10.6837C-0.481802 13.7855 -0.309505 17.4041 1.49984 20.3336C3.30918 23.1768 6.32477 24.9 9.59882 24.9H9.68496C13.0452 24.9 16.0607 23.263 17.8701 20.592C19.6794 17.8349 20.0241 14.3886 18.7317 11.2868C17.1808 7.40968 14.596 4.13564 12.5282 1.4647C11.7528 0.430793 10.805 0 9.77112 0Z" fill="white"/>
<path d="M16.3191 12.2346C14.9405 8.78823 12.7004 5.94498 10.4603 3.01557C10.2018 2.67094 10.0295 2.49861 9.77098 2.49861C11.8388 5.08339 13.7343 7.75432 15.0267 10.856C17.0945 15.7671 13.562 20.9367 8.30629 20.9367C6.66927 20.9367 5.2907 20.4197 4.08447 19.472C5.37686 21.109 7.27238 22.2291 9.59868 22.2291C14.9405 22.3152 18.3869 17.2318 16.3191 12.2346Z" fill="#ADD6F3"/>
<path d="M14.1652 17.4903C14.1652 17.4903 13.2174 19.0412 11.925 19.6443" stroke="#F7F7F7" stroke-miterlimit="10" stroke-linecap="round" stroke-linejoin="round"/>
</svg>
