<svg width="20" height="26" viewBox="0 0 20 26" fill="none" xmlns="http://www.w3.org/2000/svg">
<path d="M9.83009 24.1764C6.91832 24.1764 4.18302 22.5882 2.59479 20.1176C1.00655 17.4706 0.830084 14.2941 2.15361 11.5588C3.83008 8.0294 6.12421 5.0294 8.06538 2.47058C8.33009 2.11763 8.94773 1.32353 10.0066 1.32353C10.9771 1.32353 11.5948 2.11764 11.7713 2.38235C14.4183 5.73529 16.536 8.55881 17.9477 12.0882C19.0948 14.9117 18.8301 17.9117 17.1536 20.3823C15.5654 22.7647 12.9183 24.1764 9.83009 24.1764Z" fill="#FDDD45"/>
<path d="M10.0066 2.64706C10.2713 2.64706 10.4477 2.82352 10.7125 3.17646C13.0066 6.08822 15.3007 9.08822 16.7124 12.6176C18.8301 17.647 15.3007 22.9412 9.91833 22.9412C9.91833 22.9412 9.91834 22.9412 9.8301 22.9412C4.44775 22.9412 1.00658 17.1176 3.38893 12.1764C4.88893 8.99998 7.00657 6.08822 9.12422 3.35293C9.47716 2.82352 9.74186 2.64706 10.0066 2.64706ZM10.0066 0C8.3301 0 7.35951 1.23529 7.09481 1.67646C5.0654 4.23528 2.77129 7.32352 1.00658 10.9412C-0.493417 14.1176 -0.316955 17.8235 1.53598 20.8235C3.38892 23.7353 6.47716 25.5 9.8301 25.5H9.91833C13.3595 25.5 16.4477 23.8235 18.3007 21.0882C20.1536 18.2647 20.5066 14.7353 19.183 11.5588C17.5948 7.58822 14.9477 4.23529 12.8301 1.5C12.036 0.441173 11.0654 0 10.0066 0Z" fill="white"/>
<path d="M13.9772 15.5294C13.6242 15.3529 13.3595 15.4412 13.0948 15.6176C12.7419 17.3823 11.3301 18.5294 9.56543 18.6176C9.56543 18.7059 9.56543 18.8823 9.56543 18.9706C9.7419 19.6765 10.1831 19.9412 10.889 19.9412C12.6537 19.8529 14.0654 18.7059 14.4184 16.9412C14.5066 16.4118 14.5948 15.7941 13.9772 15.5294Z" fill="#FDDD45"/>
<path d="M16.7123 12.5294C15.3005 8.99999 13.0064 6.08823 10.7123 3.08823C10.4476 2.73529 10.2711 2.55882 10.0064 2.55882C12.124 5.20587 14.0652 7.94116 15.3887 11.1176C17.5064 16.147 13.8887 21.4411 8.50639 21.4411C6.82993 21.4411 5.41815 20.9117 4.18286 19.9411C5.50639 21.6176 7.44757 22.7647 9.82992 22.7647C15.3005 22.8529 18.8299 17.647 16.7123 12.5294Z" fill="#FFC639"/>
<path d="M14.5065 17.9117C14.5065 17.9117 13.5359 19.5 12.2124 20.1176" stroke="white" stroke-miterlimit="10" stroke-linecap="round" stroke-linejoin="round"/>
</svg>
