<svg width="39" height="44" viewBox="0 0 39 44" fill="none" xmlns="http://www.w3.org/2000/svg">
<path d="M22.0125 3.20284C22.5959 3.20318 23.1349 3.51476 23.4263 4.0202L25.9511 8.39929C26.2426 8.90473 26.2422 9.52725 25.9502 10.0324L23.4202 14.4085C23.1282 14.9136 22.5889 15.2245 22.0054 15.2242L16.9506 15.2212C16.3672 15.2209 15.8282 14.9093 15.5368 14.4039L13.012 10.0248C12.7205 9.51935 12.7209 8.89683 13.0129 8.39172L15.5429 4.01559C15.8349 3.51049 16.3742 3.19954 16.9577 3.19989L22.0125 3.20284Z" fill="#FFAC49"/>
<path d="M22.0125 15.7473C22.5959 15.7476 23.1349 16.0592 23.4263 16.5646L25.9511 20.9437C26.2426 21.4492 26.2422 22.0717 25.9502 22.5768L23.4202 26.9529C23.1282 27.458 22.5889 27.769 22.0054 27.7686L16.9506 27.7657C16.3672 27.7653 15.8282 27.4538 15.5368 26.9483L13.012 22.5692C12.7205 22.0638 12.7209 21.4413 13.0129 20.9362L15.5429 16.56C15.8349 16.0549 16.3742 15.744 16.9577 15.7443L22.0125 15.7473Z" fill="#FFAC49"/>
<path d="M22.0125 28.4035C22.5959 28.4039 23.1349 28.7154 23.4263 29.2209L25.9511 33.6C26.2426 34.1054 26.2422 34.7279 25.9502 35.233L23.4202 39.6092C23.1282 40.1143 22.5889 40.4252 22.0054 40.4249L16.9506 40.4219C16.3672 40.4216 15.8282 40.11 15.5368 39.6046L13.012 35.2255C12.7205 34.72 12.7209 34.0975 13.0129 33.5924L15.5429 29.2163C15.8349 28.7112 16.3742 28.4002 16.9577 28.4006L22.0125 28.4035Z" fill="#FFAC49"/>
<path d="M32.9239 9.6233C33.5073 9.62364 34.0462 9.93521 34.3377 10.4407L36.8625 14.8197C37.1539 15.3252 37.1536 15.9477 36.8616 16.4528L34.3316 20.8289C34.0396 21.334 33.5003 21.645 32.9168 21.6446L27.862 21.6417C27.2786 21.6413 26.7396 21.3298 26.4482 20.8243L23.9233 16.4452C23.6319 15.9398 23.6323 15.3173 23.9243 14.8122L26.4543 10.436C26.7463 9.93095 27.2856 9.62 27.869 9.62034L32.9239 9.6233Z" fill="#FFAC49"/>
<path d="M32.9239 22.0754C33.5073 22.0758 34.0462 22.3873 34.3377 22.8928L36.8625 27.2719C37.1539 27.7773 37.1536 28.3998 36.8616 28.9049L34.3316 33.2811C34.0396 33.7862 33.5003 34.0971 32.9168 34.0968L27.862 34.0938C27.2786 34.0935 26.7396 33.7819 26.4482 33.2764L23.9233 28.8974C23.6319 28.3919 23.6323 27.7694 23.9243 27.2643L26.4543 22.8882C26.7463 22.3831 27.2856 22.0721 27.869 22.0725L32.9239 22.0754Z" fill="#FFAC49"/>
<path d="M11.0818 9.6233C11.6653 9.62364 12.2042 9.93521 12.4956 10.4407L15.0205 14.8197C15.3119 15.3252 15.3115 15.9477 15.0195 16.4528L12.4895 20.8289C12.1975 21.334 11.6582 21.645 11.0748 21.6446L6.01996 21.6417C5.43652 21.6413 4.89758 21.3298 4.60616 20.8243L2.08131 16.4452C1.78988 15.9398 1.79025 15.3173 2.08226 14.8122L4.61223 10.436C4.90425 9.93095 5.44355 9.62 6.02699 9.62034L11.0818 9.6233Z" fill="#FFAC49"/>
<path d="M11.0818 22.0754C11.6653 22.0758 12.2042 22.3873 12.4956 22.8928L15.0205 27.2719C15.3119 27.7773 15.3115 28.3998 15.0195 28.9049L12.4895 33.2811C12.1975 33.7862 11.6582 34.0971 11.0748 34.0968L6.01996 34.0938C5.43652 34.0935 4.89758 33.7819 4.60616 33.2764L2.08131 28.8974C1.78988 28.3919 1.79025 27.7694 2.08226 27.2643L4.61223 22.8882C4.90425 22.3831 5.44355 22.0721 6.02699 22.0725L11.0818 22.0754Z" fill="#FFAC49"/>
</svg>
