<svg width="226" height="241" viewBox="0 0 226 241" fill="none" xmlns="http://www.w3.org/2000/svg">
<path fill-rule="evenodd" clip-rule="evenodd" d="M226 0H0V241H226V0ZM132.324 34.0186C130.896 31.5425 128.256 30.0162 125.398 30.0145L100.636 30.0001C97.7778 29.9984 95.1357 31.5216 93.7056 33.996L81.3115 55.4336C79.8813 57.908 79.8794 60.9576 81.3071 63.4336L93.6758 84.8857C95.1035 87.3618 97.7437 88.8881 100.602 88.8898L125.364 88.9042C128.222 88.9059 130.864 87.3826 132.294 84.9083L144.688 63.4706C146.119 60.9963 146.121 57.9467 144.693 55.4706L132.324 34.0186ZM125.398 91.4667C128.256 91.4683 130.896 92.9947 132.324 95.4707L144.693 116.923C146.121 119.399 146.119 122.448 144.688 124.923L132.294 146.36C130.864 148.835 128.222 150.358 125.364 150.356L100.602 150.342C97.7437 150.34 95.1035 148.814 93.6758 146.338L81.3071 124.886C79.8794 122.41 79.8813 119.36 81.3115 116.886L93.7056 95.4481C95.1357 92.9738 97.7778 91.4505 100.636 91.4522L125.398 91.4667ZM132.324 157.471C130.896 154.995 128.256 153.468 125.398 153.467L100.636 153.452C97.7778 153.451 95.1357 154.974 93.7056 157.448L81.3115 178.886C79.8813 181.36 79.8794 184.41 81.3071 186.886L93.6758 208.338C95.1035 210.814 97.7437 212.34 100.602 212.342L125.364 212.356C128.222 212.358 130.864 210.835 132.294 208.36L144.688 186.923C146.119 184.448 146.121 181.399 144.693 178.923L132.324 157.471ZM178.851 61.4667C181.709 61.4683 184.349 62.9947 185.776 65.4707L198.146 86.9228C199.572 89.3989 199.571 92.4484 198.141 94.9228L185.747 116.36C184.316 118.835 181.674 120.358 178.816 120.356L154.054 120.342C151.196 120.34 148.556 118.814 147.128 116.338L134.759 94.8857C133.332 92.4097 133.333 89.3601 134.764 86.8857L147.158 65.4481C148.588 62.9738 151.23 61.4505 154.088 61.4522L178.851 61.4667ZM185.776 126.471C184.349 123.995 181.709 122.468 178.851 122.467L154.088 122.452C151.23 122.451 148.588 123.974 147.158 126.448L134.764 147.886C133.333 150.36 133.332 153.41 134.759 155.886L147.128 177.338C148.556 179.814 151.196 181.34 154.054 181.342L178.816 181.356C181.674 181.358 184.316 179.835 185.747 177.36L198.141 155.923C199.571 153.448 199.572 150.399 198.146 147.923L185.776 126.471ZM71.8506 61.4667C74.7085 61.4683 77.3486 62.9947 78.7764 65.4707L91.145 86.9228C92.5728 89.3989 92.5708 92.4484 91.1406 94.9228L78.7466 116.36C77.3159 118.835 74.6743 120.358 71.8159 120.356L47.0537 120.342C44.1958 120.34 41.5557 118.814 40.1279 116.338L27.7593 94.8857C26.3315 92.4097 26.3335 89.3601 27.7637 86.8857L40.1577 65.4481C41.5879 62.9738 44.23 61.4505 47.0884 61.4522L71.8506 61.4667ZM78.7764 126.471C77.3486 123.995 74.7085 122.468 71.8506 122.467L47.0884 122.452C44.23 122.451 41.5879 123.974 40.1577 126.448L27.7637 147.886C26.3335 150.36 26.3315 153.41 27.7593 155.886L40.1279 177.338C41.5557 179.814 44.1958 181.34 47.0537 181.342L71.8159 181.356C74.6743 181.358 77.3159 179.835 78.7466 177.36L91.1406 155.923C92.5708 153.448 92.5728 150.399 91.145 147.923L78.7764 126.471Z" fill="#F3FAFF"/>
</svg>
