<svg width="262" height="217" viewBox="0 0 262 217" fill="none" xmlns="http://www.w3.org/2000/svg">
<path d="M114.398 17.0145C117.256 17.0162 119.896 18.5425 121.324 21.0186L133.693 42.4707C135.12 44.9467 135.119 47.9963 133.688 50.4707L121.294 71.9083C119.864 74.3827 117.222 75.9059 114.364 75.9042L89.6013 75.8897C86.7432 75.8881 84.1031 74.3617 82.6755 71.8857L70.3068 50.4336C68.8792 47.9576 68.881 44.908 70.3115 42.4336L82.7052 20.996C84.1357 18.5216 86.7776 16.9984 89.6358 17L114.398 17.0145Z" fill="#E5F3FD"/>
<path d="M114.398 78.4667C117.256 78.4683 119.896 79.9947 121.324 82.4707L133.693 103.923C135.12 106.399 135.119 109.448 133.688 111.923L121.294 133.36C119.864 135.835 117.222 137.358 114.364 137.356L89.6013 137.342C86.7432 137.34 84.1031 135.814 82.6755 133.338L70.3068 111.886C68.8792 109.41 68.881 106.36 70.3115 103.886L82.7052 82.4481C84.1357 79.9738 86.7776 78.4505 89.6358 78.4522L114.398 78.4667Z" fill="#E5F3FD"/>
<path d="M114.398 140.467C117.256 140.468 119.896 141.995 121.324 144.471L133.693 165.923C135.12 168.399 135.119 171.448 133.688 173.923L121.294 195.36C119.864 197.835 117.222 199.358 114.364 199.356L89.6013 199.342C86.7432 199.34 84.1031 197.814 82.6755 195.338L70.3068 173.886C68.8792 171.41 68.881 168.36 70.3115 165.886L82.7052 144.448C84.1357 141.974 86.7776 140.451 89.6358 140.452L114.398 140.467Z" fill="#E5F3FD"/>
<path d="M167.85 48.4667C170.708 48.4683 173.349 49.9947 174.776 52.4707L187.145 73.9228C188.572 76.3989 188.571 79.4484 187.14 81.9228L174.746 103.36C173.316 105.835 170.674 107.358 167.816 107.356L143.053 107.342C140.195 107.34 137.555 105.814 136.128 103.338L123.759 81.8858C122.331 79.4097 122.333 76.3601 123.764 73.8858L136.157 52.4481C137.588 49.9738 140.23 48.4505 143.088 48.4522L167.85 48.4667Z" fill="#E5F3FD"/>
<path d="M167.85 109.467C170.708 109.468 173.349 110.995 174.776 113.471L187.145 134.923C188.572 137.399 188.571 140.448 187.14 142.923L174.746 164.36C173.316 166.835 170.674 168.358 167.816 168.356L143.053 168.342C140.195 168.34 137.555 166.814 136.128 164.338L123.759 142.886C122.331 140.41 122.333 137.36 123.764 134.886L136.157 113.448C137.588 110.974 140.23 109.451 143.088 109.452L167.85 109.467Z" fill="#E5F3FD"/>
<path d="M60.8503 48.4667C63.7084 48.4683 66.3485 49.9947 67.7762 52.4707L80.1448 73.9228C81.5724 76.3989 81.5706 79.4484 80.1401 81.9228L67.7464 103.36C66.3159 105.835 63.674 107.358 60.8159 107.356L36.0535 107.342C33.1954 107.34 30.5552 105.814 29.1276 103.338L16.759 81.8858C15.3313 79.4097 15.3331 76.3601 16.7636 73.8858L29.1574 52.4481C30.5879 49.9738 33.2298 48.4505 36.0879 48.4522L60.8503 48.4667Z" fill="#E5F3FD"/>
<path d="M60.8503 109.467C63.7084 109.468 66.3485 110.995 67.7762 113.471L80.1448 134.923C81.5724 137.399 81.5706 140.448 80.1401 142.923L67.7464 164.36C66.3159 166.835 63.674 168.358 60.8159 168.356L36.0535 168.342C33.1954 168.34 30.5552 166.814 29.1276 164.338L16.759 142.886C15.3313 140.41 15.3331 137.36 16.7636 134.886L29.1574 113.448C30.5879 110.974 33.2298 109.451 36.0879 109.452L60.8503 109.467Z" fill="#E5F3FD"/>
<mask id="mask0" mask-type="alpha" maskUnits="userSpaceOnUse" x="30" y="79" width="232" height="60">
<path fill-rule="evenodd" clip-rule="evenodd" d="M30 103.881L39.6667 100.369C49.3333 96.8576 68.6667 89.8339 88 85.1514C107.333 80.4689 126.667 78.1277 146 79.2983C165.333 80.4689 184.667 85.1514 204 92.1751C223.333 99.1989 242.667 108.564 252.333 113.246L262 117.929V139H252.333C242.667 139 223.333 139 204 139C184.667 139 165.333 139 146 139C126.667 139 107.333 139 88 139C68.6667 139 49.3333 139 39.6667 139H30V103.881Z" fill="#FFEC9D"/>
</mask>
<g mask="url(#mask0)">
<path d="M114.398 17.0145C117.256 17.0162 119.896 18.5425 121.324 21.0186L133.693 42.4707C135.12 44.9467 135.119 47.9963 133.688 50.4707L121.294 71.9083C119.864 74.3827 117.222 75.9059 114.364 75.9042L89.6013 75.8897C86.7432 75.8881 84.1031 74.3617 82.6755 71.8857L70.3068 50.4336C68.8792 47.9576 68.881 44.908 70.3115 42.4336L82.7052 20.996C84.1357 18.5216 86.7776 16.9984 89.6358 17L114.398 17.0145Z" fill="#FFEC9D"/>
<path d="M114.398 78.4667C117.256 78.4683 119.896 79.9947 121.324 82.4707L133.693 103.923C135.12 106.399 135.119 109.448 133.688 111.923L121.294 133.36C119.864 135.835 117.222 137.358 114.364 137.356L89.6013 137.342C86.7432 137.34 84.1031 135.814 82.6755 133.338L70.3068 111.886C68.8792 109.41 68.881 106.36 70.3115 103.886L82.7052 82.4481C84.1357 79.9738 86.7776 78.4505 89.6358 78.4522L114.398 78.4667Z" fill="#FFEC9D"/>
<path d="M114.398 140.467C117.256 140.468 119.896 141.995 121.324 144.471L133.693 165.923C135.12 168.399 135.119 171.448 133.688 173.923L121.294 195.36C119.864 197.835 117.222 199.358 114.364 199.356L89.6013 199.342C86.7432 199.34 84.1031 197.814 82.6755 195.338L70.3068 173.886C68.8792 171.41 68.881 168.36 70.3115 165.886L82.7052 144.448C84.1357 141.974 86.7776 140.451 89.6358 140.452L114.398 140.467Z" fill="#FFEC9D"/>
<path d="M167.85 48.4667C170.708 48.4683 173.349 49.9947 174.776 52.4707L187.145 73.9228C188.572 76.3989 188.571 79.4484 187.14 81.9228L174.746 103.36C173.316 105.835 170.674 107.358 167.816 107.356L143.053 107.342C140.195 107.34 137.555 105.814 136.128 103.338L123.759 81.8858C122.331 79.4097 122.333 76.3601 123.764 73.8858L136.157 52.4481C137.588 49.9738 140.23 48.4505 143.088 48.4522L167.85 48.4667Z" fill="#FFEC9D"/>
<path d="M167.85 109.467C170.708 109.468 173.349 110.995 174.776 113.471L187.145 134.923C188.572 137.399 188.571 140.448 187.14 142.923L174.746 164.36C173.316 166.835 170.674 168.358 167.816 168.356L143.053 168.342C140.195 168.34 137.555 166.814 136.128 164.338L123.759 142.886C122.331 140.41 122.333 137.36 123.764 134.886L136.157 113.448C137.588 110.974 140.23 109.451 143.088 109.452L167.85 109.467Z" fill="#FFEC9D"/>
<path d="M60.8503 48.4667C63.7084 48.4683 66.3485 49.9947 67.7762 52.4707L80.1448 73.9228C81.5724 76.3989 81.5706 79.4484 80.1401 81.9228L67.7464 103.36C66.3159 105.835 63.674 107.358 60.8159 107.356L36.0535 107.342C33.1954 107.34 30.5552 105.814 29.1276 103.338L16.759 81.8858C15.3313 79.4097 15.3331 76.3601 16.7636 73.8858L29.1574 52.4481C30.5879 49.9738 33.2298 48.4505 36.0879 48.4522L60.8503 48.4667Z" fill="#FFEC9D"/>
<path d="M60.8503 109.467C63.7084 109.468 66.3485 110.995 67.7762 113.471L80.1448 134.923C81.5724 137.399 81.5706 140.448 80.1401 142.923L67.7464 164.36C66.3159 166.835 63.674 168.358 60.8159 168.356L36.0535 168.342C33.1954 168.34 30.5552 166.814 29.1276 164.338L16.759 142.886C15.3313 140.41 15.3331 137.36 16.7636 134.886L29.1574 113.448C30.5879 110.974 33.2298 109.451 36.0879 109.452L60.8503 109.467Z" fill="#FFEC9D"/>
</g>
<mask id="mask1" mask-type="alpha" maskUnits="userSpaceOnUse" x="0" y="78" width="202" height="133">
<path fill-rule="evenodd" clip-rule="evenodd" d="M0 90L8.41667 87C16.8333 84 33.6667 78 50.5 78C67.3333 78 84.1667 84 101 88C117.833 92 134.667 94 151.5 92C168.333 90 185.167 84 193.583 81L202 78V211H193.583C185.167 211 168.333 211 151.5 211C134.667 211 117.833 211 101 211C84.1667 211 67.3333 211 50.5 211C33.6667 211 16.8333 211 8.41667 211H0V90Z" fill="#FDDD45"/>
</mask>
<g mask="url(#mask1)">
<path d="M114.398 17.0145C117.256 17.0162 119.896 18.5425 121.324 21.0186L133.693 42.4707C135.12 44.9467 135.119 47.9963 133.688 50.4707L121.294 71.9083C119.864 74.3827 117.222 75.9059 114.364 75.9042L89.6013 75.8897C86.7432 75.8881 84.1031 74.3617 82.6755 71.8857L70.3068 50.4336C68.8792 47.9576 68.881 44.908 70.3115 42.4336L82.7052 20.996C84.1357 18.5216 86.7776 16.9984 89.6358 17L114.398 17.0145Z" fill="#FDDD45"/>
<path d="M114.398 78.4667C117.256 78.4683 119.896 79.9947 121.324 82.4707L133.693 103.923C135.12 106.399 135.119 109.448 133.688 111.923L121.294 133.36C119.864 135.835 117.222 137.358 114.364 137.356L89.6013 137.342C86.7432 137.34 84.1031 135.814 82.6755 133.338L70.3068 111.886C68.8792 109.41 68.881 106.36 70.3115 103.886L82.7052 82.4481C84.1357 79.9738 86.7776 78.4505 89.6358 78.4522L114.398 78.4667Z" fill="#FDDD45"/>
<path d="M114.398 140.467C117.256 140.468 119.896 141.995 121.324 144.471L133.693 165.923C135.12 168.399 135.119 171.448 133.688 173.923L121.294 195.36C119.864 197.835 117.222 199.358 114.364 199.356L89.6013 199.342C86.7432 199.34 84.1031 197.814 82.6755 195.338L70.3068 173.886C68.8792 171.41 68.881 168.36 70.3115 165.886L82.7052 144.448C84.1357 141.974 86.7776 140.451 89.6358 140.452L114.398 140.467Z" fill="#FDDD45"/>
<path d="M167.85 48.4667C170.708 48.4683 173.349 49.9947 174.776 52.4707L187.145 73.9228C188.572 76.3989 188.571 79.4484 187.14 81.9228L174.746 103.36C173.316 105.835 170.674 107.358 167.816 107.356L143.053 107.342C140.195 107.34 137.555 105.814 136.128 103.338L123.759 81.8858C122.331 79.4097 122.333 76.3601 123.764 73.8858L136.157 52.4481C137.588 49.9738 140.23 48.4505 143.088 48.4522L167.85 48.4667Z" fill="#FDDD45"/>
<path d="M167.85 109.467C170.708 109.468 173.349 110.995 174.776 113.471L187.145 134.923C188.572 137.399 188.571 140.448 187.14 142.923L174.746 164.36C173.316 166.835 170.674 168.358 167.816 168.356L143.053 168.342C140.195 168.34 137.555 166.814 136.128 164.338L123.759 142.886C122.331 140.41 122.333 137.36 123.764 134.886L136.157 113.448C137.588 110.974 140.23 109.451 143.088 109.452L167.85 109.467Z" fill="#FDDD45"/>
<path d="M60.8503 48.4667C63.7084 48.4683 66.3485 49.9947 67.7762 52.4707L80.1448 73.9228C81.5724 76.3989 81.5706 79.4484 80.1401 81.9228L67.7464 103.36C66.3159 105.835 63.674 107.358 60.8159 107.356L36.0535 107.342C33.1954 107.34 30.5552 105.814 29.1276 103.338L16.759 81.8858C15.3313 79.4097 15.3331 76.3601 16.7636 73.8858L29.1574 52.4481C30.5879 49.9738 33.2298 48.4505 36.0879 48.4522L60.8503 48.4667Z" fill="#FDDD45"/>
<path d="M60.8503 109.467C63.7084 109.468 66.3485 110.995 67.7762 113.471L80.1448 134.923C81.5724 137.399 81.5706 140.448 80.1401 142.923L67.7464 164.36C66.3159 166.835 63.674 168.358 60.8159 168.356L36.0535 168.342C33.1954 168.34 30.5552 166.814 29.1276 164.338L16.759 142.886C15.3313 140.41 15.3331 137.36 16.7636 134.886L29.1574 113.448C30.5879 110.974 33.2298 109.451 36.0879 109.452L60.8503 109.467Z" fill="#FDDD45"/>
</g>
</svg>
