<svg width="37" height="40" viewBox="0 0 37 40" fill="none" xmlns="http://www.w3.org/2000/svg">
<g filter="url(#filter0_i)">
<path d="M20.3158 4.56908C20.7937 4.56936 21.2352 4.82457 21.4739 5.23859L23.542 8.82556C23.7807 9.23958 23.7804 9.7495 23.5412 10.1632L21.4689 13.7478C21.2297 14.1615 20.788 14.4162 20.3101 14.4159L16.1696 14.4135C15.6917 14.4132 15.2502 14.158 15.0115 13.744L12.9434 10.157C12.7047 9.74302 12.705 9.23311 12.9441 8.81937L15.0165 5.23482C15.2557 4.82108 15.6974 4.56638 16.1753 4.56666L20.3158 4.56908Z" fill="#FDDD45"/>
</g>
<g filter="url(#filter1_i)">
<path d="M20.3158 14.8444C20.7937 14.8447 21.2352 15.0999 21.4739 15.5139L23.542 19.1009C23.7807 19.5149 23.7804 20.0248 23.5412 20.4385L21.4689 24.0231C21.2297 24.4368 20.788 24.6915 20.3101 24.6913L16.1696 24.6888C15.6917 24.6886 15.2502 24.4333 15.0115 24.0193L12.9434 20.4324C12.7047 20.0183 12.705 19.5084 12.9441 19.0947L15.0165 15.5101C15.2557 15.0964 15.6974 14.8417 16.1753 14.842L20.3158 14.8444Z" fill="#FDDD45"/>
</g>
<path fill-rule="evenodd" clip-rule="evenodd" d="M22.9223 14.6787L24.9904 18.2657C25.5275 19.1972 25.5269 20.3446 24.9887 21.2755L22.9163 24.86C22.3781 25.7909 21.3842 26.364 20.3089 26.3634L16.1684 26.3609C15.0932 26.3603 14.0999 25.7861 13.5628 24.8545L11.4947 21.2676C10.9576 20.336 10.9582 19.1887 11.4964 18.2578L13.5688 14.6733C14.1069 13.7424 15.1009 13.1693 16.1762 13.1699L20.3166 13.1723C21.3919 13.173 22.3852 13.7472 22.9223 14.6787ZM21.4737 15.5139C21.235 15.0999 20.7936 14.8447 20.3157 14.8444L16.1752 14.842C15.6973 14.8417 15.2555 15.0964 15.0163 15.5102L12.944 19.0947C12.7048 19.5084 12.7045 20.0184 12.9432 20.4324L15.0114 24.0193C15.2501 24.4334 15.6915 24.6886 16.1694 24.6889L20.3099 24.6913C20.7878 24.6916 21.2296 24.4369 21.4688 24.0231L23.5411 20.4386C23.7803 20.0248 23.7806 19.5149 23.5419 19.1009L21.4737 15.5139Z" fill="white"/>
<g filter="url(#filter2_i)">
<path d="M20.3158 25.2113C20.7937 25.2116 21.2352 25.4668 21.4739 25.8808L23.542 29.4678C23.7807 29.8818 23.7804 30.3918 23.5412 30.8055L21.4689 34.39C21.2297 34.8038 20.788 35.0585 20.3101 35.0582L16.1696 35.0558C15.6917 35.0555 15.2502 34.8003 15.0115 34.3863L12.9434 30.7993C12.7047 30.3853 12.705 29.8754 12.9441 29.4616L15.0165 25.8771C15.2557 25.4633 15.6974 25.2086 16.1753 25.2089L20.3158 25.2113Z" fill="#FDDD45"/>
</g>
<g filter="url(#filter3_i)">
<path d="M29.2533 9.82814C29.7312 9.82842 30.1727 10.0836 30.4114 10.4977L32.4795 14.0846C32.7182 14.4986 32.7179 15.0086 32.4787 15.4223L30.4064 19.0068C30.1672 19.4206 29.7255 19.6753 29.2476 19.675L25.1071 19.6726C24.6292 19.6723 24.1877 19.4171 23.949 19.0031L21.8809 15.4161C21.6422 15.0021 21.6425 14.4922 21.8816 14.0784L23.954 10.4939C24.1932 10.0801 24.6349 9.82544 25.1128 9.82572L29.2533 9.82814Z" fill="#FDDD45"/>
</g>
<g filter="url(#filter4_i)">
<path d="M29.2533 20.0279C29.7312 20.0281 30.1727 20.2834 30.4114 20.6974L32.4795 24.2844C32.7182 24.6984 32.7179 25.2083 32.4787 25.622L30.4064 29.2066C30.1672 29.6203 29.7255 29.875 29.2476 29.8747L25.1071 29.8723C24.6292 29.872 24.1877 29.6168 23.949 29.2028L21.8809 25.6158C21.6422 25.2018 21.6425 24.6919 21.8816 24.2782L23.954 20.6936C24.1932 20.2799 24.6349 20.0252 25.1128 20.0254L29.2533 20.0279Z" fill="#FDDD45"/>
</g>
<g filter="url(#filter5_i)">
<path d="M11.3622 9.82814C11.8401 9.82842 12.2816 10.0836 12.5203 10.4977L14.5884 14.0846C14.8271 14.4986 14.8268 15.0086 14.5876 15.4223L12.5153 19.0068C12.2761 19.4206 11.8343 19.6753 11.3564 19.675L7.21596 19.6726C6.73806 19.6723 6.29661 19.4171 6.0579 19.0031L3.98975 15.4161C3.75104 15.0021 3.75134 14.4922 3.99054 14.0784L6.06287 10.4939C6.30207 10.0801 6.74382 9.82544 7.22172 9.82572L11.3622 9.82814Z" fill="#FDDD45"/>
</g>
<g filter="url(#filter6_i)">
<path d="M11.3622 20.0279C11.8401 20.0281 12.2816 20.2834 12.5203 20.6974L14.5884 24.2844C14.8271 24.6984 14.8268 25.2083 14.5876 25.622L12.5153 29.2066C12.2761 29.6203 11.8343 29.875 11.3564 29.8747L7.21596 29.8723C6.73806 29.872 6.29661 29.6168 6.0579 29.2028L3.98975 25.6158C3.75104 25.2018 3.75134 24.6919 3.99054 24.2782L6.06287 20.6936C6.30207 20.2799 6.74382 20.0252 7.22172 20.0254L11.3622 20.0279Z" fill="#FDDD45"/>
</g>
<path d="M25.4236 7.74061L23.3554 4.15364C22.7291 3.06735 21.5709 2.39772 20.3169 2.39699L16.1765 2.39457C14.9225 2.39383 13.7635 3.06211 13.1359 4.14767L11.0636 7.73222C10.436 8.81777 10.4352 10.1557 11.0615 11.242L13.1296 14.8289C13.756 15.9152 14.9142 16.5849 16.1682 16.5856L20.3086 16.588C21.5626 16.5888 22.7216 15.9205 23.3492 14.8349L25.4215 11.2504C26.0491 10.1648 26.0499 8.8269 25.4236 7.74061ZM20.3154 5.06907C20.6146 5.06925 20.8911 5.22907 21.0406 5.48833L23.1087 9.0753C23.2582 9.33457 23.258 9.65388 23.1082 9.91297L21.0359 13.4975C20.8861 13.7566 20.6095 13.9161 20.3102 13.9159L16.1697 13.9135C15.8704 13.9133 15.594 13.7535 15.4445 13.4943L13.3764 9.90728C13.2269 9.64802 13.2271 9.3287 13.3769 9.06961L15.4492 5.48506C15.599 5.22597 15.8756 5.06648 16.1749 5.06665L20.3154 5.06907Z" fill="white" stroke="white"/>
<path d="M25.4236 28.3828L23.3554 24.7959C22.7291 23.7096 21.5709 23.0399 20.3169 23.0392L16.1765 23.0368C14.9225 23.0361 13.7635 23.7043 13.1359 24.7899L11.0636 28.3744C10.436 29.46 10.4352 30.7979 11.0615 31.8842L13.1296 35.4712C13.756 36.5575 14.9142 37.2271 16.1682 37.2278L20.3086 37.2302C21.5626 37.231 22.7216 36.5627 23.3492 35.4771L25.4215 31.8926C26.0491 30.807 26.0499 29.4691 25.4236 28.3828ZM20.3154 25.7113C20.6146 25.7115 20.8911 25.8713 21.0406 26.1306L23.1087 29.7175C23.2582 29.9768 23.258 30.2961 23.1082 30.5552L21.0359 34.1398C20.8861 34.3988 20.6095 34.5583 20.3102 34.5582L16.1697 34.5557C15.8704 34.5556 15.594 34.3957 15.4445 34.1365L13.3764 30.5495C13.2269 30.2902 13.2271 29.9709 13.3769 29.7118L15.4492 26.1273C15.599 25.8682 15.8756 25.7087 16.1749 25.7089L20.3154 25.7113Z" fill="white" stroke="white"/>
<path d="M34.3616 12.9997L32.2934 9.4127C31.6671 8.32642 30.5088 7.65678 29.2549 7.65605L25.1144 7.65363C23.8605 7.6529 22.7015 8.32117 22.0739 9.40673L20.0015 12.9913C19.374 14.0768 19.3732 15.4147 19.9995 16.501L22.0676 20.088C22.694 21.1743 23.8522 21.8439 25.1061 21.8447L29.2466 21.8471C30.5005 21.8478 31.6596 21.1795 32.2872 20.094L34.3595 16.5094C34.9871 15.4239 34.9879 14.086 34.3616 12.9997ZM29.2534 10.3281C29.5526 10.3283 29.8291 10.4881 29.9786 10.7474L32.0467 14.3344C32.1962 14.5936 32.196 14.9129 32.0462 15.172L29.9739 18.7566C29.8241 19.0157 29.5475 19.1752 29.2482 19.175L25.1077 19.1726C24.8084 19.1724 24.532 19.0126 24.3825 18.7533L22.3144 15.1663C22.1649 14.9071 22.1651 14.5878 22.3149 14.3287L24.3872 10.7441C24.537 10.485 24.8136 10.3255 25.1129 10.3257L29.2534 10.3281Z" fill="white" stroke="white"/>
<path d="M34.3616 23.1994L32.2934 19.6125C31.6671 18.5262 30.5088 17.8565 29.2549 17.8558L25.1144 17.8534C23.8605 17.8527 22.7015 18.5209 22.0739 19.6065L20.0015 23.191C19.374 24.2766 19.3732 25.6145 19.9995 26.7008L22.0676 30.2878C22.694 31.3741 23.8522 32.0437 25.1061 32.0444L29.2466 32.0468C30.5005 32.0476 31.6596 31.3793 32.2872 30.2937L34.3595 26.7092C34.9871 25.6236 34.9879 24.2857 34.3616 23.1994ZM29.2534 20.5279C29.5526 20.5281 29.8291 20.6879 29.9786 20.9471L32.0467 24.5341C32.1962 24.7934 32.196 25.1127 32.0462 25.3718L29.9739 28.9563C29.8241 29.2154 29.5475 29.3749 29.2482 29.3748L25.1077 29.3723C24.8084 29.3722 24.532 29.2123 24.3825 28.9531L22.3144 25.3661C22.1649 25.1068 22.1651 24.7875 22.3149 24.5284L24.3872 20.9439C24.537 20.6848 24.8136 20.5253 25.1129 20.5255L29.2534 20.5279Z" fill="white" stroke="white"/>
<path d="M16.47 12.9997L14.4018 9.4127C13.7755 8.32642 12.6172 7.65678 11.3633 7.65605L7.22284 7.65363C5.96893 7.6529 4.80987 8.32117 4.18228 9.40673L2.10994 12.9913C1.48235 14.0768 1.48157 15.4147 2.10789 16.501L4.17603 20.088C4.80236 21.1743 5.96063 21.8439 7.21454 21.8447L11.355 21.8471C12.6089 21.8478 13.768 21.1795 14.3956 20.094L16.4679 16.5094C17.0955 15.4239 17.0963 14.086 16.47 12.9997ZM11.3618 10.3281C11.661 10.3283 11.9375 10.4881 12.087 10.7474L14.1551 14.3344C14.3046 14.5936 14.3044 14.9129 14.1546 15.172L12.0823 18.7566C11.9325 19.0157 11.6559 19.1752 11.3566 19.175L7.21611 19.1726C6.91684 19.1724 6.64039 19.0126 6.49091 18.7533L4.42276 15.1663C4.27328 14.9071 4.27347 14.5878 4.42325 14.3287L6.49559 10.7441C6.64538 10.485 6.92201 10.3255 7.22128 10.3257L11.3618 10.3281Z" fill="white" stroke="white"/>
<path d="M16.47 23.1994L14.4018 19.6125C13.7755 18.5262 12.6172 17.8565 11.3633 17.8558L7.22284 17.8534C5.96893 17.8527 4.80987 18.5209 4.18228 19.6065L2.10994 23.191C1.48235 24.2766 1.48157 25.6145 2.10789 26.7008L4.17603 30.2878C4.80236 31.3741 5.96063 32.0437 7.21454 32.0444L11.355 32.0468C12.6089 32.0476 13.768 31.3793 14.3956 30.2937L16.4679 26.7092C17.0955 25.6236 17.0963 24.2857 16.47 23.1994ZM11.3618 20.5279C11.661 20.5281 11.9375 20.6879 12.087 20.9471L14.1551 24.5341C14.3046 24.7934 14.3044 25.1127 14.1546 25.3718L12.0823 28.9563C11.9325 29.2154 11.6559 29.3749 11.3566 29.3748L7.21611 29.3723C6.91684 29.3722 6.64039 29.2123 6.49091 28.9531L4.42276 25.3661C4.27328 25.1068 4.27347 24.7875 4.42325 24.5284L6.49559 20.9439C6.64538 20.6848 6.92201 20.5253 7.22128 20.5255L11.3618 20.5279Z" fill="white" stroke="white"/>
<path d="M20.3715 4.56904C20.8494 4.56932 21.2908 4.82454 21.5295 5.23855L23.5977 8.82553C23.8364 9.23954 23.8361 9.74946 23.5969 10.1632L21.5246 13.7477C21.2854 14.1615 20.8436 14.4162 20.3657 14.4159L16.2252 14.4135C15.7473 14.4132 15.3059 14.158 15.0672 13.744L12.999 10.157C12.7603 9.74299 12.7606 9.23307 12.9998 8.81933L15.0722 5.23478C15.3113 4.82104 15.7531 4.56634 16.231 4.56662L20.3715 4.56904Z" fill="#FDDD45"/>
<path d="M20.3715 14.8444C20.8494 14.8447 21.2908 15.0999 21.5295 15.5139L23.5977 19.1009C23.8364 19.5149 23.8361 20.0248 23.5969 20.4385L21.5246 24.0231C21.2854 24.4368 20.8436 24.6915 20.3657 24.6912L16.2252 24.6888C15.7473 24.6885 15.3059 24.4333 15.0672 24.0193L12.999 20.4323C12.7603 20.0183 12.7606 19.5084 12.9998 19.0947L15.0722 15.5101C15.3113 15.0964 15.7531 14.8417 16.231 14.842L20.3715 14.8444Z" fill="#FDDD45"/>
<path d="M20.3715 25.2113C20.8494 25.2115 21.2908 25.4668 21.5295 25.8808L23.5977 29.4678C23.8364 29.8818 23.8361 30.3917 23.5969 30.8054L21.5246 34.39C21.2854 34.8037 20.8436 35.0584 20.3657 35.0581L16.2252 35.0557C15.7473 35.0554 15.3059 34.8002 15.0672 34.3862L12.999 30.7992C12.7603 30.3852 12.7606 29.8753 12.9998 29.4616L15.0722 25.877C15.3113 25.4633 15.7531 25.2086 16.231 25.2088L20.3715 25.2113Z" fill="#FDDD45"/>
<path d="M29.309 9.82813C29.7869 9.82841 30.2283 10.0836 30.467 10.4976L32.5352 14.0846C32.7739 14.4986 32.7736 15.0086 32.5344 15.4223L30.4621 19.0068C30.2229 19.4206 29.7811 19.6753 29.3032 19.675L25.1627 19.6726C24.6848 19.6723 24.2434 19.4171 24.0047 19.0031L21.9365 15.4161C21.6978 15.0021 21.6981 14.4922 21.9373 14.0784L24.0097 10.4939C24.2488 10.0801 24.6906 9.82543 25.1685 9.82571L29.309 9.82813Z" fill="#FDDD45"/>
<path d="M29.309 20.0278C29.7869 20.0281 30.2283 20.2833 30.467 20.6973L32.5352 24.2843C32.7739 24.6983 32.7736 25.2082 32.5344 25.622L30.4621 29.2065C30.2229 29.6203 29.7811 29.875 29.3032 29.8747L25.1627 29.8723C24.6848 29.872 24.2434 29.6168 24.0047 29.2028L21.9365 25.6158C21.6978 25.2018 21.6981 24.6919 21.9373 24.2781L24.0097 20.6936C24.2488 20.2798 24.6906 20.0251 25.1685 20.0254L29.309 20.0278Z" fill="#FDDD45"/>
<path d="M11.4184 9.82813C11.8963 9.82841 12.3377 10.0836 12.5764 10.4976L14.6446 14.0846C14.8833 14.4986 14.883 15.0086 14.6438 15.4223L12.5714 19.0068C12.3322 19.4206 11.8905 19.6753 11.4126 19.675L7.27211 19.6726C6.79421 19.6723 6.35276 19.4171 6.11405 19.0031L4.04591 15.4161C3.8072 15.0021 3.8075 14.4922 4.04669 14.0784L6.11903 10.4939C6.35822 10.0801 6.79997 9.82543 7.27787 9.82571L11.4184 9.82813Z" fill="#FDDD45"/>
<path d="M11.4184 20.0278C11.8963 20.0281 12.3377 20.2833 12.5764 20.6973L14.6446 24.2843C14.8833 24.6983 14.883 25.2082 14.6438 25.622L12.5714 29.2065C12.3322 29.6203 11.8905 29.875 11.4126 29.8747L7.27211 29.8723C6.79421 29.872 6.35276 29.6168 6.11405 29.2028L4.04591 25.6158C3.8072 25.2018 3.8075 24.6919 4.04669 24.2781L6.11903 20.6936C6.35822 20.2798 6.79997 20.0251 7.27787 20.0254L11.4184 20.0278Z" fill="#FDDD45"/>
<defs>
<filter id="filter0_i" x="12.7646" y="0.566658" width="10.9563" height="13.8493" filterUnits="userSpaceOnUse" color-interpolation-filters="sRGB">
<feFlood flood-opacity="0" result="BackgroundImageFix"/>
<feBlend mode="normal" in="SourceGraphic" in2="BackgroundImageFix" result="shape"/>
<feColorMatrix in="SourceAlpha" type="matrix" values="0 0 0 0 0 0 0 0 0 0 0 0 0 0 0 0 0 0 127 0" result="hardAlpha"/>
<feOffset dy="-5"/>
<feGaussianBlur stdDeviation="2"/>
<feComposite in2="hardAlpha" operator="arithmetic" k2="-1" k3="1"/>
<feColorMatrix type="matrix" values="0 0 0 0 0.963607 0 0 0 0 0.689892 0 0 0 0 0.158562 0 0 0 1 0"/>
<feBlend mode="normal" in2="shape" result="effect1_innerShadow"/>
</filter>
<filter id="filter1_i" x="12.7646" y="10.842" width="10.9563" height="13.8493" filterUnits="userSpaceOnUse" color-interpolation-filters="sRGB">
<feFlood flood-opacity="0" result="BackgroundImageFix"/>
<feBlend mode="normal" in="SourceGraphic" in2="BackgroundImageFix" result="shape"/>
<feColorMatrix in="SourceAlpha" type="matrix" values="0 0 0 0 0 0 0 0 0 0 0 0 0 0 0 0 0 0 127 0" result="hardAlpha"/>
<feOffset dy="-5"/>
<feGaussianBlur stdDeviation="2"/>
<feComposite in2="hardAlpha" operator="arithmetic" k2="-1" k3="1"/>
<feColorMatrix type="matrix" values="0 0 0 0 0.963607 0 0 0 0 0.689892 0 0 0 0 0.158562 0 0 0 1 0"/>
<feBlend mode="normal" in2="shape" result="effect1_innerShadow"/>
</filter>
<filter id="filter2_i" x="12.7646" y="21.2089" width="10.9563" height="13.8493" filterUnits="userSpaceOnUse" color-interpolation-filters="sRGB">
<feFlood flood-opacity="0" result="BackgroundImageFix"/>
<feBlend mode="normal" in="SourceGraphic" in2="BackgroundImageFix" result="shape"/>
<feColorMatrix in="SourceAlpha" type="matrix" values="0 0 0 0 0 0 0 0 0 0 0 0 0 0 0 0 0 0 127 0" result="hardAlpha"/>
<feOffset dy="-5"/>
<feGaussianBlur stdDeviation="2"/>
<feComposite in2="hardAlpha" operator="arithmetic" k2="-1" k3="1"/>
<feColorMatrix type="matrix" values="0 0 0 0 0.963607 0 0 0 0 0.689892 0 0 0 0 0.158562 0 0 0 1 0"/>
<feBlend mode="normal" in2="shape" result="effect1_innerShadow"/>
</filter>
<filter id="filter3_i" x="21.7021" y="5.82572" width="10.9563" height="13.8493" filterUnits="userSpaceOnUse" color-interpolation-filters="sRGB">
<feFlood flood-opacity="0" result="BackgroundImageFix"/>
<feBlend mode="normal" in="SourceGraphic" in2="BackgroundImageFix" result="shape"/>
<feColorMatrix in="SourceAlpha" type="matrix" values="0 0 0 0 0 0 0 0 0 0 0 0 0 0 0 0 0 0 127 0" result="hardAlpha"/>
<feOffset dy="-5"/>
<feGaussianBlur stdDeviation="2"/>
<feComposite in2="hardAlpha" operator="arithmetic" k2="-1" k3="1"/>
<feColorMatrix type="matrix" values="0 0 0 0 0.963607 0 0 0 0 0.689892 0 0 0 0 0.158562 0 0 0 1 0"/>
<feBlend mode="normal" in2="shape" result="effect1_innerShadow"/>
</filter>
<filter id="filter4_i" x="21.7021" y="16.0254" width="10.9563" height="13.8493" filterUnits="userSpaceOnUse" color-interpolation-filters="sRGB">
<feFlood flood-opacity="0" result="BackgroundImageFix"/>
<feBlend mode="normal" in="SourceGraphic" in2="BackgroundImageFix" result="shape"/>
<feColorMatrix in="SourceAlpha" type="matrix" values="0 0 0 0 0 0 0 0 0 0 0 0 0 0 0 0 0 0 127 0" result="hardAlpha"/>
<feOffset dy="-5"/>
<feGaussianBlur stdDeviation="2"/>
<feComposite in2="hardAlpha" operator="arithmetic" k2="-1" k3="1"/>
<feColorMatrix type="matrix" values="0 0 0 0 0.963607 0 0 0 0 0.689892 0 0 0 0 0.158562 0 0 0 1 0"/>
<feBlend mode="normal" in2="shape" result="effect1_innerShadow"/>
</filter>
<filter id="filter5_i" x="3.81104" y="5.82572" width="10.9563" height="13.8493" filterUnits="userSpaceOnUse" color-interpolation-filters="sRGB">
<feFlood flood-opacity="0" result="BackgroundImageFix"/>
<feBlend mode="normal" in="SourceGraphic" in2="BackgroundImageFix" result="shape"/>
<feColorMatrix in="SourceAlpha" type="matrix" values="0 0 0 0 0 0 0 0 0 0 0 0 0 0 0 0 0 0 127 0" result="hardAlpha"/>
<feOffset dy="-5"/>
<feGaussianBlur stdDeviation="2"/>
<feComposite in2="hardAlpha" operator="arithmetic" k2="-1" k3="1"/>
<feColorMatrix type="matrix" values="0 0 0 0 0.963607 0 0 0 0 0.689892 0 0 0 0 0.158562 0 0 0 1 0"/>
<feBlend mode="normal" in2="shape" result="effect1_innerShadow"/>
</filter>
<filter id="filter6_i" x="3.81104" y="16.0254" width="10.9563" height="13.8493" filterUnits="userSpaceOnUse" color-interpolation-filters="sRGB">
<feFlood flood-opacity="0" result="BackgroundImageFix"/>
<feBlend mode="normal" in="SourceGraphic" in2="BackgroundImageFix" result="shape"/>
<feColorMatrix in="SourceAlpha" type="matrix" values="0 0 0 0 0 0 0 0 0 0 0 0 0 0 0 0 0 0 127 0" result="hardAlpha"/>
<feOffset dy="-5"/>
<feGaussianBlur stdDeviation="2"/>
<feComposite in2="hardAlpha" operator="arithmetic" k2="-1" k3="1"/>
<feColorMatrix type="matrix" values="0 0 0 0 0.963607 0 0 0 0 0.689892 0 0 0 0 0.158562 0 0 0 1 0"/>
<feBlend mode="normal" in2="shape" result="effect1_innerShadow"/>
</filter>
</defs>
</svg>
