<svg width="232" height="133" viewBox="0 0 232 133" fill="none" xmlns="http://www.w3.org/2000/svg">
<path d="M70.1874 47.437C69.8033 48.2029 69.4576 49.0071 69.1887 49.8113L68.843 49.39L68.4206 52.76C68.3437 53.2195 68.2669 53.7174 68.1901 54.1769L68.0365 54.2918V55.5556C67.998 55.9002 68.0365 56.2449 68.0365 56.4746V56.9342V58.8872L63.3505 55.5173C62.083 54.5982 60.393 54.3301 58.895 54.7897C57.3587 55.2875 56.2064 56.3981 55.6687 57.8533C53.633 63.4827 55.5918 69.8397 60.5082 73.3246C62.7744 74.933 65.463 75.8138 68.1901 75.8521C68.2285 76.3116 68.3053 76.7711 68.3821 77.2307C65.9239 80.3709 62.7744 83.4728 58.895 86.3832C37.962 102.084 7.81066 102.467 1.66517 64.9379C-4.48032 27.4085 6.85043 -2.61495 27.9755 0.180601C41.0347 1.90389 44.1075 16.6476 42.379 25.4555C40.6506 34.2634 28.9358 63.5593 40.2665 62.9848C51.5973 62.4104 58.3189 44.2202 68.6894 46.9008C69.2271 47.0157 69.7265 47.2072 70.1874 47.437Z" fill="white"/>
<path d="M147.351 84.4694C146.429 86.2692 145.353 87.9925 144.163 89.6009C134.138 103.119 117.622 92.4731 117.622 92.4731C117.622 92.4731 116.316 95.1537 112.436 95.9579C106.022 97.26 102.181 94.2729 100.069 89.1031C101.759 87.801 103.218 86.1926 104.409 84.3545L104.524 84.2396L104.793 83.78C106.637 80.7164 107.597 77.3081 107.597 73.7084V73.134C110.631 72.8276 113.474 71.4873 115.663 69.2661C119.926 65.0154 120.848 58.4286 117.929 53.2204C117.161 51.8035 115.778 50.8844 114.203 50.6546C112.629 50.4249 111.092 50.961 109.978 52.0716L107.52 54.5224C107.174 50.7312 105.715 47.1315 103.372 44.1444C105.523 39.2426 109.402 35.0302 115.356 35.9492C119.004 36.5237 122.192 39.0512 123.998 42.2297C124.382 42.919 124.689 43.57 124.919 44.2976C126.417 48.3186 125.803 52.646 126.302 56.9351C127.493 67.1982 130.566 58.5818 135.751 45.2167C140.975 31.8899 151.844 32.3495 153.381 43.7615C153.419 43.953 153.419 44.1061 153.458 44.2976C149.501 49.2377 146.659 54.4076 145.008 59.6157C141.935 68.9215 142.857 77.8826 147.351 84.4694Z" fill="white"/>
<path d="M185.837 58.9264C187.027 52.4928 189.101 46.9783 192.021 42.5743C190.369 39.3192 187.796 36.6769 183.955 35.0685C177.924 32.5793 171.049 33.3835 165.518 36.6769C161.754 38.898 158.643 42.0382 155.916 45.4082C152.267 49.8887 149.233 54.9437 147.466 60.4582C144.739 68.9215 145.2 78.9548 151.768 85.6182C157.606 91.554 165.825 90.8264 173.354 89.1031C173.354 89.1031 167.746 107.715 136.212 106.298C121.924 105.647 107.981 102.315 93.9616 99.7492C87.1631 98.4854 80.0958 96.877 73.1053 97.2983C66.883 97.6429 60.5455 99.8258 56.4357 104.498C53.0941 108.289 51.5577 113.918 53.1325 118.782C54.8609 124.143 60.6223 127.169 65.6155 128.93C79.6349 133.87 94.8834 133.066 109.441 131.994C121.347 131.113 133.331 128.968 144.547 124.833C162.945 118.054 178.308 104.689 187.027 87.533C182.918 78.8017 184.339 67.2365 185.837 58.9264ZM179.461 67.3514C178.693 70.2618 176.158 72.1383 173.776 71.5256C171.433 70.9128 170.127 68.0407 170.895 65.1303C171.664 62.2198 174.199 60.3433 176.58 60.9561C178.961 61.5688 180.229 64.4409 179.461 67.3514Z" fill="white"/>
<path d="M229.354 50.31C227.588 45.1401 224.63 40.2383 220.213 37.0598C218.792 36.0258 217.371 35.2599 215.911 34.7238C211.456 33.0771 206.808 33.6515 202.391 36.2173C194.095 41.0425 190.138 50.3866 188.487 59.4242C186.835 68.4619 185.491 81.0611 190.983 89.0648C194.748 94.5027 201.7 97.2217 208.306 96.7239C231.659 94.8091 235.538 68.1556 229.354 50.31ZM212.377 68.347C209.958 68.347 207.96 65.8962 207.96 62.8708C207.96 59.8455 209.958 57.3946 212.377 57.3946C214.797 57.3946 216.795 59.8455 216.795 62.8708C216.795 65.8962 214.797 68.347 212.377 68.347Z" fill="white"/>
<path d="M70.8392 54.6756C70.8392 54.6756 70.6471 55.7096 70.7239 57.0116L70.8392 54.6756Z" fill="#F4B002"/>
<path d="M115.548 54.5224C114.779 53.1438 112.974 52.8758 111.86 53.9863L104.87 60.9561V56.3606L104.908 56.3223V56.284C104.87 50.6929 102.143 45.6762 97.9178 42.5743C97.8794 42.5743 97.841 42.536 97.8026 42.536C96.0357 41.2723 94.0384 40.3149 91.8875 39.7788L91.7339 33.9962C91.7339 33.8047 91.6571 33.6132 91.6571 33.4218C91.3114 32.4261 90.2359 31.8134 89.1605 32.158C88.1618 32.5027 87.5473 33.5749 87.893 34.6472L89.3909 39.3958C88.8532 39.3575 88.3155 39.3192 87.7777 39.3192C87.1632 39.3192 86.5102 39.3575 85.8957 39.4341L82.9381 34.6855C82.8613 34.5323 82.7077 34.3791 82.5541 34.2643C81.7475 33.5366 80.48 33.6132 79.7502 34.4174C79.0204 35.2216 79.0972 36.4854 79.9038 37.213L83.015 40.0085C82.2852 40.2 81.5938 40.4681 80.9025 40.7744C80.9025 40.7744 80.7872 40.8127 80.5568 40.9276C79.8654 41.2723 79.174 41.6169 78.5595 42.0382C77.3304 42.8041 75.8708 43.9147 74.9106 45.255C72.4524 48.0888 70.9544 51.6886 70.8008 55.633L70.7624 55.6713V55.7479C70.724 55.9394 70.7624 56.1691 70.7624 56.3606V63.8665C70.8008 63.9048 70.8392 63.9431 70.8776 63.9814C70.8392 63.9431 70.8008 63.9048 70.7624 63.8665V64.058L61.813 57.6244C60.5455 56.7053 58.7403 57.2797 58.241 58.7349C56.6278 63.1389 58.0873 68.2705 62.1203 71.1426C64.7321 73.0191 67.9201 73.5552 70.8008 72.9042V73.7467C70.8008 76.5039 71.4922 79.1463 72.6829 81.4823C72.7213 81.4823 72.7213 81.5206 72.7597 81.5206C75.1411 86.0778 79.5581 89.4094 84.7434 90.3668C84.7434 90.4817 84.7818 90.6349 84.8202 90.7498L86.4334 93.8517C86.7407 94.3495 87.5473 94.3878 87.893 93.8517L89.775 90.903C89.8518 90.7498 89.8902 90.6349 89.8902 90.4817C95.1523 89.8307 99.723 86.8054 102.412 82.478C102.45 82.4397 102.488 82.4397 102.527 82.4014C104.063 79.8356 104.947 76.8869 104.947 73.7084V72.0234C104.87 72.1 104.831 72.1383 104.755 72.2149V72.1766C104.831 72.1 104.87 72.0617 104.947 71.9851V70.4533C108.096 70.7979 111.399 69.8023 113.819 67.3514C117.238 63.9048 117.852 58.62 115.548 54.5224ZM86.4718 40.5447C86.5102 40.5447 86.5102 40.5447 86.5486 40.5447C86.5102 40.5447 86.4718 40.5447 86.4718 40.5447Z" fill="white"/>
</svg>
