<svg width="124" height="181" viewBox="0 0 124 181" fill="none" xmlns="http://www.w3.org/2000/svg">
<path d="M111.259 98.9872V168.051C111.259 172.457 109.016 176.467 105.259 178.771C101.502 181.078 96.9131 181.265 92.9834 179.269L80.5423 172.951L62.9051 163.998C62.7146 163.899 62.5065 163.836 62.2983 163.808C61.8926 163.744 61.4695 163.811 61.0955 163.998L43.1797 173.095L31.0169 179.268C29.2073 180.185 27.2601 180.644 25.3164 180.644C23.0376 180.644 20.7696 180.016 18.7413 178.771C14.9844 176.467 12.7412 172.457 12.7412 168.051V98.9872C12.7412 96.0665 15.1118 93.6959 18.0325 93.6959H80.5423C94.8636 93.6959 105.968 93.6959 105.968 93.6959C108.892 93.6959 111.259 96.0665 111.259 98.9872Z" fill="#4285F4"/>
<path d="M111.259 98.9872V168.051C111.259 172.457 109.015 176.467 105.259 178.771C101.502 181.078 96.9127 181.265 92.983 179.269L80.5418 172.951L62.9047 163.998C62.7142 163.899 62.506 163.836 62.2979 163.808V93.6959H80.5418C94.8631 93.6959 105.968 93.6959 105.968 93.6959C108.892 93.6959 111.259 96.0665 111.259 98.9872Z" fill="#2B71E6"/>
<path d="M80.5423 93.6959V172.951L62.9052 163.998C62.7146 163.899 62.5065 163.835 62.2983 163.807C61.8926 163.744 61.4695 163.811 61.0955 163.998L43.1797 173.095V93.6959H80.5423Z" fill="#4285F4"/>
<path d="M80.5418 93.6959V172.951L62.9047 163.998C62.7142 163.899 62.506 163.835 62.2979 163.807V93.6959H80.5418Z" fill="#2B71E6"/>
<path d="M124 62.0017C124 96.0909 96.3519 123.841 62.2981 124.003H62.0017C27.8138 124.003 0 96.1896 0 62.0017C0 27.8138 27.8138 0 62.0017 0H62.2981C96.3519 0.162297 124 27.9126 124 62.0017Z" fill="#FFB039"/>
<path d="M124 62.0017C124 96.0909 96.3517 123.841 62.2979 124.003V0C96.3517 0.162297 124 27.9126 124 62.0017Z" fill="#FFA013"/>
<path d="M104.278 62.0018C104.278 85.2124 85.4728 104.116 62.2979 104.275C62.1991 104.278 62.1003 104.278 62.0015 104.278C38.6886 104.278 19.7217 85.3111 19.7217 62.0018C19.7217 38.6888 38.6886 19.7219 62.0015 19.7219C62.1003 19.7219 62.1991 19.7219 62.2979 19.7255C85.4732 19.8842 104.278 38.7876 104.278 62.0018Z" fill="#FDDD45"/>
<path d="M104.278 62.0017C104.278 85.2123 85.4728 104.116 62.2979 104.274V19.7255C85.4732 19.8842 104.278 38.7876 104.278 62.0017Z" fill="#FFC639"/>
</svg>
