<svg width="25" height="45" viewBox="0 0 25 45" fill="none" xmlns="http://www.w3.org/2000/svg">
<path d="M16.6664 38.8887C16.6664 41.957 14.1792 44.4445 11.1109 44.4445C8.0426 44.4445 5.55542 41.957 5.55542 38.8887C5.55542 35.8208 8.0426 33.3332 11.1109 33.3332C14.1792 33.3332 16.6664 35.8208 16.6664 38.8887Z" fill="#D7EBFA"/>
<path d="M11.111 30.5555C8.81378 30.5555 6.94452 28.6862 6.94452 26.3887V20.8332C6.94452 18.536 8.81378 16.6668 11.111 16.6668H13.8887C15.4208 16.6668 16.6664 15.4208 16.6664 13.8887V12.5C16.6664 10.2028 14.7972 8.33322 12.5 8.33322C10.2028 8.33322 8.33322 10.2028 8.33322 12.5C8.33322 14.7972 6.46396 16.6668 4.16644 16.6668C1.86926 16.6668 0 14.7972 0 12.5C0 5.60678 5.60678 0 12.5 0C19.3929 0 25 5.60678 25 12.5V13.8887C25 19.5444 20.7499 24.2279 15.2777 24.9139V26.3887C15.2777 28.6862 13.4081 30.5555 11.111 30.5555Z" fill="#D7EBFA"/>
<path d="M11.1109 41.6665C8.52889 41.6665 6.37345 39.8903 5.7525 37.5C5.63608 37.9472 5.55542 38.4068 5.55542 38.8887C5.55542 41.9526 8.04698 44.4445 11.1109 44.4445C14.1748 44.4445 16.6664 41.9526 16.6664 38.8887C16.6664 38.4068 16.5861 37.9472 16.4693 37.5C15.8483 39.8903 13.6929 41.6665 11.1109 41.6665Z" fill="#76B9E8"/>
<path d="M8.33322 12.5C8.33322 10.2028 10.2028 8.33322 12.5 8.33322C14.536 8.33322 16.2291 9.80292 16.5888 11.736C16.6361 11.5348 16.6664 11.3263 16.6664 11.111V9.72226C16.6664 7.42508 14.7972 5.55548 12.5 5.55548C10.2028 5.55548 8.33322 7.42508 8.33322 9.72226C8.33322 12.0194 6.46396 13.8887 4.16644 13.8887C2.22091 13.8887 0.59564 12.5432 0.138701 10.736C0.0570329 11.3138 0 11.9 0 12.5C0 14.7972 1.86926 16.6668 4.16644 16.6668C6.46396 16.6668 8.33322 14.7972 8.33322 12.5Z" fill="#76B9E8"/>
<path d="M15.2776 22.1362V23.611C15.2776 25.9082 13.408 27.7778 11.1108 27.7778C8.8136 27.7778 6.94434 25.9082 6.94434 23.611V26.3887C6.94434 28.6862 8.8136 30.5555 11.1108 30.5555C13.408 30.5555 15.2776 28.6862 15.2776 26.3887V24.9126C20.7497 24.2279 24.9998 19.5444 24.9998 13.8874V12.5C24.9998 12.2749 24.9775 12.0556 24.9664 11.8332C24.6219 17.1598 20.5151 21.4805 15.2776 22.1362Z" fill="#76B9E8"/>
<path d="M9.72241 37.5H12.5002V40.2778H9.72241V37.5Z" fill="#D7EBFA"/>
</svg>
