<svg width="42" height="26" viewBox="0 0 42 26" fill="none" xmlns="http://www.w3.org/2000/svg">
<g clip-path="url(#clip0)">
<path d="M13.1935 21.167C14.53 20.6525 15.6737 19.8554 16.5831 18.7467C19.1805 15.5873 19.7936 12.022 18.3124 8.15248C17.2927 5.49306 15.4188 3.64523 12.8421 2.67422C9.50759 1.42059 6.36597 1.92784 3.59639 4.23219C0.90259 6.47856 -0.330631 9.50755 0.0689602 13.109C0.503 17.0148 2.57674 19.7177 5.98705 21.2612C6.75868 21.609 7.61298 21.8047 8.44661 21.9061C9.20446 22.0003 9.93474 21.6452 10.5961 21.2467C12.3047 20.2104 13.3106 18.638 13.4828 16.5873C13.5931 15.2249 13.5862 13.8336 13.4691 12.4641C13.2899 10.3626 11.4642 8.68871 9.52826 8.68871C7.43385 8.68871 5.70458 10.4133 5.58057 12.6235C5.5599 12.9858 5.5599 13.3481 5.57368 13.7104C5.61502 14.6452 6.33153 15.3699 7.17894 15.3554C8.04013 15.3409 8.70841 14.6162 8.73597 13.667C8.74286 13.4133 8.72908 13.1597 8.74286 12.9061C8.76353 12.3989 9.09422 12.0293 9.53515 12.0293C9.97608 12.0293 10.3137 12.3844 10.3206 12.8989C10.3412 13.7467 10.3343 14.5873 9.9003 15.3554C9.22512 16.5438 7.92301 17.2032 6.68289 16.9713C5.27054 16.7032 4.244 15.6887 4.05799 14.2394C3.82374 12.4641 4.07177 10.7684 5.15342 9.30465C7.44074 6.2032 11.8845 6.33364 14.0133 9.55103C14.6885 10.5655 15.0812 11.6887 15.1088 12.9278C15.1363 14.0873 15.1432 15.2467 15.0881 16.4061C15.0123 18.138 14.3854 19.6597 13.3313 20.9858C13.2899 21.0293 13.2417 21.0945 13.1935 21.167Z" fill="white"/>
<path d="M25.4151 7.45067C25.8629 6.1898 26.3176 4.92893 26.7655 3.66806C26.8206 3.50864 26.8826 3.34922 26.9308 3.1898C27.0893 2.69704 26.917 2.26951 26.4899 2.08835C26.0765 1.91443 25.6494 2.10284 25.4633 2.59559C25.1809 3.34922 24.9191 4.11009 24.6504 4.86371C24.3955 5.57385 24.1406 6.284 23.8581 7.0811C23.7823 6.92168 23.7341 6.83472 23.7065 6.74777C23.2105 5.37096 22.7213 3.99414 22.2253 2.61733C22.0806 2.21878 21.7499 1.99414 21.4123 2.02313C21.0747 2.05936 20.7716 2.30574 20.7096 2.66806C20.6751 2.84922 20.7096 3.05211 20.7647 3.22603C21.2194 4.53038 21.681 5.82748 22.1495 7.12458C22.2459 7.3782 22.2115 7.50864 21.991 7.6753C21.1023 8.34922 20.7027 9.29125 20.6614 10.4434C20.6269 11.5739 20.6131 12.7188 20.4478 13.8347C19.9586 17.226 18.3534 19.8927 15.6045 21.7695C15.5356 21.8202 15.4667 21.8782 15.3702 21.9507C15.4322 21.9724 15.4667 21.9941 15.4942 21.9941C16.8721 21.9507 18.2569 22.0304 19.6142 21.8492C22.1633 21.5014 24.1406 20.0883 25.5667 17.842C26.5588 16.2912 27.0066 14.5521 26.9997 12.6826C26.9997 11.9724 26.9928 11.255 26.9997 10.5449C27.0135 9.27675 26.5381 8.27675 25.5322 7.56661C25.4978 7.53762 25.4633 7.50139 25.4151 7.45067Z" fill="white"/>
</g>
<path d="M31.9473 20.8795C31.9131 20.882 31.8802 20.8834 31.8463 20.8834C31.4755 20.8834 31.1179 20.7283 30.8538 20.4482L30.666 20.2488C30.1736 19.7285 30.1158 18.9043 30.5305 18.3126C31.5818 16.8119 32.1367 15.033 32.1367 13.1668C32.1367 11.1596 31.5067 9.27684 30.3145 7.72198C29.8606 7.131 29.9025 6.27266 30.4112 5.73444L30.5986 5.53568C30.879 5.23878 31.2548 5.07697 31.6615 5.10265C32.0576 5.12375 32.4274 5.3211 32.6786 5.64614C34.3324 7.78847 35.2059 10.3895 35.2059 13.1671C35.2059 15.7541 34.4334 18.2166 32.9714 20.2871C32.7272 20.6322 32.3537 20.8489 31.9473 20.8795ZM37.7515 25.4727C37.4977 25.7903 37.1305 25.981 36.7374 25.9986C36.7181 25.9993 36.6985 26 36.6786 26C36.3068 26 35.9499 25.8445 35.6858 25.5648L35.5013 25.3696C34.986 24.8244 34.9511 23.9523 35.4196 23.362C37.6837 20.5112 38.9311 16.8907 38.9311 13.1668C38.9311 9.29337 37.5957 5.56453 35.1717 2.66729C34.6803 2.07912 34.7052 1.18877 35.2282 0.632959L35.4123 0.437723C35.6854 0.147154 36.0403 -0.0129043 36.4473 0.000815011C36.8338 0.0124237 37.1993 0.193237 37.4561 0.499284C40.3861 3.99173 42 8.49097 42 13.1668C42.0007 17.6657 40.4918 22.0362 37.7515 25.4727Z" fill="white"/>
<defs>
<clipPath id="clip0">
<rect width="27" height="20" fill="white" transform="matrix(-1 0 0 1 27 2)"/>
</clipPath>
</defs>
</svg>
