<svg width="73" height="73" viewBox="0 0 73 73" fill="none" xmlns="http://www.w3.org/2000/svg">
<path d="M33.458 54.75C33.458 56.429 34.8207 57.7917 36.4997 57.7917C38.1787 57.7917 39.5413 56.429 39.5413 54.75V18.25C39.5413 16.571 38.1787 15.2084 36.4997 15.2084C34.8207 15.2084 33.458 16.571 33.458 18.25V54.75Z" fill="white"/>
<path d="M3.04167 18.25C1.36266 18.25 0 19.6127 0 21.2917V51.7083C0 53.3873 1.36266 54.75 3.04167 54.75C4.72067 54.75 6.08333 53.3873 6.08333 51.7083V21.2917C6.08333 19.6127 4.72067 18.25 3.04167 18.25Z" fill="white"/>
<path d="M28.8958 48.6666V24.3333C28.8958 22.6543 27.5332 21.2916 25.8542 21.2916C24.1752 21.2916 22.8125 22.6543 22.8125 24.3333V48.6666C22.8125 50.3456 24.1752 51.7083 25.8542 51.7083C27.5332 51.7083 28.8958 50.3456 28.8958 48.6666Z" fill="white"/>
<path d="M15.2087 45.625C16.8877 45.625 18.2503 44.2623 18.2503 42.5833V30.4167C18.2503 28.7377 16.8877 27.375 15.2087 27.375C13.5297 27.375 12.167 28.7377 12.167 30.4167V42.5833C12.167 44.2623 13.5297 45.625 15.2087 45.625Z" fill="white"/>
<path d="M50.1878 48.6666V24.3333C50.1878 22.6543 48.8252 21.2916 47.1462 21.2916C45.4672 21.2916 44.1045 22.6543 44.1045 24.3333V48.6666C44.1045 50.3456 45.4672 51.7083 47.1462 51.7083C48.8252 51.7083 50.1878 50.3456 50.1878 48.6666Z" fill="white"/>
<path d="M69.9587 18.25C68.2797 18.25 66.917 19.6127 66.917 21.2917V51.7083C66.917 53.3873 68.2797 54.75 69.9587 54.75C71.6377 54.75 73.0003 53.3873 73.0003 51.7083V21.2917C73.0003 19.6127 71.6377 18.25 69.9587 18.25Z" fill="white"/>
<path d="M57.7917 27.375C56.1127 27.375 54.75 28.7377 54.75 30.4167V42.5833C54.75 44.2623 56.1127 45.625 57.7917 45.625C59.4707 45.625 60.8333 44.2623 60.8333 42.5833V30.4167C60.8333 28.7377 59.4707 27.375 57.7917 27.375Z" fill="white"/>
<path d="M33.458 69.9583C33.458 71.6373 34.8207 73 36.4997 73C38.1787 73 39.5413 71.6373 39.5413 69.9583V66.9167C39.5413 65.2377 38.1787 63.875 36.4997 63.875C34.8207 63.875 33.458 65.2377 33.458 66.9167V69.9583Z" fill="white"/>
<path d="M36.4997 9.125C38.1787 9.125 39.5413 7.76234 39.5413 6.08333V3.04167C39.5413 1.36266 38.1787 0 36.4997 0C34.8207 0 33.458 1.36266 33.458 3.04167V6.08333C33.458 7.76234 34.8207 9.125 36.4997 9.125Z" fill="white"/>
</svg>
