<svg width="37" height="37" viewBox="0 0 37 37" fill="none" xmlns="http://www.w3.org/2000/svg">
<g filter="url(#filter0_d)">
<path d="M16.7577 1.09115C17.5227 -0.266138 19.4773 -0.26614 20.2423 1.09115L24.5573 8.74677C24.8427 9.25312 25.3343 9.61026 25.9041 9.72523L34.5184 11.4633C36.0457 11.7715 36.6497 13.6304 35.5952 14.7774L29.6477 21.2469C29.2543 21.6749 29.0666 22.2527 29.1333 22.8301L30.1422 31.56C30.3211 33.1077 28.7398 34.2566 27.3231 33.6082L19.3323 29.9509C18.8038 29.709 18.1962 29.709 17.6677 29.9509L9.67689 33.6082C8.26017 34.2566 6.67891 33.1077 6.85778 31.56L7.86671 22.8301C7.93345 22.2527 7.74569 21.6749 7.35231 21.2469L1.4048 14.7774C0.350348 13.6304 0.954335 11.7715 2.4816 11.4633L11.0959 9.72523C11.6657 9.61026 12.1573 9.25312 12.4427 8.74677L16.7577 1.09115Z" fill="#FFB55D"/>
</g>
<defs>
<filter id="filter0_d" x="0.875488" y="0.0731812" width="35.2491" height="36.7196" filterUnits="userSpaceOnUse" color-interpolation-filters="sRGB">
<feFlood flood-opacity="0" result="BackgroundImageFix"/>
<feColorMatrix in="SourceAlpha" type="matrix" values="0 0 0 0 0 0 0 0 0 0 0 0 0 0 0 0 0 0 127 0"/>
<feOffset dy="3"/>
<feColorMatrix type="matrix" values="0 0 0 0 0.92549 0 0 0 0 0.4 0 0 0 0 0 0 0 0 1 0"/>
<feBlend mode="normal" in2="BackgroundImageFix" result="effect1_dropShadow"/>
<feBlend mode="normal" in="SourceGraphic" in2="effect1_dropShadow" result="shape"/>
</filter>
</defs>
</svg>
